<svg viewBox="0 0 130 62" version="1.1" xmlns="http://www.w3.org/2000/svg" xmlns:xlink="http://www.w3.org/1999/xlink">
  <g id="logo-full" stroke="none" stroke-width="1" fill="none" fill-rule="evenodd">
  	<g id="logo-text" transform="translate(68.000000, 27.000000)" fill="#002D5C">
  		<path d="M56.7955439,9.41507143 L55.4264545,5.55972176 C55.1344178,4.71154483 54.7861172,3.27221429 54.7861172,3.27221429 L54.7298532,3.27221429 C54.7298532,3.27221429 54.3842318,4.71154483 54.0868367,5.55972176 L52.7204265,9.41507143 L56.7955439,9.41507143 Z M47.4809899,13.2796076 L47.8263118,13.2796076 C48.198197,13.2796076 48.3841395,13.2023359 48.5169557,12.7902205 L53.2452096,0.272214286 L56.2973241,0.272214286 L61.0016711,12.7902205 C61.1344872,13.1765787 61.3204298,13.2796076 61.6923149,13.2796076 L62.0349805,13.2796076 L62.0349805,15.7007857 L60.2818077,15.7007857 C59.1661523,15.7007857 58.7703602,15.4174564 58.3958188,14.4386822 L57.4129795,11.7341747 L52.0498645,11.7341747 L51.0670252,14.4386822 C50.7217033,15.4174564 50.3205986,15.7007857 49.2049432,15.7007857 L47.4809899,15.7007857 L47.4809899,13.2796076 Z" id="A"></path>
  		<path d="M37.6875221,2.71094123 L36.2394366,2.71094123 L36.2394366,0.285714286 L45.2175667,0.285714286 C46.2707198,0.285714286 46.7183099,0.747539417 46.7183099,1.75633063 L46.7183099,4.10415671 L44.111756,4.10415671 L44.111756,3.17534639 C44.111756,2.86574295 43.9274542,2.68256092 43.6115082,2.68256092 L40.5836931,2.68256092 L40.5836931,7.04538939 L45.6124991,7.04538939 L45.6124991,9.47061634 L40.5836931,9.47061634 L40.5836931,15.7142857 L37.6875221,15.7142857 L37.6875221,2.71094123 Z" id="F"></path>
  		<path d="M17.3457553,13.2931076 L18.2999865,13.2931076 C18.6180636,13.2931076 18.8036086,13.1153828 18.8036086,12.8062962 L18.8036086,0.285714286 L21.4277447,0.285714286 L27.4447031,8.81392798 C28.0808573,9.71285476 28.7700243,10.977534 28.7700243,10.977534 L28.8230372,10.977534 C28.8230372,10.977534 28.6639986,9.68967326 28.6639986,8.81392798 L28.6639986,1.75645123 C28.6639986,0.723586931 29.1146078,0.285714286 30.1748648,0.285714286 L33.0375587,0.285714286 L33.0375587,2.70946816 L32.0833274,2.70946816 C31.7652503,2.70946816 31.5797053,2.88719294 31.5797053,3.19627951 L31.5797053,15.7142857 L28.9555693,15.7142857 L22.9121044,7.21698068 C22.2759502,6.34123539 21.5867832,5.05337467 21.5867832,5.05337467 L21.5337704,5.05337467 C21.5337704,5.05337467 21.6928089,6.34123539 21.6928089,7.21698068 L21.6928089,14.2461245 C21.6928089,15.2789888 21.2421997,15.7142857 20.1819427,15.7142857 L17.3192488,15.7142857 L17.3192488,13.2931076 L17.3457553,13.2931076 Z" id="N"></path>
  		<path d="M8.03253034,0 C10.0738004,0 14.0503006,0.824688964 14.0503006,3.4642107 L14.0503006,5.19631604 L11.3993005,5.19631604 L11.3993005,4.31733721 C11.3993005,3.17724996 9.4905804,2.66020359 8.11206034,2.66020359 C5.27549022,2.66020359 3.04865013,4.65341735 3.04865013,7.85910486 C3.04865013,10.8838261 5.32851022,13.3397964 8.21810034,13.3397964 C11.2137305,13.3397964 13.0164105,11.2974632 13.0164105,11.2974632 L14.5539906,13.3397964 C14.5539906,13.3397964 12.2476205,16 8.16508034,16 C3.31375014,16 0,12.4582323 0,7.88495718 C0,3.38665374 3.44630014,0 8.03253034,0" id="C"></path>
  	</g>
  	<g id="logo-mark">
  		<path d="M54.8238084,33.8020488 C54.8238084,34.1108448 54.807446,34.4033884 54.807446,34.7121844 L33.9798195,34.7121844 C33.3744128,34.7121844 32.8835425,35.1997571 32.8835425,35.8010967 C32.8835425,36.4024362 33.3744128,36.8900089 33.9798195,36.8900089 L54.6274602,36.8900089 C53.0894,49.7944315 42.0120937,59.8384279 28.6276971,59.8384279 C22.8190653,59.8384279 17.3229542,57.9856519 12.7071372,54.4751289 C12.7071372,54.4751289 12.1180929,54.0525659 11.3490627,53.321207 C10.9072795,52.9148964 10.2200611,52.9311488 9.81100249,53.3537118 C9.38558157,53.7925272 9.40194391,54.4751289 9.82736483,54.8960666 C10.7125676,55.7265653 11.3817874,56.214138 11.3817874,56.214138 C16.3723021,60.0009522 22.328195,62 28.6113347,62 C44.2537347,62 57,49.3539909 57,33.8020488 C57,26.6672358 54.3165757,19.8737237 49.4405975,14.640444 C49.0315389,14.2016286 48.3443205,14.1691237 47.9041735,14.5754343 C47.460754,14.9817448 47.4280293,15.6643465 47.8370879,16.1031619 C52.3367322,20.9463835 54.8238084,27.2198181 54.8238084,33.8020488" id="Fill-3" fill="#002D5C"></path>
  		<path d="M1.67245415,39.4438407 C1.73795008,39.4438407 1.78707203,39.4438407 1.85256797,39.4275532 C2.44203138,39.3298283 2.85138098,38.7760538 2.75313707,38.1734169 C2.68764114,37.7825173 2.63851919,37.3916176 2.58939724,36.9844305 L22.7785192,36.9844305 C23.3843566,36.9844305 23.8755761,36.495806 23.8755761,35.8931691 C23.8755761,35.2905321 23.3843566,34.8019076 22.7785192,34.8019076 L2.4256574,34.8019076 C2.40928341,34.4924454 2.40928341,34.1992707 2.40928341,33.8898085 C2.40928341,28.3032013 4.16129967,22.9771939 7.46884439,18.4818481 C7.82907203,17.9932236 7.71445415,17.3091492 7.23960862,16.9671121 C6.74838911,16.6087874 6.07705577,16.7227998 5.71682813,17.1951369 C2.13092569,22.0650947 0.231543577,27.8308642 0.231543577,33.8898085 C0.231543577,35.4371195 0.362535447,37.000718 0.608145203,38.5154541 C0.673641138,39.0692286 1.14848667,39.4438407 1.67245415,39.4438407" id="Fill-2" fill="#002D5C"></path>
  		<path d="M18.7341452,14.1476689 C19.896698,14.8957151 20.6990233,16.0990939 21.1411208,17.7252814 C19.94582,17.8553764 17.93182,17.8716383 16.2289257,16.8308783 C15.0008769,16.082832 14.1003078,14.8794532 13.5763403,13.2532657 C14.8371371,13.090647 17.0148769,13.0418613 18.7341452,14.1476689 M25.955072,8.29339376 C25.9223241,6.42327811 26.7573972,4.60194808 28.4275436,2.86192743 C29.2298688,3.77259244 30.4579176,5.52887497 30.6052834,7.77301375 C30.7362753,9.77322441 29.999446,11.7896969 28.4111696,13.8061695 C27.4614785,12.7491476 25.98782,10.7326751 25.955072,8.29339376 M37.3349907,15.7738564 C38.2683078,14.8306676 39.5291046,14.261502 41.101007,14.0988832 C41.0355111,15.2860001 40.7080314,17.2211633 39.4144867,18.4895895 C38.4975436,19.3839927 37.1892623,19.8393252 35.5174785,19.8393252 C35.6648444,18.7660414 36.074194,17.0585445 37.3349907,15.7738564 M38.9396411,26.2952897 L38.6612834,26.2952897 C36.8273972,26.2952897 35.7139663,25.5472434 35.3046167,24.0186271 C35.4683566,24.0023653 35.6484704,23.9861034 35.8285842,23.9861034 C37.4004867,23.9861034 38.4173111,24.7341496 38.9396411,26.2952897 M22.2218037,27.9214772 C20.4206655,27.9214772 19.2417387,27.0433359 18.6359013,25.2545297 C18.7668932,25.2545297 18.897885,25.2382678 19.0288769,25.2382678 C21.2721127,25.2382678 22.6802753,26.1001472 23.2206167,27.8239059 C22.942259,27.8726916 22.5984054,27.9214772 22.2218037,27.9214772 M15.0827468,18.7009939 C17.8663241,20.392229 21.0756249,19.9856821 22.2545517,19.7742777 L27.3304867,22.5713202 L27.3304867,28.9622372 L25.4966005,27.954001 C24.8743891,24.8479828 22.5656574,23.0917002 19.0288769,23.0917002 C17.899072,23.0917002 17.0639989,23.2868428 17.0312509,23.2868428 C16.4581615,23.4169378 16.0979338,23.9698415 16.1961777,24.5390071 C17.0803728,29.385046 20.3551696,30.1005685 22.2218037,30.1005685 C23.1059989,30.1005685 23.8919501,29.9379497 24.3667956,29.8078547 L27.3304867,31.4340423 L27.3304867,33.7757523 L27.3304867,39.4674086 C27.2486167,40.6220018 26.7410233,44.9476606 23.7773322,46.7852525 C23.3843566,47.0291806 22.958633,47.2243231 22.5165354,47.3544181 C22.5001615,47.3544181 22.4837875,47.3381563 22.4837875,47.3381563 C19.0125029,46.5250625 17.980942,42.6059506 17.964568,42.5409031 C17.8172021,41.9554755 17.2277387,41.5977143 16.6382753,41.7440712 C16.0488119,41.890428 15.6885842,42.4758556 15.8359501,43.0612831 C15.868698,43.2076399 16.4581615,45.5168262 18.2920476,47.37068 C17.2113647,47.1267519 16.0488119,46.7364669 14.8043891,46.1673012 C14.6570233,46.0859919 14.1658037,45.8258019 13.3962265,45.4859287 C12.905007,45.2403743 9.41734846,43.3377349 9.41734846,40.3618118 C9.41734846,39.7601224 8.92612894,39.2722661 8.32029154,39.2722661 C7.71445415,39.2722661 7.22323463,39.7601224 7.22323463,40.3618118 C7.22323463,41.5977143 7.59983626,42.6872599 8.14017772,43.5979249 C6.27354358,43.0775449 4.99637285,42.8010931 2.63851919,42.5734268 C2.03268179,42.5083793 1.50871431,42.9474499 1.44321837,43.5491393 C1.39409642,44.1345668 1.81982,44.6728349 2.4256574,44.7199943 C6.28991756,45.1102793 8.72964114,45.957523 10.9565029,46.8177762 C8.5659013,47.0617044 6.81388504,47.8097506 5.7495761,49.061915 C5.35660049,49.5172475 5.42209642,50.2002463 5.88056797,50.5905313 C6.09342976,50.7710381 6.33903951,50.8507213 6.58464927,50.8507213 C6.89575496,50.8507213 7.20686065,50.7206263 7.41972244,50.4604363 C9.33547854,48.2000356 15.2628607,48.8992963 17.3914785,49.3708907 C18.5212834,49.6473425 19.5692184,49.7936994 20.5680314,49.7936994 C22.2218037,49.7936994 23.6954623,49.4034144 24.972633,48.6065825 C25.971446,47.9902575 26.7573972,47.1592756 27.3632346,46.2811344 L27.3632346,47.1771637 C27.2813647,50.3466032 26.5117875,51.7142269 25.8568281,52.2817663 C25.3819826,52.7045751 24.7761452,52.86882 24.0393159,52.7858845 C23.4334785,52.720837 22.8931371,53.1273838 22.8112672,53.7290732 C22.7293972,54.3307626 23.1551208,54.8674045 23.7609582,54.9487139 C23.97382,54.9812376 24.2030558,54.9974995 24.4159176,54.9974995 C25.5129745,54.9974995 26.4954135,54.6397382 27.2977387,53.9242157 C27.3632346,53.8591682 27.4451046,53.7941207 27.5106005,53.7290732 C27.6743403,54.4299601 28.034568,55.3081013 28.7877712,56.0057358 C29.6064704,56.7700439 30.6707793,57.144067 31.9643241,57.144067 C32.1444379,57.144067 32.3245517,57.144067 32.5210395,57.1278052 C33.1268769,57.0790195 33.5706119,56.5586395 33.5198525,55.9569501 C33.4707306,55.3552608 32.9467631,54.9161901 32.3425631,54.9666019 C31.4239826,55.0300233 30.7362753,54.8511426 30.2778037,54.4445957 C29.5246005,53.761597 29.5246005,52.5744801 29.5246005,52.5419563 L29.5246005,47.2893706 C29.8848281,47.8422744 30.2941777,48.3968043 30.7853972,48.8992963 C33.012259,51.2426325 36.1577013,52.4281232 40.1202054,52.4281232 C40.7244054,52.4281232 41.2156249,51.940267 41.2156249,51.3385776 C41.2156249,50.7368882 40.7244054,50.2490319 40.1202054,50.2490319 C37.2547582,50.2490319 34.9443891,49.5513975 33.2087468,48.15125 C34.8641566,47.9902575 36.9583891,47.4845131 38.5139176,46.0372062 C38.8741452,45.7119687 39.1852509,45.3542075 39.4472346,44.9639225 C40.2004379,44.6061612 43.8518363,43.0775449 47.0136525,45.5509762 C47.2101403,45.7119687 47.4541127,45.7770162 47.6833485,45.7770162 C48.0108281,45.7770162 48.3219338,45.6306594 48.5511696,45.3542075 C48.9277712,44.8826131 48.8475387,44.1996143 48.3726932,43.8255912 C45.572742,41.6464999 42.5582915,41.7928568 40.5606655,42.2807131 C40.6916574,41.5977143 40.7407793,40.849668 40.7080314,40.069098 C40.6752834,39.4674086 40.1857013,39.0120761 39.5782265,39.028338 C38.9723891,39.0608618 38.5139176,39.5649799 38.5302915,40.1504074 C38.6137989,42.0042612 38.120942,43.4353062 37.073007,44.4110187 C35.3390021,46.0046825 32.4882915,46.0534681 31.3584867,46.0046825 C29.7210883,43.4190443 29.5573485,40.3780736 29.5573485,39.3698374 L29.5573485,39.2072186 L29.5573485,39.1421711 L29.5573485,39.028338 C29.5573485,38.9470286 29.5573485,38.8657192 29.5409745,38.7844099 L29.5409745,33.7594904 L29.5409745,27.6450253 L33.061381,23.8397465 C33.5362265,26.7668841 35.5518639,28.4418572 38.6776574,28.4418572 C39.7108558,28.4418572 40.4787956,28.2629766 40.5606655,28.2304528 C41.101007,28.1003578 41.4612346,27.5637159 41.3629907,27.0108122 C40.9045192,24.1161984 39.3162428,22.3111302 36.9420151,21.8883215 C38.5630395,21.6606552 39.9057062,21.042704 40.9700151,20.0019439 C43.6880964,17.3349964 43.3114948,13.0093376 43.2951208,12.8141951 C43.2459989,12.2612913 42.7711533,11.8384826 42.2144379,11.8222207 L42.1816899,11.8222207 C39.4963566,11.8222207 37.3513647,12.6353145 35.7958363,14.2127164 C33.7016037,16.343022 33.3561127,19.2538977 33.3069907,20.3759671 L29.5573485,24.425174 L29.5573485,15.8063801 C31.8988281,13.1394326 32.995885,10.3586519 32.8174086,7.56160938 C32.5210395,3.28473618 29.3117387,0.569003015 29.1643728,0.455169888 C28.7386493,0.113670508 28.1328119,0.113670508 27.7234623,0.487693639 C25.0708769,2.89445118 23.7445842,5.51261309 23.7937062,8.30965564 C23.8592021,12.0336251 26.3807956,14.8469295 27.3632346,15.822642 L27.3632346,20.0507296 L23.4334785,17.8879002 C22.925885,15.3510476 21.7469582,13.4646701 19.913072,12.2938151 C16.4909094,10.0984619 12.1026818,11.2693169 11.906194,11.3343644 C11.3494785,11.5132451 11.0056249,12.0661488 11.1202428,12.6353145 C11.7260802,15.432357 13.0687468,17.4650914 15.0827468,18.7009939" id="Fill-1" fill="#007852"></path>
  	</g>
  </g>
</svg>