<svg
  width="2340"
  height="1655"
  viewBox="0 0 2340 1655"
  fill="none"
  xmlns="http://www.w3.org/2000/svg"
>
  <path
    d="M1565.67 554.128L1494.33 625.461L1565.67 696.795L1637 768.128H1683.67H1730.33L1679 716.795L1627.67 665.461H1697.4H1767V625.461V585.461H1696.73H1626.33L1677.67 534.128L1729 482.795H1683H1637L1565.67 554.128Z"
    fill="black"
  />
  <path
    d="M1724.33 735.461L1775.67 786.795H1704.6H1633.67V826.795V866.795H1703.27H1773L1722.33 917.461L1671.67 968.128H1718.33H1765L1835.4 897.728C1874.07 859.061 1905.67 826.795 1905.67 826.128C1905.67 825.328 1874.07 793.195 1835.27 754.395L1765 684.128H1719H1673L1724.33 735.461Z"
    fill="#E03830"
  />
  <path
    d="M1316.47 724.128C1241.93 733.594 1178.47 783.861 1149 856.794C1142.6 872.661 1135.67 899.994 1133.67 917.728C1131 939.728 1132.6 977.994 1136.87 998.261C1154.47 1081.99 1213.67 1146.53 1290.6 1165.86C1327.13 1175.06 1368.6 1173.86 1403 1162.66C1422.87 1156.13 1445.4 1142.53 1459.67 1128.66C1464.47 1123.99 1468.73 1120.13 1469 1120.13C1469.4 1120.13 1469.67 1130.26 1469.67 1142.79V1165.46H1507.67H1545.67V1045.46V925.461H1449.67H1353.67V963.461V1001.46H1411.67C1443.53 1001.46 1469.67 1001.73 1469.67 1002.13C1469.67 1002.39 1468.2 1006.79 1466.33 1011.73C1451.13 1051.86 1417.93 1082.39 1376.73 1093.73C1368.2 1096.13 1362.73 1096.66 1345.67 1096.66C1327 1096.66 1323.93 1096.26 1313.27 1093.06C1291.67 1086.39 1275.13 1076.39 1259 1060.26C1237.27 1038.53 1223 1010.26 1216.2 975.994C1213.67 963.061 1213.93 929.728 1216.87 916.128C1229.8 853.594 1269.8 809.328 1322.47 799.328C1358.07 792.661 1398.07 805.728 1425.27 833.061C1433.27 841.061 1445.93 858.528 1447.67 864.128C1448.47 866.661 1450.07 866.794 1493 866.794H1537.53L1533.53 855.061C1521.53 821.194 1498.73 787.861 1473.27 767.461C1446.33 745.728 1416.2 732.261 1381 726.128C1366.47 723.594 1330.07 722.528 1316.47 724.128Z"
    fill="black"
  />
  <path
    d="M435 949.461V1165.46H595H755V1126.79V1088.13H636.333H517.667V1033.46V978.794H617H716.333V940.128V901.461H617H517.667V855.461V809.461H633.667H749.667V771.461V733.461H592.333H435V949.461Z"
    fill="black"
  />
  <path
    d="M807 771.461V809.461L864.733 809.728L922.333 810.128L922.733 987.728L923 1165.46H963.667H1004.33L1004.6 987.728L1005 810.128L1062.73 809.728L1120.33 809.461V771.461V733.461H963.667H807V771.461Z"
    fill="black"
  />
</svg>
