<svg
  width="601"
  height="217"
  viewBox="0 0 601 217"
  fill="none"
  xmlns="http://www.w3.org/2000/svg"
>
  <path d="M137.7 131.006H56.6001V146.106H137.7V131.006Z" fill="#B10932" />
  <path
    d="M97.5 133.306C43.7 133.206 0 89.6062 0 35.8062H5.7C6.5 86.5062 48.2 127.006 99 126.206C148.6 125.406 188.7 85.4062 189.4 35.8062H195.1C195 89.6062 151.3 133.306 97.5 133.306Z"
    fill="#B10932"
  />
  <path
    d="M130.7 99.3061C131.7 73.5061 152.4 79.8061 165.5 73.7061L165.6 73.9061C156.3 85.0061 156.9 106.506 131.7 100.706L130.7 99.3061Z"
    fill="#B10932"
  />
  <path
    d="M61.2001 99.7059C36.0001 105.406 36.8001 83.8059 27.6001 72.7059L27.7001 72.5059C40.8001 78.7059 61.5001 72.5059 62.3001 98.3059L61.2001 99.7059Z"
    fill="#B10932"
  />
  <path
    d="M91.6999 116.606C65.8999 115.006 72.6999 94.506 66.8999 81.306L67.0999 81.106C77.9999 90.706 99.4999 90.506 93.1999 115.506L91.6999 116.606Z"
    fill="#B10932"
  />
  <path
    d="M102.7 113.706C96.4999 88.7059 117.9 89.0059 129 79.5059L129.2 79.6059C123.4 92.8059 130 113.406 104.2 114.706L102.7 113.706Z"
    fill="#B10932"
  />
  <path
    d="M41.3998 67.8063C15.5998 66.8063 21.7998 46.2063 15.7998 33.0063L15.9998 32.9062C27.0998 42.2063 48.6998 41.5063 42.8998 66.7063L41.3998 67.8063Z"
    fill="#B10932"
  />
  <path
    d="M157.1 69.0059C147.5 45.0059 168.9 42.4059 178.4 31.5059L178.6 31.6059C174.6 45.5058 184 64.9059 158.6 69.8059L157.1 69.0059Z"
    fill="#B10932"
  />
  <path
    d="M67.2 74.5061C41.9 69.0061 51.7 49.8061 48 35.8061L48.2 35.7061C57.5 46.8061 78.9 49.806 68.8 73.606L67.2 74.5061Z"
    fill="#B10932"
  />
  <path
    d="M131.7 74.7063C120.8 51.3063 141.9 47.4062 150.7 35.9062H150.9C147.8 50.1062 158.3 68.9062 133.3 75.4062L131.7 74.7063Z"
    fill="#B10932"
  />
  <path
    d="M94.1001 84.7061C69.5001 76.7061 81.2001 58.5062 78.8001 44.3062H79.0001C87.2001 56.2062 108.1 61.4061 95.7001 84.0061L94.1001 84.7061Z"
    fill="#B10932"
  />
  <path
    d="M122.9 34.7061C115.5 47.2061 95.0001 53.6061 108.8 75.5061L110.5 76.0061C134.5 66.5061 121.8 49.2061 123.2 34.7061H122.9ZM110.3 73.8061H110.1Z"
    fill="#B10932"
  />
  <path
    d="M248.8 68.7061C248.8 73.0061 249.6 77.3061 251.2 81.4061C253.8 89.0061 261.1 94.0062 269.2 93.8062C274.3 93.9062 279.2 92.1061 283.1 88.7061C287.1 85.3061 289.2 80.0062 289.2 72.3062C289.5 65.6062 287.4 59.1061 283.1 53.9061C275.9 45.6061 263.4 44.7061 255.1 51.9061C254.8 52.2061 254.5 52.4061 254.2 52.7061C250.6 56.5061 248.8 61.8061 248.8 68.7061ZM275.8 130.306C266.7 130.306 261 130.406 258.7 130.606C257.3 130.906 255.9 131.506 254.8 132.406C249.9 135.806 247.3 137.706 246.9 138.006C246 139.106 245.3 140.406 244.9 141.706C243.7 145.006 243 148.506 243 152.006C242.9 158.206 245.7 164.206 250.5 168.206C255.5 172.606 262.3 174.706 271.1 174.706C277.2 174.806 283.3 173.506 288.8 170.806C293.8 168.506 298 164.906 300.9 160.206C303.5 156.206 304.9 151.606 305 146.806C305 143.806 304.4 140.806 303.2 138.106C302.3 136.306 301.1 134.706 299.6 133.406C297.8 132.106 295.8 131.106 293.7 130.606C292.1 130.606 286.2 130.506 275.8 130.306ZM323.8 48.1061L324.5 49.9061C322.2 53.5061 320.6 56.0062 319.9 57.3062H302.7C304.1 60.5062 304.8 64.0061 304.9 67.5061C304.9 72.3061 303.6 76.9061 301.3 81.1061C298.8 85.7061 295.1 89.6062 290.8 92.4062C286.3 95.5062 281.3 97.6062 276 98.8062C271.5 99.6062 266.8 99.9061 262.2 99.7061C259.4 101.806 256.9 104.106 254.7 106.806C254 107.906 253.7 109.106 253.7 110.406C253.7 111.806 254.1 113.206 255 114.306C256 115.506 257.5 116.406 259.1 116.706C263.9 117.706 268.8 118.106 273.7 117.906L293.3 117.406C298.7 117.106 304 118.006 309 120.006C312.5 121.706 315.3 124.706 316.9 128.306C318.7 132.206 319.5 136.506 319.5 140.806C319.3 147.706 317.2 154.306 313.3 160.006C308.8 166.806 302.4 172.206 294.9 175.406C286.3 179.206 277 181.106 267.6 181.006C260.2 181.206 252.9 179.906 246.1 177.106C240.8 174.906 236.3 171.306 233 166.606C230.2 162.506 228.7 157.706 228.6 152.806C228.6 150.206 229 147.706 229.9 145.306C230.9 142.606 232.4 140.006 234.1 137.706C239.8 135.306 245.2 132.306 250.3 128.806C246.8 127.906 243.4 126.306 240.6 124.106C239.3 123.006 238.6 121.406 238.4 119.706C239 116.306 239.9 113.006 241.2 109.706C244.2 107.206 248.9 103.706 255.4 99.0061C250.9 97.9061 246.5 96.1061 242.6 93.7061C239.6 91.6061 237.1 88.7062 235.6 85.3062C233.9 81.7062 233.1 77.7061 233.1 73.7061C233 67.7061 234.7 61.9061 238 56.9061C241.2 52.0061 246.5 48.0061 254.1 44.9061C260.7 42.0061 267.8 40.4062 275 40.3062C279 40.3062 283.1 41.0061 286.9 42.4061C290.8 43.8061 294.4 45.9061 297.6 48.5061C309.1 48.5061 318 48.4061 324.1 48.2061"
    fill="#B10932"
  />
  <path
    d="M389.1 80.706C382.2 81.806 375.4 83.206 368.7 85.106C364.5 86.106 360.4 87.906 356.8 90.206C355.2 91.406 354 93.106 353.1 94.906C351.5 98.006 350.6 101.506 350.7 105.106C350.5 109.006 351.8 112.806 354.5 115.706C357.3 118.406 361.1 119.706 365 119.506C369.3 119.506 373.5 118.206 377.2 116.006C381.8 113.206 385.8 109.606 389.2 105.406V80.706H389.1ZM346.8 66.406L341.9 65.106C341.9 63.706 341.9 61.706 341.9 59.306C341.9 56.906 341.9 54.706 341.9 53.106C347.9 49.006 354.3 45.506 361 42.806C365.1 41.506 369.5 40.806 373.8 40.906C379.9 40.706 386 42.106 391.5 44.906C396.2 47.406 399.9 51.406 402.2 56.206C404 60.706 404.8 65.506 404.6 70.306L404.1 87.106V114.406C404 116.506 404.2 118.706 404.8 120.706C405.1 121.606 405.7 122.306 406.5 122.706C407.7 123.206 409.1 123.406 410.4 123.406L416.4 124.006V129.306C411.4 128.806 406.9 128.606 403.2 128.606C399.4 128.606 394.6 128.806 388.5 129.306L389 113.006C376.5 122.506 369 127.806 366.7 129.006C363.9 130.306 360.9 130.906 357.9 130.806C350.5 130.806 344.7 128.806 340.5 124.906C336.3 120.806 334 115.106 334.3 109.206C334.3 105.206 335 101.306 336.5 97.606C337.7 94.506 339.5 91.706 341.7 89.306C343.5 87.406 345.6 85.906 347.9 84.806C353.5 82.506 359.3 80.706 365.3 79.506C373.1 77.606 381.1 76.206 389.1 75.306C389.3 70.706 388.6 66.006 386.9 61.706C385.3 58.306 382.7 55.506 379.4 53.706C375.5 51.406 371.1 50.306 366.6 50.406C363.4 50.306 360.1 50.806 357.1 51.906C355.3 52.406 353.6 53.306 352.1 54.406L350.4 57.706C348.7 61.406 347.5 64.306 346.7 66.406"
    fill="#B10932"
  />
  <path
    d="M447.4 0.00627187C450.2 0.00627187 452.8 1.10627 454.7 3.00627C456.6 4.90627 457.7 7.60628 457.7 10.3063C457.7 13.0063 456.6 15.7063 454.7 17.5063C452.8 19.5063 450.2 20.6063 447.5 20.5063C444.7 20.6063 442.1 19.5063 440.1 17.5063C438.1 15.6063 437 13.0063 437.1 10.3063C437 7.50628 438.1 4.90627 440.1 3.00627C442 1.00627 444.7 -0.0937281 447.4 0.00627187ZM425 53.9063V48.6063C435.2 47.7063 445.2 45.0063 454.6 40.8063L456.6 42.3063C456.3 55.3063 456.1 65.3063 456.1 72.2063V88.9063C456.4 104.806 456.6 113.306 456.6 114.706C456.5 116.906 456.9 119.106 457.6 121.206C457.9 121.806 458.3 122.306 458.8 122.606C459.5 123.106 460.2 123.406 461 123.606C461.4 123.606 464.7 123.806 471.1 123.906V129.206C461.8 128.706 454.4 128.506 448.9 128.506C444 128.506 436 128.706 424.9 129.206V124.006H433.6C434.6 124.006 435.7 123.806 436.6 123.306C437.3 123.006 437.8 122.406 438.2 121.806C439.1 119.706 439.5 117.506 439.5 115.306C439.5 114.506 439.7 105.806 440 89.1063V73.0063C440 63.9063 439.7 58.5063 439.1 56.8063C438.7 55.9063 438 55.2063 437.2 54.8063C436.3 54.1063 432.2 53.9063 425 53.9063Z"
    fill="#B10932"
  />
  <path
    d="M478.3 129.206V123.906L487 123.806C488 123.806 489.1 123.606 490 123.106C490.7 122.706 491.2 122.206 491.6 121.606C492.5 119.506 492.9 117.306 492.9 115.106C492.9 114.306 493.1 105.506 493.4 88.806V77.906C493.4 73.006 493.2 67.706 492.9 62.106C493 59.906 492.7 57.806 492 55.706C491.5 55.006 490.8 54.406 490 54.206C486.1 53.706 482.2 53.606 478.3 53.806V48.506C490.5 46.806 499.5 44.606 505.1 42.006C505.9 41.506 506.7 41.206 507.6 41.106C508 41.106 508.3 41.306 508.6 41.606C508.9 42.006 509 42.506 509 43.006C509 43.406 509 43.906 509 44.506C508.9 46.706 508.7 51.406 508.6 58.506L525.6 43.906C530.2 42.206 535 41.206 539.9 41.106C544.8 41.106 549.6 42.106 554.1 44.106C558 45.706 561.5 48.406 564.1 51.706C566.5 55.106 568 59.106 568.6 63.306C569.2 71.006 569.4 78.606 569.3 86.306V102.506C569.3 110.406 569.5 115.906 569.8 118.706C569.9 120.106 570.4 121.406 571.2 122.506C572 123.306 573.1 123.806 574.2 123.806L584.1 124.106V129.406C578.2 128.906 573.3 128.706 569.3 128.706C565.9 128.706 560.3 128.906 552.5 129.406C553.1 114.306 553.5 104.706 553.5 100.706V85.206C553.7 78.906 553.4 72.506 552.4 66.306C551.4 62.206 548.8 58.706 545.3 56.406C541.3 53.806 536.7 52.406 531.9 52.506C527.5 52.506 523.1 53.606 519.2 55.806C515.8 57.606 513 60.206 511 63.406C509.4 66.306 508.6 71.006 508.6 77.706V88.706C508.9 104.606 509.1 113.206 509.1 114.506C509.1 116.806 509.4 119.006 510.2 121.206C510.4 121.806 510.8 122.306 511.3 122.606C512 123.106 512.8 123.406 513.6 123.606C514 123.606 517.4 123.806 523.8 123.906V129.206C516.3 128.706 509.6 128.506 503.5 128.506C498.3 128.506 489.9 128.706 478.3 129.206Z"
    fill="#B10932"
  />
  <path
    d="M359.6 169.106C358.4 169.506 357.2 169.906 356 170.206C354.5 170.506 352.9 170.706 351.3 170.706C349.2 170.706 347.2 170.306 345.4 169.406C343.7 168.606 342.3 167.306 341.4 165.706C340.4 164.006 339.9 162.106 340 160.106C339.9 157.006 341.2 154.006 343.6 152.006C344.5 151.206 345.5 150.606 346.7 150.106C348.5 149.406 350.5 149.106 352.5 149.206C353.6 149.206 354.8 149.306 355.9 149.606C357.1 149.806 358.4 150.206 359.9 150.606C359.8 151.106 359.7 151.606 359.6 152.006C359.5 152.506 359.4 153.406 359.3 154.906H358.4V153.306C358.4 153.006 358.4 152.806 358.4 152.706C358.4 152.506 358.3 152.306 358.2 152.106C357.9 151.706 357.4 151.406 357 151.206C356.2 150.906 355.4 150.606 354.5 150.506C353.7 150.406 353 150.306 352.2 150.306C350.5 150.206 348.9 150.606 347.4 151.506C346.1 152.306 345 153.506 344.3 154.906C342.8 158.106 342.9 161.706 344.5 164.806C345.2 166.306 346.4 167.506 347.8 168.306C349.2 169.106 350.9 169.506 352.6 169.506C353.4 169.506 354.3 169.406 355.1 169.306C355.8 169.206 356.5 168.906 357.2 168.606C357.2 168.006 357.2 167.406 357.2 166.806V165.206C357.2 164.706 357.2 164.206 357.1 163.706C357.1 163.506 356.8 163.406 356.4 163.406C355.5 163.306 354.7 163.206 353.8 163.206V162.306H358.3C359.2 162.306 360.1 162.306 361 162.306V163.006L359.9 163.706C359.8 164.606 359.7 165.606 359.7 166.606C359.3 167.306 359.4 168.206 359.6 169.106Z"
    fill="#B10932"
  />
  <path
    d="M362.3 170.206V169.406H363.7C363.9 169.406 364 169.406 364.2 169.406C364.3 169.406 364.4 169.306 364.5 169.206C364.6 168.906 364.7 168.506 364.7 168.206C364.7 168.106 364.7 166.706 364.7 164.106V158.006C364.7 156.406 364.7 154.706 364.7 153.006C364.7 152.306 364.7 151.706 364.5 151.106C364.5 151.006 364.4 150.906 364.3 150.906C363.6 150.806 363 150.806 362.3 150.906V150.106C363.8 149.906 365.3 149.606 366.7 149.006C366.8 149.006 366.9 149.006 367 149.006C367 149.006 367.1 149.006 367.2 149.006C367.2 149.106 367.2 149.106 367.2 149.206C367.2 149.306 367.2 149.406 367.2 149.506V150.006C367.2 151.706 367.2 153.206 367.1 154.406V164.206C367.1 166.706 367.1 168.106 367.1 168.306C367.1 168.706 367.2 169.006 367.3 169.306C367.3 169.406 367.4 169.506 367.5 169.506C367.6 169.606 367.7 169.606 367.8 169.706H369.4V170.506C368.1 170.506 366.9 170.406 365.9 170.406C364.9 170.406 363.7 170.406 362.1 170.506"
    fill="#B10932"
  />
  <path
    d="M373.8 162.606C373.8 163.806 374 165.106 374.4 166.206C374.7 167.306 375.3 168.206 376.1 168.906C376.8 169.506 377.7 169.806 378.6 169.806C379.7 169.806 380.7 169.306 381.4 168.506C382.2 167.306 382.7 165.906 382.5 164.406C382.5 163.006 382.3 161.706 381.8 160.406C381.5 159.506 380.9 158.606 380.1 158.006C379.4 157.606 378.6 157.306 377.8 157.306C376.7 157.306 375.6 157.706 374.9 158.606C374.1 159.706 373.7 161.106 373.8 162.606ZM371 163.706C371 161.706 371.8 159.806 373.2 158.406C374.6 157.006 376.5 156.306 378.5 156.306C382.1 156.106 385.2 158.906 385.4 162.506C385.4 162.706 385.4 162.906 385.4 163.106C385.4 164.406 385.1 165.806 384.4 166.906C383.8 168.106 382.8 169.006 381.6 169.706C380.4 170.406 379 170.706 377.6 170.706C376.6 170.706 375.7 170.506 374.8 170.106C374.1 169.806 373.4 169.306 372.9 168.706C372.4 168.206 372.1 167.606 371.8 166.906C371.3 166.006 371 164.806 371 163.706Z"
    fill="#B10932"
  />
  <path
    d="M390.8 160.906V166.406C390.7 166.706 390.7 167.006 390.8 167.306C390.9 167.506 391.1 167.706 391.3 167.806C391.7 168.106 392.2 168.406 392.7 168.606C393.3 168.806 393.8 168.906 394.4 168.906C395.7 169.006 396.9 168.406 397.7 167.306C398.5 166.106 398.9 164.706 398.9 163.306C398.9 162.306 398.7 161.406 398.3 160.506C398 159.806 397.5 159.206 396.8 158.806C396.1 158.406 395.4 158.206 394.6 158.206C393.7 158.206 392.8 158.506 392.1 159.006C391.4 159.506 390.9 160.206 390.6 161.006M388.1 170.306C388.1 169.106 388.2 168.306 388.3 168.006C388.3 165.806 388.3 164.706 388.3 164.306V157.906C388.3 156.306 388.3 154.606 388.3 152.906C388.3 152.206 388.3 151.606 388.1 151.006C388 150.906 388 150.806 387.9 150.806C387.2 150.706 386.6 150.706 385.9 150.806V150.006C387.4 149.906 389 149.506 390.4 149.006C390.5 149.006 390.6 149.006 390.7 149.006C390.7 149.006 390.8 149.006 390.9 149.006C390.9 149.106 390.9 149.106 390.9 149.206C390.9 149.306 390.9 149.406 390.9 149.506V150.006C390.9 151.706 390.9 153.206 390.9 154.406V156.606V159.506L392.9 157.506C393.3 157.206 393.7 157.006 394.2 156.806C394.8 156.606 395.5 156.506 396.1 156.506C397.1 156.506 398.1 156.706 399 157.306C399.8 157.806 400.5 158.606 400.9 159.506C401.4 160.406 401.6 161.506 401.6 162.506C401.6 163.306 401.5 164.106 401.2 164.906C401 165.606 400.7 166.306 400.2 166.906C400 167.306 399.7 167.606 399.4 167.806L397.2 169.306C396.6 169.806 395.9 170.206 395.2 170.506C394.6 170.706 394 170.806 393.3 170.806C392.7 170.806 392.1 170.706 391.5 170.506C390.9 170.306 390.3 170.006 389.7 169.606L388.6 170.706L388.1 170.306Z"
    fill="#B10932"
  />
  <path
    d="M412.5 162.606C411.4 162.806 410.3 163.006 409.3 163.306C408.6 163.506 408 163.706 407.4 164.106C407.2 164.306 407 164.606 406.8 164.806C406.5 165.306 406.4 165.906 406.4 166.406C406.4 167.006 406.6 167.606 407 168.106C407.4 168.506 408 168.706 408.6 168.706C409.3 168.706 409.9 168.506 410.5 168.106C411.2 167.706 411.9 167.106 412.4 166.406L412.5 162.606ZM405.8 160.406L405 160.206V158.306C405.9 157.606 407 157.106 408 156.706C408.6 156.506 409.3 156.406 410 156.406C411 156.406 411.9 156.606 412.8 157.006C413.5 157.406 414.1 158.006 414.5 158.806C414.8 159.506 414.9 160.206 414.9 161.006V163.706V168.106C414.9 168.406 414.9 168.806 414.9 169.106C415 169.206 415.1 169.306 415.2 169.406C415.4 169.506 415.6 169.506 415.8 169.506H416.7V170.406C415.9 170.406 415.2 170.306 414.5 170.306C413.8 170.306 413.1 170.306 412.2 170.406V167.706C410.2 169.206 409.1 170.006 408.7 170.206C408.3 170.406 407.8 170.506 407.3 170.506C406.3 170.606 405.3 170.206 404.6 169.506C403.9 168.906 403.6 167.906 403.6 167.006C403.6 166.406 403.7 165.806 403.9 165.206C404.1 164.706 404.4 164.306 404.7 163.906C405 163.606 405.3 163.406 405.7 163.206C406.6 162.806 407.5 162.506 408.4 162.306C409.6 162.006 410.9 161.806 412.2 161.606C412.2 160.906 412.1 160.106 411.9 159.406C411.6 158.906 411.2 158.406 410.7 158.106C410.1 157.806 409.4 157.606 408.7 157.606C408.2 157.606 407.7 157.706 407.2 157.806C406.9 157.906 406.6 158.006 406.4 158.206L406.1 158.706C405.8 159.306 405.6 159.706 405.5 160.106"
    fill="#B10932"
  />
  <path
    d="M418.1 170.206V169.406H419.5C419.7 169.406 419.8 169.406 420 169.406C420.1 169.406 420.2 169.306 420.3 169.206C420.4 168.906 420.5 168.506 420.5 168.206C420.5 168.106 420.5 166.706 420.5 164.106V158.006C420.5 156.406 420.5 154.706 420.5 153.006C420.5 152.306 420.5 151.706 420.3 151.106C420.2 151.006 420.2 150.906 420.1 150.906C419.4 150.806 418.8 150.806 418.1 150.906V150.106C419.6 150.006 421.2 149.606 422.6 149.106C422.7 149.106 422.8 149.106 422.9 149.106C422.9 149.106 423 149.106 423.1 149.106C423.1 149.206 423.1 149.206 423.1 149.306C423.1 149.406 423.1 149.506 423.1 149.606V150.106C423.1 151.806 423.1 153.306 423.1 154.506V164.306C423.1 166.806 423.1 168.206 423.1 168.406C423.1 168.806 423.1 169.106 423.3 169.406C423.3 169.506 423.4 169.606 423.5 169.606C423.6 169.706 423.7 169.706 423.8 169.806H425.4V170.506C424.1 170.506 422.9 170.406 421.9 170.406C420.9 170.106 419.7 170.106 418.1 170.206Z"
    fill="#B10932"
  />
  <path
    d="M439.5 162.306H446.8L443.2 153.606L439.5 162.306ZM432.8 170.206V169.306C433.3 169.306 433.7 169.306 434.2 169.306C434.4 169.306 434.6 169.206 434.7 169.006C435 168.606 435.2 168.206 435.4 167.806C435.6 167.506 436.2 166.106 437.3 163.706L440.9 155.406C441.3 154.506 442.1 152.506 443.5 149.406H444.4L450.6 163.906C451.6 166.306 452.3 167.706 452.6 168.306C452.7 168.606 452.9 168.806 453.2 169.006C453.7 169.106 454.2 169.206 454.7 169.206V170.106H451.5L446.8 170.206V169.206C447.5 169.206 448.1 169.206 448.8 169.206C449 169.206 449.2 169.106 449.3 169.006C449.3 168.906 449.3 168.806 449.3 168.706C449.3 168.406 449.2 168.106 449.1 167.906L447.3 163.506H439L437.5 167.206C437.3 167.706 437.1 168.206 437.1 168.706C437.1 168.806 437.1 168.906 437.2 169.006C437.3 169.106 437.5 169.206 437.7 169.306C438.3 169.406 438.9 169.406 439.6 169.406V170.106C438 170.106 436.7 170.006 435.9 170.006C435.1 170.006 433.9 170.006 432.8 170.106"
    fill="#B10932"
  />
  <path
    d="M459.8 170.206C460.8 170.206 462 170.206 463.3 170.306V169.506H461.7C461.6 169.506 461.5 169.406 461.4 169.306C461.3 169.206 461.3 169.206 461.2 169.106C461.1 168.806 461 168.406 461 168.106C461 167.906 461 166.606 461 164.006V154.106C461 152.906 461 151.406 461.1 149.706V149.206C461.1 149.106 461.1 149.006 461.1 148.906C461.1 148.806 461.1 148.806 461.1 148.706C461 148.706 461 148.706 460.9 148.706C460.8 148.706 460.7 148.706 460.6 148.706C459.2 149.306 457.6 149.606 456.1 149.706V150.406C456.8 150.306 457.4 150.306 458.1 150.406C458.2 150.406 458.3 150.506 458.3 150.606C458.4 151.206 458.5 151.906 458.5 152.506C458.5 154.206 458.5 155.906 458.5 157.506V163.706C458.5 166.406 458.5 167.706 458.5 167.906C458.5 168.306 458.5 168.606 458.3 168.906C458.2 169.006 458.1 169.106 458 169.106C457.8 169.106 457.7 169.106 457.5 169.106H456.1V170.006C457.6 170.006 458.9 169.906 459.8 169.906"
    fill="#B10932"
  />
  <path
    d="M464.7 170.206V169.406H466.1C466.3 169.406 466.4 169.406 466.6 169.406C466.7 169.306 466.8 169.306 466.9 169.206C467.1 168.806 467.2 168.406 467.1 168.006C467.1 167.906 467.1 166.506 467.1 163.906V157.906C467.1 156.306 467.1 154.606 467.1 152.906C467.1 152.206 467 151.606 466.9 151.006C466.8 150.906 466.8 150.806 466.7 150.806C466 150.706 465.3 150.706 464.7 150.806V150.006C466.3 149.906 467.8 149.506 469.3 148.906C469.4 148.906 469.5 148.906 469.6 148.906C469.6 148.906 469.7 148.906 469.8 148.906C469.8 149.006 469.8 149.006 469.8 149.106C469.8 149.206 469.8 149.306 469.8 149.406V149.906C469.8 151.606 469.8 153.106 469.8 154.306V164.106C469.8 166.606 469.8 168.006 469.8 168.206C469.8 168.606 469.8 168.906 470 169.206C470 169.306 470.1 169.406 470.2 169.406C470.3 169.506 470.4 169.506 470.6 169.606H472.2V170.406C470.9 170.406 469.7 170.306 468.7 170.306C467.7 170.306 466.5 170.306 464.9 170.406"
    fill="#B10932"
  />
  <path
    d="M476.7 149.906C477.1 149.906 477.6 150.106 477.9 150.406C478.6 151.006 478.7 152.106 478 152.706C477.7 153.006 477.3 153.206 476.8 153.206C476.4 153.206 476 153.006 475.7 152.706C475.1 152.106 475.1 151.006 475.7 150.406C476 150.106 476.4 149.906 476.8 149.906M473.3 158.406V157.606C474.9 157.406 476.5 157.006 477.9 156.406L478.2 156.606C478.2 158.806 478.2 160.206 478.2 161.306V163.906C478.2 166.406 478.2 167.806 478.2 168.006C478.2 168.406 478.2 168.706 478.4 169.006L478.6 169.206C478.7 169.306 478.8 169.306 478.9 169.406H480.5V170.206C479 170.206 477.8 170.106 477 170.106C476.2 170.106 474.9 170.106 473.2 170.206V169.406H474.6C474.8 169.406 474.9 169.406 475.1 169.406C475.2 169.306 475.3 169.306 475.4 169.206C475.5 168.906 475.6 168.506 475.6 168.206C475.6 168.206 475.6 166.706 475.6 164.106V161.406C475.6 160.506 475.6 159.706 475.4 158.806C475.3 158.706 475.2 158.606 475.1 158.506C474.6 158.406 473.9 158.406 473.3 158.406Z"
    fill="#B10932"
  />
  <path
    d="M491.1 162.606C490 162.806 488.9 163.006 487.9 163.306C487.2 163.506 486.6 163.706 486 164.106C485.8 164.306 485.6 164.606 485.4 164.806C485.1 165.306 485 165.906 485 166.406C485 167.606 486 168.606 487.2 168.606C487.9 168.606 488.5 168.406 489.1 168.006C489.8 167.606 490.5 167.006 491 166.306L491.1 162.606ZM484.4 160.406L483.6 160.206C483.6 160.006 483.6 159.706 483.6 159.306C483.6 158.906 483.6 158.606 483.6 158.306C484.5 157.606 485.6 157.106 486.6 156.706C487.3 156.506 487.9 156.406 488.6 156.406C489.6 156.406 490.5 156.606 491.4 157.006C492.1 157.406 492.7 158.006 493.1 158.806C493.4 159.506 493.5 160.206 493.5 161.006V163.706V168.106C493.5 168.406 493.5 168.806 493.6 169.106C493.7 169.206 493.7 169.306 493.9 169.406C494.1 169.506 494.3 169.506 494.5 169.506H495.4V170.306C494.6 170.306 493.9 170.206 493.3 170.206C492.7 170.206 491.9 170.206 491 170.306V167.706C489.8 168.606 488.6 169.506 487.4 170.206C487 170.406 486.5 170.506 486 170.506C485 170.606 484 170.206 483.2 169.506C482.5 168.806 482.2 167.906 482.2 167.006C482.2 166.406 482.3 165.806 482.5 165.206C482.7 164.706 483 164.306 483.3 163.906C483.6 163.606 483.9 163.406 484.3 163.206C485.2 162.806 486.1 162.506 487.1 162.306C488.3 162.006 489.6 161.806 490.8 161.606C490.8 160.906 490.7 160.106 490.5 159.406C490.2 158.906 489.8 158.406 489.3 158.106C488.7 157.806 488 157.606 487.3 157.606C486.8 157.606 486.3 157.706 485.8 157.806C485.5 157.906 485.3 158.006 485 158.206L484.7 158.706C484.4 159.306 484.2 159.706 484.1 160.106"
    fill="#B10932"
  />
  <path
    d="M500.3 170.206C501.3 170.206 502.3 170.206 503.5 170.306V169.506H501.9C501.8 169.506 501.7 169.406 501.6 169.306C501.5 169.206 501.4 169.206 501.4 169.106C501.3 168.806 501.2 168.406 501.2 168.006C501.2 167.806 501.2 166.406 501.2 163.906V162.106C501.2 161.406 501.3 160.606 501.6 159.906C501.9 159.406 502.3 159.006 502.9 158.706C503.5 158.406 504.2 158.206 504.9 158.206C505.7 158.206 506.4 158.406 507.1 158.806C507.7 159.206 508 159.706 508.2 160.406C508.3 161.406 508.4 162.406 508.4 163.406V165.806C508.4 166.406 508.4 168.006 508.2 170.306L510.8 170.106C511.4 170.106 512.2 170.106 513.1 170.206V169.406H511.5C511.3 169.406 511.2 169.306 511 169.206C510.9 169.006 510.8 168.806 510.8 168.606C510.8 168.206 510.8 167.306 510.8 166.006V163.306C510.8 161.306 510.8 160.106 510.8 159.606C510.7 158.906 510.5 158.306 510.1 157.806C509.7 157.306 509.2 156.806 508.5 156.606C507.8 156.306 507.1 156.106 506.3 156.106C505.6 156.106 504.8 156.306 504.1 156.506L501.4 158.806C501.4 157.706 501.4 157.006 501.4 156.606V156.406C501.4 156.306 501.4 156.306 501.4 156.206C501.3 156.206 501.3 156.206 501.2 156.206C501.1 156.206 500.9 156.306 500.8 156.306C499.4 156.906 497.9 157.206 496.4 157.306V158.106C497 158.006 497.7 158.006 498.3 158.106C498.4 158.106 498.6 158.206 498.6 158.306C498.7 158.606 498.7 159.006 498.7 159.306C498.7 160.206 498.7 161.006 498.7 161.806V163.506C498.7 166.206 498.7 167.606 498.7 167.706C498.7 168.106 498.6 168.406 498.5 168.706C498.4 168.806 498.3 168.906 498.2 168.906C498 168.906 497.9 168.906 497.7 168.906H496.3V169.806C498.2 169.806 499.5 169.706 500.3 169.706"
    fill="#B10932"
  />
  <path
    d="M525.7 168.606L525.1 169.606C523.8 170.306 522.4 170.706 520.9 170.606C519.1 170.706 517.4 170.006 516.1 168.806C514.9 167.406 514.2 165.606 514.3 163.806C514.3 162.806 514.4 161.806 514.8 160.906C515 160.206 515.5 159.506 516 159.006C516.6 158.506 517.2 158.106 517.8 157.806C518.4 157.406 519 157.106 519.7 156.806C520.4 156.506 521.2 156.306 522 156.406C522.8 156.406 523.6 156.506 524.4 156.706C524.9 156.806 525.3 157.006 525.7 157.306C525.6 158.006 525.5 158.606 525.4 159.006C525.4 159.406 525.3 160.106 525.2 161.106H524.5C524.5 160.506 524.4 159.906 524.3 159.406C524.2 159.206 524.2 159.106 524 159.006C523.6 158.706 523.1 158.506 522.7 158.306C522.1 158.106 521.5 158.006 520.9 158.006C520.1 158.006 519.4 158.106 518.7 158.506C518.1 158.906 517.6 159.406 517.3 160.106C517 160.906 516.8 161.906 516.8 162.806C516.8 164.006 517 165.206 517.5 166.306C517.9 167.306 518.5 168.106 519.4 168.606C520.2 169.106 521.1 169.306 522 169.306C522.5 169.306 523 169.206 523.4 169.106C524 168.906 524.6 168.706 525.2 168.406L525.7 168.606Z"
    fill="#B10932"
  />
  <path
    d="M529.8 162.106H531.3H534.3C535.6 162.106 536.4 162.106 536.9 162.106C536.9 161.906 536.9 161.706 536.9 161.606C537 160.406 536.7 159.206 536 158.206C535.4 157.506 534.4 157.106 533.5 157.106C532.5 157.106 531.5 157.506 530.8 158.306C530 159.406 529.7 160.706 529.8 162.006M539.1 168.106L538.6 169.106C538.1 169.406 537.6 169.706 537.1 170.006C536.6 170.206 536.1 170.406 535.6 170.506C535 170.606 534.4 170.706 533.7 170.706C532.5 170.706 531.3 170.406 530.3 169.806C529.3 169.306 528.4 168.406 527.9 167.406C527.3 166.306 527 165.006 527 163.706C527 162.706 527.1 161.706 527.5 160.706C527.7 160.006 528.1 159.306 528.5 158.706C528.9 158.306 529.3 157.906 529.8 157.606C530.4 157.206 530.9 156.906 531.5 156.706C532.3 156.406 533.1 156.206 534 156.206C535 156.206 535.9 156.506 536.8 157.106C537.6 157.506 538.3 158.306 538.7 159.106C539.1 160.006 539.3 161.006 539.3 162.006C539.3 162.306 539.3 162.706 539.3 163.006C538.7 163.106 538.1 163.206 537.4 163.306C536.4 163.306 535.2 163.306 534.3 163.306H529.6C529.6 164.506 529.8 165.606 530.3 166.606C530.7 167.406 531.4 168.106 532.2 168.506C533 168.906 533.8 169.106 534.7 169.106C535.3 169.106 535.9 169.006 536.5 168.806C537.3 168.506 538 168.206 538.7 167.806L539.1 168.106Z"
    fill="#B10932"
  />
  <path
    d="M551 158.906V164.006C551 166.606 551 168.006 551 168.106C551 168.506 550.9 168.806 550.8 169.106C550.7 169.206 550.6 169.306 550.5 169.306C550.3 169.306 550.2 169.306 550 169.306H548.6V170.206H552.2L556.3 170.306V169.506C555.5 169.506 554.7 169.406 553.9 169.206C553.8 169.206 553.7 169.106 553.6 169.006C553.5 168.906 553.5 168.806 553.5 168.706C553.5 168.306 553.5 167.906 553.5 167.606C553.5 165.906 553.5 164.706 553.5 164.106V158.806H555.3H557.2L557.5 157.306H557.3C556.6 157.306 555.8 157.306 555.1 157.306H553.6V154.306C553.6 153.506 553.6 152.706 553.8 151.906C553.9 151.506 554.2 151.206 554.5 151.006C554.9 150.806 555.3 150.606 555.8 150.706C556.1 150.706 556.5 150.806 556.8 150.906C557.1 151.006 557.4 151.206 557.7 151.406H558V149.006C557.6 148.906 557.2 148.806 556.8 148.806C556.3 148.806 555.8 148.906 555.4 149.106C554.9 149.406 554.4 149.806 554 150.206C553.2 150.906 552.5 151.606 551.8 152.406C551.5 152.806 551.3 153.306 551.1 153.806C550.9 154.706 550.8 155.606 550.9 156.506V157.406C550.2 157.806 549.6 158.106 548.9 158.406V159.006L551 158.906Z"
    fill="#B10932"
  />
  <path
    d="M561.4 162.606C561.4 163.806 561.6 165.106 562 166.206C562.3 167.306 562.9 168.206 563.7 168.906C564.4 169.506 565.3 169.706 566.2 169.806C567.3 169.806 568.3 169.306 569 168.506C569.8 167.306 570.3 165.906 570.1 164.406C570.1 163.006 569.9 161.706 569.4 160.406C569.1 159.506 568.5 158.606 567.7 158.006C567 157.606 566.2 157.306 565.4 157.306C564.3 157.306 563.2 157.706 562.5 158.606C561.7 159.706 561.3 161.106 561.4 162.606ZM558.7 163.706C558.7 161.706 559.5 159.806 560.9 158.406C562.3 157.006 564.2 156.306 566.2 156.306C569.8 156.106 572.9 158.906 573.1 162.506C573.1 162.706 573.1 162.906 573.1 163.106C573 164.406 572.6 165.706 571.9 166.906C571.3 168.106 570.3 169.006 569.1 169.706C567.9 170.406 566.5 170.706 565.1 170.706C564.1 170.706 563.2 170.506 562.3 170.106C561.6 169.806 560.9 169.306 560.4 168.706C559.9 168.206 559.6 167.606 559.3 166.906C558.9 165.906 558.7 164.806 558.7 163.706Z"
    fill="#B10932"
  />
  <path
    d="M574.5 170.206V169.406H576.3C576.4 169.406 576.5 169.306 576.6 169.306C576.7 169.206 576.8 169.106 576.8 169.006C576.9 168.706 577 168.306 577 168.006C577 165.406 577 164.106 577 163.906V162.106C577 161.306 577 160.506 577 159.606C577 159.306 577 158.906 576.9 158.606C576.8 158.506 576.7 158.406 576.6 158.406C576 158.306 575.3 158.306 574.7 158.406V157.606C576.2 157.506 577.6 157.106 579 156.606L579.4 156.506C579.4 156.506 579.5 156.506 579.6 156.506C579.6 156.606 579.6 156.606 579.6 156.706C579.6 156.806 579.6 156.906 579.6 156.906C579.6 157.506 579.6 158.406 579.6 159.606C580 159.106 580.4 158.606 580.8 158.106C581.2 157.606 581.4 157.306 581.6 157.106C581.9 156.906 582.2 156.706 582.6 156.506C583 156.306 583.4 156.306 583.8 156.306C584.2 156.306 584.6 156.406 585 156.606V156.806C584.8 158.106 584.8 159.206 584.7 160.206H584C583.8 159.806 583.6 159.406 583.2 159.206C582.9 159.006 582.5 158.906 582.1 158.906C581.4 158.906 580.7 159.206 580.2 159.806C579.6 160.606 579.3 161.606 579.4 162.606V164.106C579.4 164.706 579.4 165.906 579.4 167.606C579.4 168.006 579.4 168.406 579.4 168.806C579.4 168.906 579.5 169.006 579.6 169.106C579.7 169.206 579.8 169.306 579.9 169.306C580.7 169.406 581.5 169.506 582.3 169.606V170.406C580.6 170.406 579.2 170.306 577.9 170.306C576.6 170.306 575.5 170.306 574.3 170.406"
    fill="#B10932"
  />
  <path
    d="M348.1 207.706V208.606H344.1H339.7V207.706C340.4 207.706 341.1 207.706 341.8 207.506C342 207.406 342.2 207.306 342.3 207.206C342.5 206.806 342.5 206.306 342.5 205.806C342.5 205.606 342.5 204.206 342.5 201.706V195.006C342.5 193.706 342.5 192.406 342.5 191.206C342.5 190.606 342.5 190.106 342.3 189.606C342.2 189.406 342 189.306 341.8 189.206C341.1 189.106 340.4 189.006 339.7 189.006V188.106C341.5 188.106 342.9 188.206 343.9 188.206C344.9 188.206 346.2 188.206 348.1 188.106V189.006C347.4 189.006 346.7 189.006 346 189.206C345.8 189.306 345.6 189.406 345.5 189.506C345.3 189.906 345.3 190.406 345.3 190.906C345.3 191.106 345.3 192.406 345.3 195.006V201.706C345.3 203.006 345.3 204.306 345.3 205.506C345.3 206.006 345.3 206.606 345.5 207.106C345.6 207.306 345.8 207.406 346 207.506C346.8 207.706 347.5 207.806 348.1 207.706Z"
    fill="#B10932"
  />
  <path
    d="M349.5 208.706V207.906H350.9C351.1 207.906 351.2 207.906 351.4 207.906C351.5 207.906 351.6 207.806 351.6 207.706C351.7 207.406 351.8 207.006 351.8 206.706C351.8 206.706 351.8 205.206 351.8 202.506V200.806C351.8 200.006 351.8 199.206 351.8 198.306C351.8 197.906 351.8 197.606 351.6 197.306C351.5 197.206 351.4 197.106 351.3 197.106C350.7 197.006 350 197.006 349.4 197.106V196.306C350.9 196.106 352.3 195.806 353.7 195.306C353.8 195.206 354 195.206 354.1 195.106C354.1 195.106 354.2 195.106 354.3 195.106C354.3 195.206 354.3 195.206 354.3 195.306C354.3 195.406 354.3 195.506 354.3 195.506C354.3 196.006 354.3 196.706 354.3 197.706L356.2 196.006C356.3 195.906 356.5 195.706 356.6 195.606C356.9 195.406 357.2 195.306 357.5 195.306C357.9 195.206 358.4 195.106 358.8 195.106C359.7 195.106 360.5 195.306 361.2 195.806C361.9 196.306 362.5 197.006 362.9 197.806L364.5 196.306C364.7 196.106 365 195.906 365.2 195.706C365.5 195.506 365.9 195.406 366.3 195.306C366.7 195.206 367.2 195.106 367.7 195.106C368.7 195.106 369.7 195.406 370.5 196.006C371.2 196.506 371.7 197.206 371.9 198.006C372.1 199.006 372.1 200.006 372.1 201.006V204.506C372.1 205.706 372.1 206.406 372.1 206.706C372.1 207.106 372.2 207.406 372.3 207.806C372.4 207.906 372.4 208.006 372.5 208.006C372.6 208.106 372.7 208.106 372.8 208.206H374.4V209.006H371.9H369.4V205.006V203.406V202.206C369.4 201.106 369.4 200.006 369.1 198.906C369 198.306 368.6 197.806 368.1 197.506C367.6 197.106 366.9 196.906 366.3 197.006C365.5 197.006 364.8 197.206 364.1 197.706C363.7 198.006 363.4 198.506 363.2 199.006C363 199.906 362.9 200.906 363 201.806V204.806C363 206.006 363 206.706 363 206.906C363 207.306 363.1 207.606 363.2 208.006L363.4 208.206C363.5 208.306 363.6 208.306 363.8 208.406H365.4V209.206C364 209.206 362.8 209.206 362 209.206H358.2V208.406H359.6C359.8 208.406 359.9 208.406 360.1 208.406C360.2 208.306 360.3 208.306 360.4 208.206C360.5 207.906 360.6 207.506 360.6 207.206C360.6 207.206 360.6 205.706 360.6 203.106V202.006C360.6 201.106 360.5 200.206 360.3 199.306C360.1 198.706 359.8 198.306 359.3 197.906C358.8 197.506 358.2 197.406 357.6 197.406C357 197.406 356.5 197.506 356 197.806C355.5 198.006 355.1 198.306 354.8 198.706C354.6 199.006 354.4 199.406 354.3 199.906C354.2 200.706 354.1 201.506 354.1 202.306V203.206C354.1 205.706 354.1 207.106 354.1 207.306C354.1 207.706 354.2 208.006 354.3 208.406L354.5 208.606C354.6 208.706 354.7 208.706 354.9 208.806H356.5V209.606C355.1 209.606 354 209.606 353.1 209.606C352.2 209.606 350.9 209.606 349.3 209.606"
    fill="#B10932"
  />
  <path
    d="M380.5 205.706C381 206.206 381.6 206.606 382.2 206.906C382.9 207.206 383.6 207.406 384.4 207.306C385.2 207.306 386.1 207.106 386.8 206.606C387.6 206.106 388.2 205.406 388.5 204.506C388.9 203.506 389.1 202.506 389.1 201.506C389.1 200.506 388.9 199.606 388.5 198.706C388.1 198.006 387.5 197.306 386.8 196.906C386.1 196.506 385.4 196.306 384.6 196.306C384 196.306 383.5 196.406 383 196.606C382.5 196.806 382 197.106 381.5 197.506C381.1 197.806 380.8 198.206 380.6 198.706C380.6 199.006 380.6 199.406 380.6 199.706L380.5 205.706ZM375.5 196.606V195.806H376.6C377.2 195.706 377.9 195.606 378.5 195.406C379 195.306 379.6 195.106 380 194.806C380.1 194.806 380.2 194.806 380.3 194.806C380.4 194.806 380.4 194.806 380.5 194.806C380.5 194.906 380.5 195.006 380.5 195.006C380.5 195.106 380.5 195.206 380.5 195.306C380.5 195.606 380.5 195.806 380.5 196.106V197.706C381.4 196.706 382.5 195.906 383.6 195.106C384.4 194.806 385.2 194.706 386 194.706C387.1 194.706 388.2 195.006 389.2 195.506C390.1 196.006 390.7 196.806 391.1 197.706C391.5 198.606 391.7 199.606 391.7 200.506C391.7 201.106 391.6 201.706 391.5 202.206C391.4 202.706 391.2 203.206 391 203.706C390.8 204.206 390.6 204.606 390.3 205.006C390.1 205.306 389.8 205.606 389.5 205.906C389.5 206.006 389 206.306 388.5 206.806C387.9 207.206 387.3 207.606 386.7 208.006C386.3 208.206 385.8 208.406 385.3 208.606C384.7 208.806 384.1 208.906 383.6 208.906C383.1 208.906 382.7 208.906 382.2 208.706C381.7 208.606 381.1 208.406 380.6 208.106V210.306C380.6 212.706 380.6 214.106 380.6 214.306C380.6 214.706 380.6 215.006 380.8 215.306C380.8 215.406 380.9 215.506 381 215.606C381.1 215.706 381.2 215.706 381.4 215.706C382 215.706 382.5 215.706 383.1 215.706V216.506C381.9 216.506 380.3 216.506 378.3 216.506C377.4 216.506 376.6 216.506 375.7 216.506V215.806H377.1C377.3 215.806 377.4 215.806 377.6 215.806C377.7 215.706 377.8 215.706 377.9 215.606C378 215.306 378.1 214.906 378.1 214.606C378.1 214.606 378.1 213.106 378.1 210.406V204.906C378.1 203.206 378.1 201.506 378.1 199.706C378.1 198.706 378.1 197.806 378.1 196.806C378.1 196.706 378 196.506 377.9 196.506C377.8 196.406 377.7 196.406 377.5 196.306L375.5 196.606Z"
    fill="#B10932"
  />
  <path
    d="M393.5 208.706V207.906H395.3C395.4 207.906 395.6 207.806 395.7 207.806C395.8 207.706 395.8 207.606 395.9 207.506C396 207.206 396.1 206.806 396.1 206.506C396.1 203.906 396.1 202.506 396.1 202.406V200.706C396.1 199.906 396.1 199.106 396.1 198.206C396.1 197.906 396.1 197.506 396 197.206C395.9 197.106 395.8 197.006 395.7 197.006C395.1 196.906 394.4 196.906 393.8 197.006V196.206C395.3 196.106 396.8 195.706 398.2 195.206C398.3 195.106 398.5 195.106 398.6 195.006C398.6 195.006 398.7 195.006 398.8 195.006C398.8 195.106 398.8 195.106 398.8 195.206V195.406C398.8 196.006 398.8 196.906 398.8 198.106L400 196.606C400.2 196.306 400.5 195.906 400.8 195.606C401.1 195.306 401.4 195.106 401.8 195.006C402.2 194.906 402.6 194.806 403 194.806C403.4 194.806 403.8 194.906 404.2 195.106V195.306C404 196.406 404 197.606 403.9 198.706H403.2C403 198.306 402.8 197.906 402.4 197.606C402.1 197.406 401.7 197.306 401.3 197.306C400.6 197.306 399.9 197.606 399.4 198.206C398.8 199.006 398.6 200.006 398.6 201.006V202.506C398.6 203.106 398.6 204.306 398.6 206.006C398.6 206.406 398.6 206.806 398.6 207.106C398.6 207.206 398.7 207.306 398.8 207.406C398.9 207.506 399 207.606 399.1 207.606C399.9 207.706 400.7 207.806 401.4 207.906V208.706C399.7 208.706 398.3 208.706 397 208.706C395.7 208.706 394.6 208.706 393.4 208.706"
    fill="#B10932"
  />
  <path
    d="M407.7 200.906C407.7 202.106 407.9 203.406 408.3 204.506C408.6 205.606 409.2 206.506 410 207.206C410.7 207.806 411.6 208.006 412.5 208.106C413.6 208.106 414.6 207.606 415.3 206.806C416.2 205.606 416.6 204.206 416.4 202.706C416.4 201.306 416.2 199.906 415.7 198.606C415.4 197.706 414.8 196.806 414 196.206C413.3 195.806 412.5 195.506 411.7 195.506C410.6 195.506 409.5 195.906 408.8 196.806C408 198.006 407.6 199.406 407.7 200.906ZM404.9 201.906C404.7 198.006 407.8 194.706 411.6 194.606C411.8 194.606 412 194.606 412.2 194.606C414 194.506 415.8 195.206 417.2 196.506C418.5 197.806 419.2 199.606 419.1 201.406C419.1 202.806 418.8 204.106 418.1 205.306C417.4 206.506 416.5 207.406 415.3 208.006C414.1 208.706 412.7 209.006 411.3 209.006C410.3 209.006 409.4 208.806 408.5 208.506C407.8 208.206 407.1 207.706 406.6 207.106C406.1 206.606 405.8 206.006 405.5 205.406C405.2 204.206 404.9 203.106 404.9 201.906Z"
    fill="#B10932"
  />
  <path
    d="M427.5 208.806C427.1 207.806 426.9 207.106 426.7 206.806L425.6 204.006L422.6 197.106C422.5 196.806 422.3 196.506 422.1 196.206C422 196.106 421.8 196.006 421.6 195.906C421.2 195.906 420.9 195.906 420.5 195.906V195.106C422.1 195.106 423.3 195.106 424 195.106C424.7 195.106 425.9 195.106 427.3 195.106V195.906C426.7 195.906 426.1 195.906 425.5 196.106C425.3 196.206 425.2 196.306 425.2 196.506C425.3 197.206 425.5 197.806 425.8 198.406L427.6 202.806L428 203.806C428.5 205.006 428.8 205.706 429 206.106L430.4 202.806C430.5 202.606 430.9 201.506 431.7 199.506C432.1 198.606 432.4 197.806 432.6 196.906C432.6 196.706 432.6 196.606 432.6 196.406C432.6 196.306 432.5 196.106 432.4 196.106C431.8 195.906 431.2 195.806 430.5 195.906V195.106H433.3H436.1V195.906C435.7 195.906 435.3 196.006 434.9 196.106C434.6 196.306 434.4 196.506 434.3 196.806C434.2 197.006 433.6 198.106 432.7 199.906L431.3 203.006C431.1 203.506 430.2 205.506 428.8 208.906L427.5 208.806Z"
    fill="#B10932"
  />
  <path
    d="M440.3 200.506C440.6 200.506 441.1 200.506 441.8 200.506H444.8C446.1 200.506 447 200.506 447.4 200.506V200.006C447.5 198.806 447.2 197.606 446.5 196.606C445.9 195.906 444.9 195.506 444 195.506C443 195.506 442 195.906 441.3 196.706C440.5 197.806 440.2 199.106 440.3 200.406M449.6 206.406L449.1 207.406C448.6 207.706 448.1 208.006 447.6 208.206C447.1 208.406 446.6 208.606 446.1 208.706C445.5 208.806 444.9 208.906 444.2 208.906C443 208.906 441.8 208.606 440.8 208.106C439.8 207.606 438.9 206.806 438.4 205.706C437.8 204.606 437.5 203.306 437.5 202.006C437.5 201.006 437.6 200.006 438 199.006C438.2 198.306 438.6 197.606 439 197.006C439.4 196.606 439.8 196.206 440.3 196.006C440.9 195.606 441.4 195.306 442.1 195.106C442.9 194.806 443.7 194.606 444.6 194.606C445.6 194.606 446.6 194.806 447.5 195.306C448.3 195.706 449 196.406 449.4 197.306C449.8 198.206 450 199.206 450 200.206C450 200.506 450 200.906 450 201.206C449.4 201.306 448.8 201.406 448.1 201.406C447.1 201.406 445.9 201.406 445 201.406H440.3C440.3 202.606 440.5 203.706 441 204.806C441.4 205.606 442.1 206.306 442.9 206.706C443.7 207.106 444.6 207.306 445.4 207.306C446 207.306 446.6 207.206 447.2 207.006C448 206.706 448.7 206.406 449.4 205.906L449.6 206.406Z"
    fill="#B10932"
  />
  <path
    d="M463.2 198.006C462.6 197.306 461.9 196.806 461.1 196.406C460.4 196.106 459.7 195.906 458.9 195.906C458.1 195.906 457.4 196.106 456.7 196.506C456 197.006 455.5 197.606 455.2 198.406C454.8 199.306 454.6 200.306 454.7 201.306C454.6 202.806 455.1 204.306 456 205.406C456.8 206.306 458 206.906 459.2 206.906C459.8 206.906 460.4 206.806 460.9 206.506C461.4 206.206 461.9 205.806 462.3 205.306C462.7 204.806 462.9 204.206 463 203.606C463.1 202.606 463.1 201.506 463.1 200.506L463.2 198.006ZM460.8 188.906V188.106C461.7 188.006 462.6 187.906 463.5 187.706C464.2 187.506 465 187.406 465.7 187.106L465.9 187.206C465.9 188.006 465.9 189.606 465.9 192.006V194.306V203.406C465.9 204.406 465.9 205.206 465.9 206.006C465.9 206.406 465.9 206.906 466.1 207.306C466.2 207.506 466.4 207.606 466.5 207.606C467.1 207.806 467.7 207.806 468.3 207.906V208.706H465.8H463.3C463.3 208.006 463.3 207.106 463.3 206.006C462.9 206.306 462.4 206.706 461.8 207.206C461.1 207.706 460.6 208.206 460.3 208.606C459.6 208.806 458.9 208.906 458.2 208.906C457.1 208.906 456.1 208.606 455.2 208.106C454.2 207.606 453.5 206.706 453 205.706C452.5 204.606 452.2 203.406 452.3 202.206C452.3 201.306 452.5 200.306 452.8 199.506C453 198.806 453.4 198.106 454 197.506C454.6 197.006 455.2 196.606 455.8 196.306C456.5 195.906 457.2 195.506 458 195.106C458.6 194.806 459.2 194.706 459.9 194.706C461.1 194.706 462.3 195.006 463.4 195.606V191.806C463.5 191.006 463.4 190.206 463.2 189.406C463.2 189.306 463.1 189.206 463 189.206C462.1 189.006 461.5 188.906 460.8 188.906Z"
    fill="#B10932"
  />
  <path
    d="M477.3 208.706V207.706C478 207.706 478.7 207.706 479.3 207.506C479.4 207.506 479.5 207.406 479.6 207.206C479.7 206.706 479.8 206.206 479.8 205.706C479.8 204.406 479.8 203.306 479.8 202.406V190.706C479.8 190.506 479.8 190.306 479.8 190.106C479.7 189.906 479.5 189.606 479.3 189.506C479.1 189.406 478.9 189.306 478.7 189.206C478.2 189.206 477.7 189.206 477.2 189.206V188.306L480.3 188.406C481 188.406 481.8 188.406 482.5 188.306L484.3 190.706L487.3 194.306L491.7 199.506L495 203.506C495.5 204.106 496 204.606 496.4 205.006V194.306C496.4 193.406 496.4 192.206 496.4 191.006C496.4 190.506 496.3 190.006 496.2 189.506C496.1 189.406 496 189.306 495.9 189.206C495.2 189.006 494.6 189.006 493.9 189.006V188.106C495.1 188.106 496.2 188.206 497.4 188.206C498.6 188.206 499.6 188.206 500.4 188.106V189.006C499.7 189.006 499 189.006 498.4 189.206C498.3 189.306 498.2 189.406 498.1 189.506C498 190.006 497.9 190.506 497.9 191.006C497.9 192.306 497.9 193.406 497.9 194.306V201.206C497.9 202.706 497.9 205.306 497.9 209.106L496.4 208.706H496.1H495.9C495.7 208.506 495.5 208.306 495.4 208.106C494.6 207.206 494 206.506 493.6 205.906L491.7 203.506L481.4 191.106V202.306C481.4 203.206 481.4 204.506 481.4 205.706C481.4 206.206 481.5 206.706 481.6 207.206C481.7 207.306 481.8 207.406 481.9 207.506C482.6 207.706 483.2 207.806 483.9 207.706V208.606C483.1 208.606 482.1 208.606 481.1 208.606C480.1 208.606 478.6 208.606 477.3 208.706Z"
    fill="#B10932"
  />
  <path
    d="M518.1 207.806V208.606C516.8 208.606 515.9 208.606 515.2 208.606C514.5 208.606 513.8 208.606 513 208.606C513 207.806 513 206.906 513 206.006C512.3 206.606 511.6 207.206 510.9 207.906C510.7 208.106 510.6 208.206 510.4 208.306C510 208.506 509.6 208.706 509.2 208.806C508.7 208.906 508.2 208.906 507.7 208.906C507 208.906 506.4 208.806 505.8 208.606C505.3 208.406 504.8 208.006 504.5 207.606C504.2 207.206 504 206.806 503.8 206.406C503.6 205.806 503.5 205.206 503.6 204.606C503.6 204.306 503.6 203.906 503.6 203.606C503.6 203.306 503.6 203.006 503.6 202.706V200.206C503.6 200.006 503.6 199.306 503.6 198.306C503.6 197.906 503.6 197.506 503.5 197.106C503.5 197.006 503.4 196.906 503.3 196.906C503.1 196.806 502.8 196.706 502.5 196.706H501.2V195.906C502.8 195.806 504.3 195.406 505.7 194.806C505.8 194.706 505.9 194.706 506.1 194.706C506.1 194.706 506.2 194.706 506.3 194.706C506.3 194.806 506.3 194.806 506.3 194.906V195.206C506.3 195.506 506.3 196.106 506.3 197.006C506.3 198.606 506.3 199.706 506.3 200.206V203.006C506.3 203.806 506.3 204.706 506.5 205.506C506.7 206.006 507 206.406 507.4 206.606C507.9 206.906 508.5 207.106 509.1 207.006C509.6 207.006 510 206.906 510.5 206.806C510.9 206.706 511.4 206.406 511.7 206.106C512 205.806 512.3 205.506 512.5 205.206C512.7 205.006 512.8 204.806 512.9 204.506C512.9 204.306 512.9 204.106 512.9 203.806C512.9 202.906 512.9 202.106 512.9 201.306V200.106C512.9 199.806 512.9 199.206 512.9 198.206C512.9 197.806 512.9 197.406 512.8 197.006C512.8 196.906 512.7 196.806 512.6 196.806C512.4 196.706 512.1 196.606 511.8 196.606H510.6V195.806C512.2 195.706 513.7 195.306 515.1 194.706C515.2 194.606 515.3 194.606 515.5 194.606C515.6 194.606 515.6 194.606 515.7 194.606C515.7 194.706 515.7 194.706 515.7 194.806C515.7 194.906 515.7 195.006 515.7 195.106C515.7 195.406 515.7 196.006 515.7 197.006C515.7 198.606 515.7 199.606 515.7 200.206V202.206V204.206C515.7 205.406 515.7 206.106 515.7 206.306C515.7 206.706 515.7 207.006 515.9 207.406C516 207.506 516 207.606 516.1 207.606C516.2 207.706 516.3 207.706 516.4 207.806H518"
    fill="#B10932"
  />
  <path
    d="M521.2 197.206H521.8V203.206C521.8 203.406 521.8 203.506 521.8 203.706C521.8 204.506 521.8 205.206 521.8 205.906C521.8 206.406 521.9 206.906 522.1 207.406C522.2 207.706 522.4 208.006 522.7 208.206C522.9 208.406 523.2 208.606 523.5 208.706C523.9 208.806 524.3 208.906 524.7 208.906C525.1 208.906 525.4 208.906 525.8 208.906C526.1 208.906 526.5 208.806 526.8 208.606L528.2 207.306L528 206.706C527.7 206.806 527.4 206.906 527.1 207.006H526.1C525.7 207.006 525.4 206.906 525 206.706C524.8 206.606 524.6 206.406 524.5 206.206C524.4 206.006 524.3 205.706 524.2 205.506C524.1 204.606 524.1 203.806 524.2 202.906V197.006H528L528.3 195.706H528.2C527.8 195.706 527.4 195.706 527.1 195.706H524.2C524.3 192.906 524.4 191.206 524.5 190.406L524.2 190.106C523.5 190.606 522.7 190.906 521.8 191.206V195.606C521.2 195.906 520.5 196.206 519.6 196.506V197.106C520.1 197.006 520.7 197.006 521.2 197.006"
    fill="#B10932"
  />
  <path
    d="M532.8 208.506C534 208.506 535.4 208.506 537.2 208.506V207.706C536.4 207.706 535.6 207.606 534.8 207.406C534.7 207.406 534.6 207.306 534.5 207.206C534.4 207.106 534.4 207.006 534.3 206.906C534.3 206.506 534.3 206.106 534.3 205.806C534.3 204.106 534.3 202.906 534.3 202.306V200.806C534.2 199.806 534.5 198.806 535.1 198.006C535.5 197.406 536.2 197.106 537 197.106C537.4 197.106 537.8 197.206 538.1 197.406C538.4 197.706 538.7 198.006 538.9 198.506H539.6C539.6 197.306 539.7 196.206 539.9 195.106V194.906C539.5 194.706 539.1 194.606 538.7 194.606C538.3 194.606 537.9 194.706 537.5 194.806C537.1 194.906 536.8 195.206 536.5 195.406C536.2 195.706 535.9 196.006 535.7 196.406C535.3 196.906 534.9 197.406 534.5 197.906C534.5 196.706 534.5 195.706 534.5 195.206C534.5 195.106 534.5 195.006 534.5 195.006C534.5 194.906 534.5 194.906 534.5 194.806C534.5 194.806 534.4 194.806 534.3 194.806C534.2 194.806 534 194.906 533.9 195.006C532.5 195.506 531 195.906 529.5 196.006V196.806C530.1 196.706 530.8 196.706 531.4 196.806C531.5 196.806 531.7 196.906 531.7 197.006C531.8 197.306 531.8 197.706 531.8 198.006C531.8 198.906 531.8 199.706 531.8 200.506V202.206C531.8 202.306 531.8 203.706 531.8 206.306C531.8 206.706 531.7 207.006 531.6 207.306C531.6 207.406 531.5 207.506 531.4 207.606C531.3 207.706 531.2 207.706 531 207.706H529.2V208.506C530.4 208.506 531.6 208.506 532.8 208.506Z"
    fill="#B10932"
  />
  <path
    d="M543.2 188.806C542.9 189.106 542.7 189.506 542.7 190.006C542.7 190.406 542.9 190.806 543.2 191.106C543.5 191.406 543.9 191.606 544.4 191.606C544.8 191.606 545.2 191.406 545.5 191.106C545.8 190.806 546 190.406 546 190.006C546 189.606 545.8 189.206 545.5 188.806C545.2 188.506 544.8 188.306 544.3 188.306C543.9 188.306 543.5 188.506 543.2 188.806ZM542.8 196.806C542.9 196.906 543.1 197.006 543.1 197.106C543.3 197.906 543.3 198.806 543.3 199.706V202.306C543.3 204.906 543.3 206.306 543.3 206.506C543.3 206.906 543.2 207.206 543.1 207.506C543 207.606 542.9 207.706 542.8 207.706C542.6 207.706 542.5 207.706 542.3 207.706H540.9V208.506C542.7 208.506 543.9 208.506 544.7 208.506C545.5 208.506 546.8 208.506 548.2 208.506V207.706H546.6C546.5 207.706 546.3 207.606 546.2 207.506C546.1 207.406 546.1 207.406 546 207.306C545.9 207.006 545.8 206.606 545.8 206.206C545.8 206.006 545.8 204.706 545.8 202.106V199.506C545.8 198.406 545.8 196.806 545.8 194.806L545.5 194.606C544 195.206 542.4 195.706 540.8 195.806V196.606C541.6 196.706 542.2 196.706 542.8 196.806Z"
    fill="#B10932"
  />
  <path
    d="M551.1 197.206H551.7V203.706C551.7 204.506 551.7 205.206 551.7 205.906C551.7 206.406 551.8 206.906 552 207.406C552.1 207.706 552.3 208.006 552.6 208.206C552.9 208.406 553.1 208.606 553.4 208.706C553.8 208.806 554.2 208.906 554.6 208.906C555 208.906 555.3 208.906 555.7 208.906C556.1 208.906 556.4 208.806 556.7 208.606L558 207.506L557.8 206.906C557.5 207.006 557.2 207.106 556.9 207.206H556C555.6 207.206 555.3 207.106 554.9 206.906C554.7 206.806 554.5 206.606 554.4 206.406C554.3 206.206 554.2 205.906 554.1 205.706C554 204.806 554 204.006 554.1 203.106V197.206H557.9L558.2 195.906C557.8 195.906 557.4 195.906 557.1 195.906H554.2C554.3 193.106 554.4 191.406 554.5 190.606L554.2 190.306C553.4 190.806 552.6 191.106 551.8 191.406V195.806C551.1 196.206 550.4 196.506 549.6 196.706V197.306C550.1 197.206 550.7 197.206 551.2 197.206"
    fill="#B10932"
  />
  <path
    d="M561.5 188.806C561.2 189.106 561 189.506 561 189.906C561 190.306 561.2 190.706 561.5 191.006C561.8 191.306 562.2 191.506 562.7 191.506C563.1 191.506 563.6 191.306 563.9 191.006C564.2 190.706 564.4 190.306 564.4 189.906C564.4 189.506 564.2 189.106 563.9 188.706C563.6 188.406 563.2 188.206 562.7 188.206C562.1 188.206 561.7 188.406 561.5 188.806ZM561 196.806C561.1 196.906 561.3 197.006 561.3 197.106C561.5 197.906 561.5 198.806 561.5 199.706V202.306C561.5 204.906 561.5 206.306 561.5 206.506C561.5 206.906 561.4 207.206 561.3 207.506C561.2 207.606 561.2 207.706 561.1 207.706C560.9 207.706 560.8 207.706 560.6 207.706H559.2V208.506C561 208.506 562.2 208.506 563 208.506C563.8 208.506 565.1 208.506 566.5 208.506V207.706H564.9C564.8 207.706 564.7 207.606 564.6 207.506C564.5 207.406 564.5 207.406 564.4 207.306C564.3 207.006 564.2 206.606 564.2 206.206C564.2 206.006 564.2 204.706 564.2 202.106V199.606C564.2 198.506 564.2 196.906 564.2 194.906L563.9 194.706C562.4 195.406 560.8 195.806 559.2 195.906V196.706C559.8 196.706 560.4 196.706 561 196.806Z"
    fill="#B10932"
  />
  <path
    d="M570.8 200.906C570.8 202.106 571 203.406 571.4 204.506C571.7 205.606 572.3 206.506 573.1 207.206C573.8 207.806 574.7 208.006 575.6 208.106C576.7 208.106 577.7 207.606 578.4 206.806C579.3 205.606 579.7 204.206 579.5 202.706C579.5 201.306 579.3 200.006 578.8 198.706C578.5 197.806 577.9 196.906 577.1 196.306C576.4 195.906 575.6 195.606 574.8 195.606C573.7 195.606 572.6 196.006 571.9 196.906C571 198.106 570.6 199.506 570.8 200.906ZM568 202.006C567.9 200.006 568.7 198.106 570.1 196.706C571.5 195.306 573.4 194.606 575.4 194.706C577.2 194.606 579 195.306 580.4 196.606C581.7 197.906 582.4 199.706 582.3 201.506C582.3 202.906 582 204.206 581.3 205.406C580.6 206.606 579.7 207.506 578.5 208.106C577.3 208.806 575.9 209.106 574.5 209.106C573.5 209.106 572.6 208.906 571.7 208.606C571 208.306 570.3 207.806 569.8 207.206C569.3 206.706 569 206.106 568.7 205.506C568.2 204.306 568 203.106 568 202.006Z"
    fill="#B10932"
  />
  <path
    d="M583.6 208.706V207.906H585C585.2 207.906 585.3 207.906 585.5 207.906C585.6 207.906 585.7 207.806 585.8 207.706C585.9 207.406 586 207.006 586 206.706C586 206.606 586 205.206 586 202.506V200.706C586 199.906 586 199.106 586 198.206C586 197.906 585.9 197.506 585.8 197.206C585.7 197.106 585.6 197.006 585.5 197.006C584.9 196.906 584.2 196.906 583.6 197.006V196.206C585.1 196.106 586.5 195.706 587.9 195.206C588 195.106 588.2 195.106 588.3 195.006C588.3 195.006 588.4 195.006 588.5 195.006C588.5 195.106 588.5 195.106 588.5 195.206V195.406C588.5 195.706 588.5 196.506 588.5 197.606L591.2 195.406C591.9 195.106 592.6 195.006 593.4 195.006C594.2 195.006 594.9 195.206 595.6 195.506C596.2 195.806 596.8 196.206 597.2 196.706C597.6 197.206 597.8 197.906 597.9 198.506C597.9 198.906 597.9 200.206 597.9 202.106V204.706C597.9 206.006 597.9 206.906 597.9 207.306C597.9 207.506 598 207.706 598.1 207.906C598.2 208.006 598.4 208.106 598.6 208.106H600.1V208.906C599.2 208.906 598.4 208.906 597.8 208.906C597.2 208.906 596.4 208.906 595.1 208.906C595.1 206.506 595.3 205.006 595.3 204.406V201.706C595.3 200.706 595.3 199.706 595.1 198.706C594.9 198.106 594.5 197.506 594 197.106C593.4 196.706 592.6 196.506 591.8 196.506C591.1 196.506 590.4 196.706 589.8 197.006C589.3 197.306 588.8 197.706 588.5 198.206C588.2 198.906 588.1 199.606 588.1 200.406V202.206C588.1 204.706 588.1 206.106 588.1 206.306C588.1 206.706 588.2 207.006 588.3 207.406C588.3 207.506 588.4 207.606 588.5 207.606C588.6 207.706 588.7 207.706 588.9 207.806H590.5V208.606C589.3 208.606 588.3 208.606 587.3 208.606C586.3 208.606 585.1 208.606 583.3 208.606"
    fill="#B10932"
  />
  <path
    d="M359.6 169.106C358.4 169.506 357.2 169.906 356 170.206C354.5 170.506 352.9 170.706 351.3 170.706C349.2 170.706 347.2 170.306 345.4 169.406C343.7 168.606 342.3 167.306 341.4 165.706C340.4 164.006 339.9 162.106 340 160.106C339.9 157.006 341.2 154.006 343.6 152.006C344.5 151.206 345.5 150.606 346.7 150.106C348.5 149.406 350.5 149.106 352.5 149.206C353.6 149.206 354.8 149.306 355.9 149.606C357.1 149.806 358.4 150.206 359.9 150.606C359.8 151.106 359.7 151.606 359.6 152.006C359.5 152.506 359.4 153.406 359.3 154.906H358.4V153.306C358.4 153.006 358.4 152.806 358.4 152.706C358.4 152.506 358.3 152.306 358.2 152.106C357.9 151.706 357.4 151.406 357 151.206C356.2 150.906 355.4 150.606 354.5 150.506C353.7 150.406 353 150.306 352.2 150.306C350.5 150.206 348.9 150.606 347.4 151.506C346.1 152.306 345 153.506 344.3 154.906C342.8 158.106 342.9 161.706 344.5 164.806C345.2 166.306 346.4 167.506 347.8 168.306C349.2 169.106 350.9 169.506 352.6 169.506C353.4 169.506 354.3 169.406 355.1 169.306C355.8 169.206 356.5 168.906 357.2 168.606C357.2 168.006 357.2 167.406 357.2 166.806V165.206C357.2 164.706 357.2 164.206 357.1 163.706C357.1 163.506 356.8 163.406 356.4 163.406C355.5 163.306 354.7 163.206 353.8 163.206V162.306H358.3C359.2 162.306 360.1 162.306 361 162.306V163.006L359.9 163.706C359.8 164.606 359.7 165.606 359.7 166.606C359.3 167.306 359.4 168.206 359.6 169.106Z"
    fill="#B10932"
  />
  <path
    d="M362.3 170.206V169.406H363.7C363.9 169.406 364 169.406 364.2 169.406C364.3 169.406 364.4 169.306 364.5 169.206C364.6 168.906 364.7 168.506 364.7 168.206C364.7 168.106 364.7 166.706 364.7 164.106V158.006C364.7 156.406 364.7 154.706 364.7 153.006C364.7 152.306 364.7 151.706 364.5 151.106C364.5 151.006 364.4 150.906 364.3 150.906C363.6 150.806 363 150.806 362.3 150.906V150.106C363.8 149.906 365.3 149.606 366.7 149.006C366.8 149.006 366.9 149.006 367 149.006C367 149.006 367.1 149.006 367.2 149.006C367.2 149.106 367.2 149.106 367.2 149.206C367.2 149.306 367.2 149.406 367.2 149.506V150.006C367.2 151.706 367.2 153.206 367.1 154.406V164.206C367.1 166.706 367.1 168.106 367.1 168.306C367.1 168.706 367.2 169.006 367.3 169.306C367.3 169.406 367.4 169.506 367.5 169.506C367.6 169.606 367.7 169.606 367.8 169.706H369.4V170.506C368.1 170.506 366.9 170.406 365.9 170.406C364.9 170.406 363.7 170.406 362.1 170.506"
    fill="#B10932"
  />
  <path
    d="M373.8 162.606C373.8 163.806 374 165.106 374.4 166.206C374.7 167.306 375.3 168.206 376.1 168.906C376.8 169.506 377.7 169.806 378.6 169.806C379.7 169.806 380.7 169.306 381.4 168.506C382.2 167.306 382.7 165.906 382.5 164.406C382.5 163.006 382.3 161.706 381.8 160.406C381.5 159.506 380.9 158.606 380.1 158.006C379.4 157.606 378.6 157.306 377.8 157.306C376.7 157.306 375.6 157.706 374.9 158.606C374.1 159.706 373.7 161.106 373.8 162.606ZM371 163.706C371 161.706 371.8 159.806 373.2 158.406C374.6 157.006 376.5 156.306 378.5 156.306C382.1 156.106 385.2 158.906 385.4 162.506C385.4 162.706 385.4 162.906 385.4 163.106C385.4 164.406 385.1 165.806 384.4 166.906C383.8 168.106 382.8 169.006 381.6 169.706C380.4 170.406 379 170.706 377.6 170.706C376.6 170.706 375.7 170.506 374.8 170.106C374.1 169.806 373.4 169.306 372.9 168.706C372.4 168.206 372.1 167.606 371.8 166.906C371.3 166.006 371 164.806 371 163.706Z"
    fill="#B10932"
  />
  <path
    d="M390.8 160.906V166.406C390.7 166.706 390.7 167.006 390.8 167.306C390.9 167.506 391.1 167.706 391.3 167.806C391.7 168.106 392.2 168.406 392.7 168.606C393.3 168.806 393.8 168.906 394.4 168.906C395.7 169.006 396.9 168.406 397.7 167.306C398.5 166.106 398.9 164.706 398.9 163.306C398.9 162.306 398.7 161.406 398.3 160.506C398 159.806 397.5 159.206 396.8 158.806C396.1 158.406 395.4 158.206 394.6 158.206C393.7 158.206 392.8 158.506 392.1 159.006C391.4 159.506 390.9 160.206 390.6 161.006M388.1 170.306C388.1 169.106 388.2 168.306 388.3 168.006C388.3 165.806 388.3 164.706 388.3 164.306V157.906C388.3 156.306 388.3 154.606 388.3 152.906C388.3 152.206 388.3 151.606 388.1 151.006C388 150.906 388 150.806 387.9 150.806C387.2 150.706 386.6 150.706 385.9 150.806V150.006C387.4 149.906 389 149.506 390.4 149.006C390.5 149.006 390.6 149.006 390.7 149.006C390.7 149.006 390.8 149.006 390.9 149.006C390.9 149.106 390.9 149.106 390.9 149.206C390.9 149.306 390.9 149.406 390.9 149.506V150.006C390.9 151.706 390.9 153.206 390.9 154.406V156.606V159.506L392.9 157.506C393.3 157.206 393.7 157.006 394.2 156.806C394.8 156.606 395.5 156.506 396.1 156.506C397.1 156.506 398.1 156.706 399 157.306C399.8 157.806 400.5 158.606 400.9 159.506C401.4 160.406 401.6 161.506 401.6 162.506C401.6 163.306 401.5 164.106 401.2 164.906C401 165.606 400.7 166.306 400.2 166.906C400 167.306 399.7 167.606 399.4 167.806L397.2 169.306C396.6 169.806 395.9 170.206 395.2 170.506C394.6 170.706 394 170.806 393.3 170.806C392.7 170.806 392.1 170.706 391.5 170.506C390.9 170.306 390.3 170.006 389.7 169.606L388.6 170.706L388.1 170.306Z"
    fill="#B10932"
  />
  <path
    d="M412.5 162.606C411.4 162.806 410.3 163.006 409.3 163.306C408.6 163.506 408 163.706 407.4 164.106C407.2 164.306 407 164.606 406.8 164.806C406.5 165.306 406.4 165.906 406.4 166.406C406.4 167.006 406.6 167.606 407 168.106C407.4 168.506 408 168.706 408.6 168.706C409.3 168.706 409.9 168.506 410.5 168.106C411.2 167.706 411.9 167.106 412.4 166.406L412.5 162.606ZM405.8 160.406L405 160.206V158.306C405.9 157.606 407 157.106 408 156.706C408.6 156.506 409.3 156.406 410 156.406C411 156.406 411.9 156.606 412.8 157.006C413.5 157.406 414.1 158.006 414.5 158.806C414.8 159.506 414.9 160.206 414.9 161.006V163.706V168.106C414.9 168.406 414.9 168.806 414.9 169.106C415 169.206 415.1 169.306 415.2 169.406C415.4 169.506 415.6 169.506 415.8 169.506H416.7V170.406C415.9 170.406 415.2 170.306 414.5 170.306C413.8 170.306 413.1 170.306 412.2 170.406V167.706C410.2 169.206 409.1 170.006 408.7 170.206C408.3 170.406 407.8 170.506 407.3 170.506C406.3 170.606 405.3 170.206 404.6 169.506C403.9 168.906 403.6 167.906 403.6 167.006C403.6 166.406 403.7 165.806 403.9 165.206C404.1 164.706 404.4 164.306 404.7 163.906C405 163.606 405.3 163.406 405.7 163.206C406.6 162.806 407.5 162.506 408.4 162.306C409.6 162.006 410.9 161.806 412.2 161.606C412.2 160.906 412.1 160.106 411.9 159.406C411.6 158.906 411.2 158.406 410.7 158.106C410.1 157.806 409.4 157.606 408.7 157.606C408.2 157.606 407.7 157.706 407.2 157.806C406.9 157.906 406.6 158.006 406.4 158.206L406.1 158.706C405.8 159.306 405.6 159.706 405.5 160.106"
    fill="#B10932"
  />
  <path
    d="M418.1 170.206V169.406H419.5C419.7 169.406 419.8 169.406 420 169.406C420.1 169.406 420.2 169.306 420.3 169.206C420.4 168.906 420.5 168.506 420.5 168.206C420.5 168.106 420.5 166.706 420.5 164.106V158.006C420.5 156.406 420.5 154.706 420.5 153.006C420.5 152.306 420.5 151.706 420.3 151.106C420.2 151.006 420.2 150.906 420.1 150.906C419.4 150.806 418.8 150.806 418.1 150.906V150.106C419.6 150.006 421.2 149.606 422.6 149.106C422.7 149.106 422.8 149.106 422.9 149.106C422.9 149.106 423 149.106 423.1 149.106C423.1 149.206 423.1 149.206 423.1 149.306C423.1 149.406 423.1 149.506 423.1 149.606V150.106C423.1 151.806 423.1 153.306 423.1 154.506V164.306C423.1 166.806 423.1 168.206 423.1 168.406C423.1 168.806 423.1 169.106 423.3 169.406C423.3 169.506 423.4 169.606 423.5 169.606C423.6 169.706 423.7 169.706 423.8 169.806H425.4V170.506C424.1 170.506 422.9 170.406 421.9 170.406C420.9 170.106 419.7 170.106 418.1 170.206Z"
    fill="#B10932"
  />
  <path
    d="M439.5 162.306H446.8L443.2 153.606L439.5 162.306ZM432.8 170.206V169.306C433.3 169.306 433.7 169.306 434.2 169.306C434.4 169.306 434.6 169.206 434.7 169.006C435 168.606 435.2 168.206 435.4 167.806C435.6 167.506 436.2 166.106 437.3 163.706L440.9 155.406C441.3 154.506 442.1 152.506 443.5 149.406H444.4L450.6 163.906C451.6 166.306 452.3 167.706 452.6 168.306C452.7 168.606 452.9 168.806 453.2 169.006C453.7 169.106 454.2 169.206 454.7 169.206V170.106H451.5L446.8 170.206V169.206C447.5 169.206 448.1 169.206 448.8 169.206C449 169.206 449.2 169.106 449.3 169.006C449.3 168.906 449.3 168.806 449.3 168.706C449.3 168.406 449.2 168.106 449.1 167.906L447.3 163.506H439L437.5 167.206C437.3 167.706 437.1 168.206 437.1 168.706C437.1 168.806 437.1 168.906 437.2 169.006C437.3 169.106 437.5 169.206 437.7 169.306C438.3 169.406 438.9 169.406 439.6 169.406V170.106C438 170.106 436.7 170.006 435.9 170.006C435.1 170.006 433.9 170.006 432.8 170.106"
    fill="#B10932"
  />
  <path
    d="M459.8 170.206C460.8 170.206 462 170.206 463.3 170.306V169.506H461.7C461.6 169.506 461.5 169.406 461.4 169.306C461.3 169.206 461.3 169.206 461.2 169.106C461.1 168.806 461 168.406 461 168.106C461 167.906 461 166.606 461 164.006V154.106C461 152.906 461 151.406 461.1 149.706V149.206C461.1 149.106 461.1 149.006 461.1 148.906C461.1 148.806 461.1 148.806 461.1 148.706C461 148.706 461 148.706 460.9 148.706C460.8 148.706 460.7 148.706 460.6 148.706C459.2 149.306 457.6 149.606 456.1 149.706V150.406C456.8 150.306 457.4 150.306 458.1 150.406C458.2 150.406 458.3 150.506 458.3 150.606C458.4 151.206 458.5 151.906 458.5 152.506C458.5 154.206 458.5 155.906 458.5 157.506V163.706C458.5 166.406 458.5 167.706 458.5 167.906C458.5 168.306 458.5 168.606 458.3 168.906C458.2 169.006 458.1 169.106 458 169.106C457.8 169.106 457.7 169.106 457.5 169.106H456.1V170.006C457.6 170.006 458.9 169.906 459.8 169.906"
    fill="#B10932"
  />
  <path
    d="M464.7 170.206V169.406H466.1C466.3 169.406 466.4 169.406 466.6 169.406C466.7 169.306 466.8 169.306 466.9 169.206C467.1 168.806 467.2 168.406 467.1 168.006C467.1 167.906 467.1 166.506 467.1 163.906V157.906C467.1 156.306 467.1 154.606 467.1 152.906C467.1 152.206 467 151.606 466.9 151.006C466.8 150.906 466.8 150.806 466.7 150.806C466 150.706 465.3 150.706 464.7 150.806V150.006C466.3 149.906 467.8 149.506 469.3 148.906C469.4 148.906 469.5 148.906 469.6 148.906C469.6 148.906 469.7 148.906 469.8 148.906C469.8 149.006 469.8 149.006 469.8 149.106C469.8 149.206 469.8 149.306 469.8 149.406V149.906C469.8 151.606 469.8 153.106 469.8 154.306V164.106C469.8 166.606 469.8 168.006 469.8 168.206C469.8 168.606 469.8 168.906 470 169.206C470 169.306 470.1 169.406 470.2 169.406C470.3 169.506 470.4 169.506 470.6 169.606H472.2V170.406C470.9 170.406 469.7 170.306 468.7 170.306C467.7 170.306 466.5 170.306 464.9 170.406"
    fill="#B10932"
  />
  <path
    d="M476.7 149.906C477.1 149.906 477.6 150.106 477.9 150.406C478.6 151.006 478.7 152.106 478 152.706C477.7 153.006 477.3 153.206 476.8 153.206C476.4 153.206 476 153.006 475.7 152.706C475.1 152.106 475.1 151.006 475.7 150.406C476 150.106 476.4 149.906 476.8 149.906M473.3 158.406V157.606C474.9 157.406 476.5 157.006 477.9 156.406L478.2 156.606C478.2 158.806 478.2 160.206 478.2 161.306V163.906C478.2 166.406 478.2 167.806 478.2 168.006C478.2 168.406 478.2 168.706 478.4 169.006L478.6 169.206C478.7 169.306 478.8 169.306 478.9 169.406H480.5V170.206C479 170.206 477.8 170.106 477 170.106C476.2 170.106 474.9 170.106 473.2 170.206V169.406H474.6C474.8 169.406 474.9 169.406 475.1 169.406C475.2 169.306 475.3 169.306 475.4 169.206C475.5 168.906 475.6 168.506 475.6 168.206C475.6 168.206 475.6 166.706 475.6 164.106V161.406C475.6 160.506 475.6 159.706 475.4 158.806C475.3 158.706 475.2 158.606 475.1 158.506C474.6 158.406 473.9 158.406 473.3 158.406Z"
    fill="#B10932"
  />
  <path
    d="M491.1 162.606C490 162.806 488.9 163.006 487.9 163.306C487.2 163.506 486.6 163.706 486 164.106C485.8 164.306 485.6 164.606 485.4 164.806C485.1 165.306 485 165.906 485 166.406C485 167.606 486 168.606 487.2 168.606C487.9 168.606 488.5 168.406 489.1 168.006C489.8 167.606 490.5 167.006 491 166.306L491.1 162.606ZM484.4 160.406L483.6 160.206C483.6 160.006 483.6 159.706 483.6 159.306C483.6 158.906 483.6 158.606 483.6 158.306C484.5 157.606 485.6 157.106 486.6 156.706C487.3 156.506 487.9 156.406 488.6 156.406C489.6 156.406 490.5 156.606 491.4 157.006C492.1 157.406 492.7 158.006 493.1 158.806C493.4 159.506 493.5 160.206 493.5 161.006V163.706V168.106C493.5 168.406 493.5 168.806 493.6 169.106C493.7 169.206 493.7 169.306 493.9 169.406C494.1 169.506 494.3 169.506 494.5 169.506H495.4V170.306C494.6 170.306 493.9 170.206 493.3 170.206C492.7 170.206 491.9 170.206 491 170.306V167.706C489.8 168.606 488.6 169.506 487.4 170.206C487 170.406 486.5 170.506 486 170.506C485 170.606 484 170.206 483.2 169.506C482.5 168.806 482.2 167.906 482.2 167.006C482.2 166.406 482.3 165.806 482.5 165.206C482.7 164.706 483 164.306 483.3 163.906C483.6 163.606 483.9 163.406 484.3 163.206C485.2 162.806 486.1 162.506 487.1 162.306C488.3 162.006 489.6 161.806 490.8 161.606C490.8 160.906 490.7 160.106 490.5 159.406C490.2 158.906 489.8 158.406 489.3 158.106C488.7 157.806 488 157.606 487.3 157.606C486.8 157.606 486.3 157.706 485.8 157.806C485.5 157.906 485.3 158.006 485 158.206L484.7 158.706C484.4 159.306 484.2 159.706 484.1 160.106"
    fill="#B10932"
  />
  <path
    d="M500.3 170.206C501.3 170.206 502.3 170.206 503.5 170.306V169.506H501.9C501.8 169.506 501.7 169.406 501.6 169.306C501.5 169.206 501.4 169.206 501.4 169.106C501.3 168.806 501.2 168.406 501.2 168.006C501.2 167.806 501.2 166.406 501.2 163.906V162.106C501.2 161.406 501.3 160.606 501.6 159.906C501.9 159.406 502.3 159.006 502.9 158.706C503.5 158.406 504.2 158.206 504.9 158.206C505.7 158.206 506.4 158.406 507.1 158.806C507.7 159.206 508 159.706 508.2 160.406C508.3 161.406 508.4 162.406 508.4 163.406V165.806C508.4 166.406 508.4 168.006 508.2 170.306L510.8 170.106C511.4 170.106 512.2 170.106 513.1 170.206V169.406H511.5C511.3 169.406 511.2 169.306 511 169.206C510.9 169.006 510.8 168.806 510.8 168.606C510.8 168.206 510.8 167.306 510.8 166.006V163.306C510.8 161.306 510.8 160.106 510.8 159.606C510.7 158.906 510.5 158.306 510.1 157.806C509.7 157.306 509.2 156.806 508.5 156.606C507.8 156.306 507.1 156.106 506.3 156.106C505.6 156.106 504.8 156.306 504.1 156.506L501.4 158.806C501.4 157.706 501.4 157.006 501.4 156.606V156.406C501.4 156.306 501.4 156.306 501.4 156.206C501.3 156.206 501.3 156.206 501.2 156.206C501.1 156.206 500.9 156.306 500.8 156.306C499.4 156.906 497.9 157.206 496.4 157.306V158.106C497 158.006 497.7 158.006 498.3 158.106C498.4 158.106 498.6 158.206 498.6 158.306C498.7 158.606 498.7 159.006 498.7 159.306C498.7 160.206 498.7 161.006 498.7 161.806V163.506C498.7 166.206 498.7 167.606 498.7 167.706C498.7 168.106 498.6 168.406 498.5 168.706C498.4 168.806 498.3 168.906 498.2 168.906C498 168.906 497.9 168.906 497.7 168.906H496.3V169.806C498.2 169.806 499.5 169.706 500.3 169.706"
    fill="#B10932"
  />
  <path
    d="M525.7 168.606L525.1 169.606C523.8 170.306 522.4 170.706 520.9 170.606C519.1 170.706 517.4 170.006 516.1 168.806C514.9 167.406 514.2 165.606 514.3 163.806C514.3 162.806 514.4 161.806 514.8 160.906C515 160.206 515.5 159.506 516 159.006C516.6 158.506 517.2 158.106 517.8 157.806C518.4 157.406 519 157.106 519.7 156.806C520.4 156.506 521.2 156.306 522 156.406C522.8 156.406 523.6 156.506 524.4 156.706C524.9 156.806 525.3 157.006 525.7 157.306C525.6 158.006 525.5 158.606 525.4 159.006C525.4 159.406 525.3 160.106 525.2 161.106H524.5C524.5 160.506 524.4 159.906 524.3 159.406C524.2 159.206 524.2 159.106 524 159.006C523.6 158.706 523.1 158.506 522.7 158.306C522.1 158.106 521.5 158.006 520.9 158.006C520.1 158.006 519.4 158.106 518.7 158.506C518.1 158.906 517.6 159.406 517.3 160.106C517 160.906 516.8 161.906 516.8 162.806C516.8 164.006 517 165.206 517.5 166.306C517.9 167.306 518.5 168.106 519.4 168.606C520.2 169.106 521.1 169.306 522 169.306C522.5 169.306 523 169.206 523.4 169.106C524 168.906 524.6 168.706 525.2 168.406L525.7 168.606Z"
    fill="#B10932"
  />
  <path
    d="M529.8 162.106H531.3H534.3C535.6 162.106 536.4 162.106 536.9 162.106C536.9 161.906 536.9 161.706 536.9 161.606C537 160.406 536.7 159.206 536 158.206C535.4 157.506 534.4 157.106 533.5 157.106C532.5 157.106 531.5 157.506 530.8 158.306C530 159.406 529.7 160.706 529.8 162.006M539.1 168.106L538.6 169.106C538.1 169.406 537.6 169.706 537.1 170.006C536.6 170.206 536.1 170.406 535.6 170.506C535 170.606 534.4 170.706 533.7 170.706C532.5 170.706 531.3 170.406 530.3 169.806C529.3 169.306 528.4 168.406 527.9 167.406C527.3 166.306 527 165.006 527 163.706C527 162.706 527.1 161.706 527.5 160.706C527.7 160.006 528.1 159.306 528.5 158.706C528.9 158.306 529.3 157.906 529.8 157.606C530.4 157.206 530.9 156.906 531.5 156.706C532.3 156.406 533.1 156.206 534 156.206C535 156.206 535.9 156.506 536.8 157.106C537.6 157.506 538.3 158.306 538.7 159.106C539.1 160.006 539.3 161.006 539.3 162.006C539.3 162.306 539.3 162.706 539.3 163.006C538.7 163.106 538.1 163.206 537.4 163.306C536.4 163.306 535.2 163.306 534.3 163.306H529.6C529.6 164.506 529.8 165.606 530.3 166.606C530.7 167.406 531.4 168.106 532.2 168.506C533 168.906 533.8 169.106 534.7 169.106C535.3 169.106 535.9 169.006 536.5 168.806C537.3 168.506 538 168.206 538.7 167.806L539.1 168.106Z"
    fill="#B10932"
  />
  <path
    d="M551 158.906V164.006C551 166.606 551 168.006 551 168.106C551 168.506 550.9 168.806 550.8 169.106C550.7 169.206 550.6 169.306 550.5 169.306C550.3 169.306 550.2 169.306 550 169.306H548.6V170.206H552.2L556.3 170.306V169.506C555.5 169.506 554.7 169.406 553.9 169.206C553.8 169.206 553.7 169.106 553.6 169.006C553.5 168.906 553.5 168.806 553.5 168.706C553.5 168.306 553.5 167.906 553.5 167.606C553.5 165.906 553.5 164.706 553.5 164.106V158.806H555.3H557.2L557.5 157.306H557.3C556.6 157.306 555.8 157.306 555.1 157.306H553.6V154.306C553.6 153.506 553.6 152.706 553.8 151.906C553.9 151.506 554.2 151.206 554.5 151.006C554.9 150.806 555.3 150.606 555.8 150.706C556.1 150.706 556.5 150.806 556.8 150.906C557.1 151.006 557.4 151.206 557.7 151.406H558V149.006C557.6 148.906 557.2 148.806 556.8 148.806C556.3 148.806 555.8 148.906 555.4 149.106C554.9 149.406 554.4 149.806 554 150.206C553.2 150.906 552.5 151.606 551.8 152.406C551.5 152.806 551.3 153.306 551.1 153.806C550.9 154.706 550.8 155.606 550.9 156.506V157.406C550.2 157.806 549.6 158.106 548.9 158.406V159.006L551 158.906Z"
    fill="#B10932"
  />
  <path
    d="M561.4 162.606C561.4 163.806 561.6 165.106 562 166.206C562.3 167.306 562.9 168.206 563.7 168.906C564.4 169.506 565.3 169.706 566.2 169.806C567.3 169.806 568.3 169.306 569 168.506C569.8 167.306 570.3 165.906 570.1 164.406C570.1 163.006 569.9 161.706 569.4 160.406C569.1 159.506 568.5 158.606 567.7 158.006C567 157.606 566.2 157.306 565.4 157.306C564.3 157.306 563.2 157.706 562.5 158.606C561.7 159.706 561.3 161.106 561.4 162.606ZM558.7 163.706C558.7 161.706 559.5 159.806 560.9 158.406C562.3 157.006 564.2 156.306 566.2 156.306C569.8 156.106 572.9 158.906 573.1 162.506C573.1 162.706 573.1 162.906 573.1 163.106C573 164.406 572.6 165.706 571.9 166.906C571.3 168.106 570.3 169.006 569.1 169.706C567.9 170.406 566.5 170.706 565.1 170.706C564.1 170.706 563.2 170.506 562.3 170.106C561.6 169.806 560.9 169.306 560.4 168.706C559.9 168.206 559.6 167.606 559.3 166.906C558.9 165.906 558.7 164.806 558.7 163.706Z"
    fill="#B10932"
  />
  <path
    d="M574.5 170.206V169.406H576.3C576.4 169.406 576.5 169.306 576.6 169.306C576.7 169.206 576.8 169.106 576.8 169.006C576.9 168.706 577 168.306 577 168.006C577 165.406 577 164.106 577 163.906V162.106C577 161.306 577 160.506 577 159.606C577 159.306 577 158.906 576.9 158.606C576.8 158.506 576.7 158.406 576.6 158.406C576 158.306 575.3 158.306 574.7 158.406V157.606C576.2 157.506 577.6 157.106 579 156.606L579.4 156.506C579.4 156.506 579.5 156.506 579.6 156.506C579.6 156.606 579.6 156.606 579.6 156.706C579.6 156.806 579.6 156.906 579.6 156.906C579.6 157.506 579.6 158.406 579.6 159.606C580 159.106 580.4 158.606 580.8 158.106C581.2 157.606 581.4 157.306 581.6 157.106C581.9 156.906 582.2 156.706 582.6 156.506C583 156.306 583.4 156.306 583.8 156.306C584.2 156.306 584.6 156.406 585 156.606V156.806C584.8 158.106 584.8 159.206 584.7 160.206H584C583.8 159.806 583.6 159.406 583.2 159.206C582.9 159.006 582.5 158.906 582.1 158.906C581.4 158.906 580.7 159.206 580.2 159.806C579.6 160.606 579.3 161.606 579.4 162.606V164.106C579.4 164.706 579.4 165.906 579.4 167.606C579.4 168.006 579.4 168.406 579.4 168.806C579.4 168.906 579.5 169.006 579.6 169.106C579.7 169.206 579.8 169.306 579.9 169.306C580.7 169.406 581.5 169.506 582.3 169.606V170.406C580.6 170.406 579.2 170.306 577.9 170.306C576.6 170.306 575.5 170.306 574.3 170.406"
    fill="#B10932"
  />
  <path
    d="M348.1 207.706V208.606H344.1H339.7V207.706C340.4 207.706 341.1 207.706 341.8 207.506C342 207.406 342.2 207.306 342.3 207.206C342.5 206.806 342.5 206.306 342.5 205.806C342.5 205.606 342.5 204.206 342.5 201.706V195.006C342.5 193.706 342.5 192.406 342.5 191.206C342.5 190.606 342.5 190.106 342.3 189.606C342.2 189.406 342 189.306 341.8 189.206C341.1 189.106 340.4 189.006 339.7 189.006V188.106C341.5 188.106 342.9 188.206 343.9 188.206C344.9 188.206 346.2 188.206 348.1 188.106V189.006C347.4 189.006 346.7 189.006 346 189.206C345.8 189.306 345.6 189.406 345.5 189.506C345.3 189.906 345.3 190.406 345.3 190.906C345.3 191.106 345.3 192.406 345.3 195.006V201.706C345.3 203.006 345.3 204.306 345.3 205.506C345.3 206.006 345.3 206.606 345.5 207.106C345.6 207.306 345.8 207.406 346 207.506C346.8 207.706 347.5 207.806 348.1 207.706Z"
    fill="#B10932"
  />
  <path
    d="M349.5 208.706V207.906H350.9C351.1 207.906 351.2 207.906 351.4 207.906C351.5 207.906 351.6 207.806 351.6 207.706C351.7 207.406 351.8 207.006 351.8 206.706C351.8 206.706 351.8 205.206 351.8 202.506V200.806C351.8 200.006 351.8 199.206 351.8 198.306C351.8 197.906 351.8 197.606 351.6 197.306C351.5 197.206 351.4 197.106 351.3 197.106C350.7 197.006 350 197.006 349.4 197.106V196.306C350.9 196.106 352.3 195.806 353.7 195.306C353.8 195.206 354 195.206 354.1 195.106C354.1 195.106 354.2 195.106 354.3 195.106C354.3 195.206 354.3 195.206 354.3 195.306C354.3 195.406 354.3 195.506 354.3 195.506C354.3 196.006 354.3 196.706 354.3 197.706L356.2 196.006C356.3 195.906 356.5 195.706 356.6 195.606C356.9 195.406 357.2 195.306 357.5 195.306C357.9 195.206 358.4 195.106 358.8 195.106C359.7 195.106 360.5 195.306 361.2 195.806C361.9 196.306 362.5 197.006 362.9 197.806L364.5 196.306C364.7 196.106 365 195.906 365.2 195.706C365.5 195.506 365.9 195.406 366.3 195.306C366.7 195.206 367.2 195.106 367.7 195.106C368.7 195.106 369.7 195.406 370.5 196.006C371.2 196.506 371.7 197.206 371.9 198.006C372.1 199.006 372.1 200.006 372.1 201.006V204.506C372.1 205.706 372.1 206.406 372.1 206.706C372.1 207.106 372.2 207.406 372.3 207.806C372.4 207.906 372.4 208.006 372.5 208.006C372.6 208.106 372.7 208.106 372.8 208.206H374.4V209.006H371.9H369.4V205.006V203.406V202.206C369.4 201.106 369.4 200.006 369.1 198.906C369 198.306 368.6 197.806 368.1 197.506C367.6 197.106 366.9 196.906 366.3 197.006C365.5 197.006 364.8 197.206 364.1 197.706C363.7 198.006 363.4 198.506 363.2 199.006C363 199.906 362.9 200.906 363 201.806V204.806C363 206.006 363 206.706 363 206.906C363 207.306 363.1 207.606 363.2 208.006L363.4 208.206C363.5 208.306 363.6 208.306 363.8 208.406H365.4V209.206C364 209.206 362.8 209.206 362 209.206H358.2V208.406H359.6C359.8 208.406 359.9 208.406 360.1 208.406C360.2 208.306 360.3 208.306 360.4 208.206C360.5 207.906 360.6 207.506 360.6 207.206C360.6 207.206 360.6 205.706 360.6 203.106V202.006C360.6 201.106 360.5 200.206 360.3 199.306C360.1 198.706 359.8 198.306 359.3 197.906C358.8 197.506 358.2 197.406 357.6 197.406C357 197.406 356.5 197.506 356 197.806C355.5 198.006 355.1 198.306 354.8 198.706C354.6 199.006 354.4 199.406 354.3 199.906C354.2 200.706 354.1 201.506 354.1 202.306V203.206C354.1 205.706 354.1 207.106 354.1 207.306C354.1 207.706 354.2 208.006 354.3 208.406L354.5 208.606C354.6 208.706 354.7 208.706 354.9 208.806H356.5V209.606C355.1 209.606 354 209.606 353.1 209.606C352.2 209.606 350.9 209.606 349.3 209.606"
    fill="#B10932"
  />
  <path
    d="M380.5 205.706C381 206.206 381.6 206.606 382.2 206.906C382.9 207.206 383.6 207.406 384.4 207.306C385.2 207.306 386.1 207.106 386.8 206.606C387.6 206.106 388.2 205.406 388.5 204.506C388.9 203.506 389.1 202.506 389.1 201.506C389.1 200.506 388.9 199.606 388.5 198.706C388.1 198.006 387.5 197.306 386.8 196.906C386.1 196.506 385.4 196.306 384.6 196.306C384 196.306 383.5 196.406 383 196.606C382.5 196.806 382 197.106 381.5 197.506C381.1 197.806 380.8 198.206 380.6 198.706C380.6 199.006 380.6 199.406 380.6 199.706L380.5 205.706ZM375.5 196.606V195.806H376.6C377.2 195.706 377.9 195.606 378.5 195.406C379 195.306 379.6 195.106 380 194.806C380.1 194.806 380.2 194.806 380.3 194.806C380.4 194.806 380.4 194.806 380.5 194.806C380.5 194.906 380.5 195.006 380.5 195.006C380.5 195.106 380.5 195.206 380.5 195.306C380.5 195.606 380.5 195.806 380.5 196.106V197.706C381.4 196.706 382.5 195.906 383.6 195.106C384.4 194.806 385.2 194.706 386 194.706C387.1 194.706 388.2 195.006 389.2 195.506C390.1 196.006 390.7 196.806 391.1 197.706C391.5 198.606 391.7 199.606 391.7 200.506C391.7 201.106 391.6 201.706 391.5 202.206C391.4 202.706 391.2 203.206 391 203.706C390.8 204.206 390.6 204.606 390.3 205.006C390.1 205.306 389.8 205.606 389.5 205.906C389.5 206.006 389 206.306 388.5 206.806C387.9 207.206 387.3 207.606 386.7 208.006C386.3 208.206 385.8 208.406 385.3 208.606C384.7 208.806 384.1 208.906 383.6 208.906C383.1 208.906 382.7 208.906 382.2 208.706C381.7 208.606 381.1 208.406 380.6 208.106V210.306C380.6 212.706 380.6 214.106 380.6 214.306C380.6 214.706 380.6 215.006 380.8 215.306C380.8 215.406 380.9 215.506 381 215.606C381.1 215.706 381.2 215.706 381.4 215.706C382 215.706 382.5 215.706 383.1 215.706V216.506C381.9 216.506 380.3 216.506 378.3 216.506C377.4 216.506 376.6 216.506 375.7 216.506V215.806H377.1C377.3 215.806 377.4 215.806 377.6 215.806C377.7 215.706 377.8 215.706 377.9 215.606C378 215.306 378.1 214.906 378.1 214.606C378.1 214.606 378.1 213.106 378.1 210.406V204.906C378.1 203.206 378.1 201.506 378.1 199.706C378.1 198.706 378.1 197.806 378.1 196.806C378.1 196.706 378 196.506 377.9 196.506C377.8 196.406 377.7 196.406 377.5 196.306L375.5 196.606Z"
    fill="#B10932"
  />
  <path
    d="M393.5 208.706V207.906H395.3C395.4 207.906 395.6 207.806 395.7 207.806C395.8 207.706 395.8 207.606 395.9 207.506C396 207.206 396.1 206.806 396.1 206.506C396.1 203.906 396.1 202.506 396.1 202.406V200.706C396.1 199.906 396.1 199.106 396.1 198.206C396.1 197.906 396.1 197.506 396 197.206C395.9 197.106 395.8 197.006 395.7 197.006C395.1 196.906 394.4 196.906 393.8 197.006V196.206C395.3 196.106 396.8 195.706 398.2 195.206C398.3 195.106 398.5 195.106 398.6 195.006C398.6 195.006 398.7 195.006 398.8 195.006C398.8 195.106 398.8 195.106 398.8 195.206V195.406C398.8 196.006 398.8 196.906 398.8 198.106L400 196.606C400.2 196.306 400.5 195.906 400.8 195.606C401.1 195.306 401.4 195.106 401.8 195.006C402.2 194.906 402.6 194.806 403 194.806C403.4 194.806 403.8 194.906 404.2 195.106V195.306C404 196.406 404 197.606 403.9 198.706H403.2C403 198.306 402.8 197.906 402.4 197.606C402.1 197.406 401.7 197.306 401.3 197.306C400.6 197.306 399.9 197.606 399.4 198.206C398.8 199.006 398.6 200.006 398.6 201.006V202.506C398.6 203.106 398.6 204.306 398.6 206.006C398.6 206.406 398.6 206.806 398.6 207.106C398.6 207.206 398.7 207.306 398.8 207.406C398.9 207.506 399 207.606 399.1 207.606C399.9 207.706 400.7 207.806 401.4 207.906V208.706C399.7 208.706 398.3 208.706 397 208.706C395.7 208.706 394.6 208.706 393.4 208.706"
    fill="#B10932"
  />
  <path
    d="M407.7 200.906C407.7 202.106 407.9 203.406 408.3 204.506C408.6 205.606 409.2 206.506 410 207.206C410.7 207.806 411.6 208.006 412.5 208.106C413.6 208.106 414.6 207.606 415.3 206.806C416.2 205.606 416.6 204.206 416.4 202.706C416.4 201.306 416.2 199.906 415.7 198.606C415.4 197.706 414.8 196.806 414 196.206C413.3 195.806 412.5 195.506 411.7 195.506C410.6 195.506 409.5 195.906 408.8 196.806C408 198.006 407.6 199.406 407.7 200.906ZM404.9 201.906C404.7 198.006 407.8 194.706 411.6 194.606C411.8 194.606 412 194.606 412.2 194.606C414 194.506 415.8 195.206 417.2 196.506C418.5 197.806 419.2 199.606 419.1 201.406C419.1 202.806 418.8 204.106 418.1 205.306C417.4 206.506 416.5 207.406 415.3 208.006C414.1 208.706 412.7 209.006 411.3 209.006C410.3 209.006 409.4 208.806 408.5 208.506C407.8 208.206 407.1 207.706 406.6 207.106C406.1 206.606 405.8 206.006 405.5 205.406C405.2 204.206 404.9 203.106 404.9 201.906Z"
    fill="#B10932"
  />
  <path
    d="M427.5 208.806C427.1 207.806 426.9 207.106 426.7 206.806L425.6 204.006L422.6 197.106C422.5 196.806 422.3 196.506 422.1 196.206C422 196.106 421.8 196.006 421.6 195.906C421.2 195.906 420.9 195.906 420.5 195.906V195.106C422.1 195.106 423.3 195.106 424 195.106C424.7 195.106 425.9 195.106 427.3 195.106V195.906C426.7 195.906 426.1 195.906 425.5 196.106C425.3 196.206 425.2 196.306 425.2 196.506C425.3 197.206 425.5 197.806 425.8 198.406L427.6 202.806L428 203.806C428.5 205.006 428.8 205.706 429 206.106L430.4 202.806C430.5 202.606 430.9 201.506 431.7 199.506C432.1 198.606 432.4 197.806 432.6 196.906C432.6 196.706 432.6 196.606 432.6 196.406C432.6 196.306 432.5 196.106 432.4 196.106C431.8 195.906 431.2 195.806 430.5 195.906V195.106H433.3H436.1V195.906C435.7 195.906 435.3 196.006 434.9 196.106C434.6 196.306 434.4 196.506 434.3 196.806C434.2 197.006 433.6 198.106 432.7 199.906L431.3 203.006C431.1 203.506 430.2 205.506 428.8 208.906L427.5 208.806Z"
    fill="#B10932"
  />
  <path
    d="M440.3 200.506C440.6 200.506 441.1 200.506 441.8 200.506H444.8C446.1 200.506 447 200.506 447.4 200.506V200.006C447.5 198.806 447.2 197.606 446.5 196.606C445.9 195.906 444.9 195.506 444 195.506C443 195.506 442 195.906 441.3 196.706C440.5 197.806 440.2 199.106 440.3 200.406M449.6 206.406L449.1 207.406C448.6 207.706 448.1 208.006 447.6 208.206C447.1 208.406 446.6 208.606 446.1 208.706C445.5 208.806 444.9 208.906 444.2 208.906C443 208.906 441.8 208.606 440.8 208.106C439.8 207.606 438.9 206.806 438.4 205.706C437.8 204.606 437.5 203.306 437.5 202.006C437.5 201.006 437.6 200.006 438 199.006C438.2 198.306 438.6 197.606 439 197.006C439.4 196.606 439.8 196.206 440.3 196.006C440.9 195.606 441.4 195.306 442.1 195.106C442.9 194.806 443.7 194.606 444.6 194.606C445.6 194.606 446.6 194.806 447.5 195.306C448.3 195.706 449 196.406 449.4 197.306C449.8 198.206 450 199.206 450 200.206C450 200.506 450 200.906 450 201.206C449.4 201.306 448.8 201.406 448.1 201.406C447.1 201.406 445.9 201.406 445 201.406H440.3C440.3 202.606 440.5 203.706 441 204.806C441.4 205.606 442.1 206.306 442.9 206.706C443.7 207.106 444.6 207.306 445.4 207.306C446 207.306 446.6 207.206 447.2 207.006C448 206.706 448.7 206.406 449.4 205.906L449.6 206.406Z"
    fill="#B10932"
  />
  <path
    d="M463.2 198.006C462.6 197.306 461.9 196.806 461.1 196.406C460.4 196.106 459.7 195.906 458.9 195.906C458.1 195.906 457.4 196.106 456.7 196.506C456 197.006 455.5 197.606 455.2 198.406C454.8 199.306 454.6 200.306 454.7 201.306C454.6 202.806 455.1 204.306 456 205.406C456.8 206.306 458 206.906 459.2 206.906C459.8 206.906 460.4 206.806 460.9 206.506C461.4 206.206 461.9 205.806 462.3 205.306C462.7 204.806 462.9 204.206 463 203.606C463.1 202.606 463.1 201.506 463.1 200.506L463.2 198.006ZM460.8 188.906V188.106C461.7 188.006 462.6 187.906 463.5 187.706C464.2 187.506 465 187.406 465.7 187.106L465.9 187.206C465.9 188.006 465.9 189.606 465.9 192.006V194.306V203.406C465.9 204.406 465.9 205.206 465.9 206.006C465.9 206.406 465.9 206.906 466.1 207.306C466.2 207.506 466.4 207.606 466.5 207.606C467.1 207.806 467.7 207.806 468.3 207.906V208.706H465.8H463.3C463.3 208.006 463.3 207.106 463.3 206.006C462.9 206.306 462.4 206.706 461.8 207.206C461.1 207.706 460.6 208.206 460.3 208.606C459.6 208.806 458.9 208.906 458.2 208.906C457.1 208.906 456.1 208.606 455.2 208.106C454.2 207.606 453.5 206.706 453 205.706C452.5 204.606 452.2 203.406 452.3 202.206C452.3 201.306 452.5 200.306 452.8 199.506C453 198.806 453.4 198.106 454 197.506C454.6 197.006 455.2 196.606 455.8 196.306C456.5 195.906 457.2 195.506 458 195.106C458.6 194.806 459.2 194.706 459.9 194.706C461.1 194.706 462.3 195.006 463.4 195.606V191.806C463.5 191.006 463.4 190.206 463.2 189.406C463.2 189.306 463.1 189.206 463 189.206C462.1 189.006 461.5 188.906 460.8 188.906Z"
    fill="#B10932"
  />
  <path
    d="M477.3 208.706V207.706C478 207.706 478.7 207.706 479.3 207.506C479.4 207.506 479.5 207.406 479.6 207.206C479.7 206.706 479.8 206.206 479.8 205.706C479.8 204.406 479.8 203.306 479.8 202.406V190.706C479.8 190.506 479.8 190.306 479.8 190.106C479.7 189.906 479.5 189.606 479.3 189.506C479.1 189.406 478.9 189.306 478.7 189.206C478.2 189.206 477.7 189.206 477.2 189.206V188.306L480.3 188.406C481 188.406 481.8 188.406 482.5 188.306L484.3 190.706L487.3 194.306L491.7 199.506L495 203.506C495.5 204.106 496 204.606 496.4 205.006V194.306C496.4 193.406 496.4 192.206 496.4 191.006C496.4 190.506 496.3 190.006 496.2 189.506C496.1 189.406 496 189.306 495.9 189.206C495.2 189.006 494.6 189.006 493.9 189.006V188.106C495.1 188.106 496.2 188.206 497.4 188.206C498.6 188.206 499.6 188.206 500.4 188.106V189.006C499.7 189.006 499 189.006 498.4 189.206C498.3 189.306 498.2 189.406 498.1 189.506C498 190.006 497.9 190.506 497.9 191.006C497.9 192.306 497.9 193.406 497.9 194.306V201.206C497.9 202.706 497.9 205.306 497.9 209.106L496.4 208.706H496.1H495.9C495.7 208.506 495.5 208.306 495.4 208.106C494.6 207.206 494 206.506 493.6 205.906L491.7 203.506L481.4 191.106V202.306C481.4 203.206 481.4 204.506 481.4 205.706C481.4 206.206 481.5 206.706 481.6 207.206C481.7 207.306 481.8 207.406 481.9 207.506C482.6 207.706 483.2 207.806 483.9 207.706V208.606C483.1 208.606 482.1 208.606 481.1 208.606C480.1 208.606 478.6 208.606 477.3 208.706Z"
    fill="#B10932"
  />
  <path
    d="M518.1 207.806V208.606C516.8 208.606 515.9 208.606 515.2 208.606C514.5 208.606 513.8 208.606 513 208.606C513 207.806 513 206.906 513 206.006C512.3 206.606 511.6 207.206 510.9 207.906C510.7 208.106 510.6 208.206 510.4 208.306C510 208.506 509.6 208.706 509.2 208.806C508.7 208.906 508.2 208.906 507.7 208.906C507 208.906 506.4 208.806 505.8 208.606C505.3 208.406 504.8 208.006 504.5 207.606C504.2 207.206 504 206.806 503.8 206.406C503.6 205.806 503.5 205.206 503.6 204.606C503.6 204.306 503.6 203.906 503.6 203.606C503.6 203.306 503.6 203.006 503.6 202.706V200.206C503.6 200.006 503.6 199.306 503.6 198.306C503.6 197.906 503.6 197.506 503.5 197.106C503.5 197.006 503.4 196.906 503.3 196.906C503.1 196.806 502.8 196.706 502.5 196.706H501.2V195.906C502.8 195.806 504.3 195.406 505.7 194.806C505.8 194.706 505.9 194.706 506.1 194.706C506.1 194.706 506.2 194.706 506.3 194.706C506.3 194.806 506.3 194.806 506.3 194.906V195.206C506.3 195.506 506.3 196.106 506.3 197.006C506.3 198.606 506.3 199.706 506.3 200.206V203.006C506.3 203.806 506.3 204.706 506.5 205.506C506.7 206.006 507 206.406 507.4 206.606C507.9 206.906 508.5 207.106 509.1 207.006C509.6 207.006 510 206.906 510.5 206.806C510.9 206.706 511.4 206.406 511.7 206.106C512 205.806 512.3 205.506 512.5 205.206C512.7 205.006 512.8 204.806 512.9 204.506C512.9 204.306 512.9 204.106 512.9 203.806C512.9 202.906 512.9 202.106 512.9 201.306V200.106C512.9 199.806 512.9 199.206 512.9 198.206C512.9 197.806 512.9 197.406 512.8 197.006C512.8 196.906 512.7 196.806 512.6 196.806C512.4 196.706 512.1 196.606 511.8 196.606H510.6V195.806C512.2 195.706 513.7 195.306 515.1 194.706C515.2 194.606 515.3 194.606 515.5 194.606C515.6 194.606 515.6 194.606 515.7 194.606C515.7 194.706 515.7 194.706 515.7 194.806C515.7 194.906 515.7 195.006 515.7 195.106C515.7 195.406 515.7 196.006 515.7 197.006C515.7 198.606 515.7 199.606 515.7 200.206V202.206V204.206C515.7 205.406 515.7 206.106 515.7 206.306C515.7 206.706 515.7 207.006 515.9 207.406C516 207.506 516 207.606 516.1 207.606C516.2 207.706 516.3 207.706 516.4 207.806H518"
    fill="#B10932"
  />
  <path
    d="M521.2 197.206H521.8V203.206C521.8 203.406 521.8 203.506 521.8 203.706C521.8 204.506 521.8 205.206 521.8 205.906C521.8 206.406 521.9 206.906 522.1 207.406C522.2 207.706 522.4 208.006 522.7 208.206C522.9 208.406 523.2 208.606 523.5 208.706C523.9 208.806 524.3 208.906 524.7 208.906C525.1 208.906 525.4 208.906 525.8 208.906C526.1 208.906 526.5 208.806 526.8 208.606L528.2 207.306L528 206.706C527.7 206.806 527.4 206.906 527.1 207.006H526.1C525.7 207.006 525.4 206.906 525 206.706C524.8 206.606 524.6 206.406 524.5 206.206C524.4 206.006 524.3 205.706 524.2 205.506C524.1 204.606 524.1 203.806 524.2 202.906V197.006H528L528.3 195.706H528.2C527.8 195.706 527.4 195.706 527.1 195.706H524.2C524.3 192.906 524.4 191.206 524.5 190.406L524.2 190.106C523.5 190.606 522.7 190.906 521.8 191.206V195.606C521.2 195.906 520.5 196.206 519.6 196.506V197.106C520.1 197.006 520.7 197.006 521.2 197.006"
    fill="#B10932"
  />
  <path
    d="M532.8 208.506C534 208.506 535.4 208.506 537.2 208.506V207.706C536.4 207.706 535.6 207.606 534.8 207.406C534.7 207.406 534.6 207.306 534.5 207.206C534.4 207.106 534.4 207.006 534.3 206.906C534.3 206.506 534.3 206.106 534.3 205.806C534.3 204.106 534.3 202.906 534.3 202.306V200.806C534.2 199.806 534.5 198.806 535.1 198.006C535.5 197.406 536.2 197.106 537 197.106C537.4 197.106 537.8 197.206 538.1 197.406C538.4 197.706 538.7 198.006 538.9 198.506H539.6C539.6 197.306 539.7 196.206 539.9 195.106V194.906C539.5 194.706 539.1 194.606 538.7 194.606C538.3 194.606 537.9 194.706 537.5 194.806C537.1 194.906 536.8 195.206 536.5 195.406C536.2 195.706 535.9 196.006 535.7 196.406C535.3 196.906 534.9 197.406 534.5 197.906C534.5 196.706 534.5 195.706 534.5 195.206C534.5 195.106 534.5 195.006 534.5 195.006C534.5 194.906 534.5 194.906 534.5 194.806C534.5 194.806 534.4 194.806 534.3 194.806C534.2 194.806 534 194.906 533.9 195.006C532.5 195.506 531 195.906 529.5 196.006V196.806C530.1 196.706 530.8 196.706 531.4 196.806C531.5 196.806 531.7 196.906 531.7 197.006C531.8 197.306 531.8 197.706 531.8 198.006C531.8 198.906 531.8 199.706 531.8 200.506V202.206C531.8 202.306 531.8 203.706 531.8 206.306C531.8 206.706 531.7 207.006 531.6 207.306C531.6 207.406 531.5 207.506 531.4 207.606C531.3 207.706 531.2 207.706 531 207.706H529.2V208.506C530.4 208.506 531.6 208.506 532.8 208.506Z"
    fill="#B10932"
  />
  <path
    d="M543.2 188.806C542.9 189.106 542.7 189.506 542.7 190.006C542.7 190.406 542.9 190.806 543.2 191.106C543.5 191.406 543.9 191.606 544.4 191.606C544.8 191.606 545.2 191.406 545.5 191.106C545.8 190.806 546 190.406 546 190.006C546 189.606 545.8 189.206 545.5 188.806C545.2 188.506 544.8 188.306 544.3 188.306C543.9 188.306 543.5 188.506 543.2 188.806ZM542.8 196.806C542.9 196.906 543.1 197.006 543.1 197.106C543.3 197.906 543.3 198.806 543.3 199.706V202.306C543.3 204.906 543.3 206.306 543.3 206.506C543.3 206.906 543.2 207.206 543.1 207.506C543 207.606 542.9 207.706 542.8 207.706C542.6 207.706 542.5 207.706 542.3 207.706H540.9V208.506C542.7 208.506 543.9 208.506 544.7 208.506C545.5 208.506 546.8 208.506 548.2 208.506V207.706H546.6C546.5 207.706 546.3 207.606 546.2 207.506C546.1 207.406 546.1 207.406 546 207.306C545.9 207.006 545.8 206.606 545.8 206.206C545.8 206.006 545.8 204.706 545.8 202.106V199.506C545.8 198.406 545.8 196.806 545.8 194.806L545.5 194.606C544 195.206 542.4 195.706 540.8 195.806V196.606C541.6 196.706 542.2 196.706 542.8 196.806Z"
    fill="#B10932"
  />
  <path
    d="M551.1 197.206H551.7V203.706C551.7 204.506 551.7 205.206 551.7 205.906C551.7 206.406 551.8 206.906 552 207.406C552.1 207.706 552.3 208.006 552.6 208.206C552.9 208.406 553.1 208.606 553.4 208.706C553.8 208.806 554.2 208.906 554.6 208.906C555 208.906 555.3 208.906 555.7 208.906C556.1 208.906 556.4 208.806 556.7 208.606L558 207.506L557.8 206.906C557.5 207.006 557.2 207.106 556.9 207.206H556C555.6 207.206 555.3 207.106 554.9 206.906C554.7 206.806 554.5 206.606 554.4 206.406C554.3 206.206 554.2 205.906 554.1 205.706C554 204.806 554 204.006 554.1 203.106V197.206H557.9L558.2 195.906C557.8 195.906 557.4 195.906 557.1 195.906H554.2C554.3 193.106 554.4 191.406 554.5 190.606L554.2 190.306C553.4 190.806 552.6 191.106 551.8 191.406V195.806C551.1 196.206 550.4 196.506 549.6 196.706V197.306C550.1 197.206 550.7 197.206 551.2 197.206"
    fill="#B10932"
  />
  <path
    d="M561.5 188.806C561.2 189.106 561 189.506 561 189.906C561 190.306 561.2 190.706 561.5 191.006C561.8 191.306 562.2 191.506 562.7 191.506C563.1 191.506 563.6 191.306 563.9 191.006C564.2 190.706 564.4 190.306 564.4 189.906C564.4 189.506 564.2 189.106 563.9 188.706C563.6 188.406 563.2 188.206 562.7 188.206C562.1 188.206 561.7 188.406 561.5 188.806ZM561 196.806C561.1 196.906 561.3 197.006 561.3 197.106C561.5 197.906 561.5 198.806 561.5 199.706V202.306C561.5 204.906 561.5 206.306 561.5 206.506C561.5 206.906 561.4 207.206 561.3 207.506C561.2 207.606 561.2 207.706 561.1 207.706C560.9 207.706 560.8 207.706 560.6 207.706H559.2V208.506C561 208.506 562.2 208.506 563 208.506C563.8 208.506 565.1 208.506 566.5 208.506V207.706H564.9C564.8 207.706 564.7 207.606 564.6 207.506C564.5 207.406 564.5 207.406 564.4 207.306C564.3 207.006 564.2 206.606 564.2 206.206C564.2 206.006 564.2 204.706 564.2 202.106V199.606C564.2 198.506 564.2 196.906 564.2 194.906L563.9 194.706C562.4 195.406 560.8 195.806 559.2 195.906V196.706C559.8 196.706 560.4 196.706 561 196.806Z"
    fill="#B10932"
  />
  <path
    d="M570.8 200.906C570.8 202.106 571 203.406 571.4 204.506C571.7 205.606 572.3 206.506 573.1 207.206C573.8 207.806 574.7 208.006 575.6 208.106C576.7 208.106 577.7 207.606 578.4 206.806C579.3 205.606 579.7 204.206 579.5 202.706C579.5 201.306 579.3 200.006 578.8 198.706C578.5 197.806 577.9 196.906 577.1 196.306C576.4 195.906 575.6 195.606 574.8 195.606C573.7 195.606 572.6 196.006 571.9 196.906C571 198.106 570.6 199.506 570.8 200.906ZM568 202.006C567.9 200.006 568.7 198.106 570.1 196.706C571.5 195.306 573.4 194.606 575.4 194.706C577.2 194.606 579 195.306 580.4 196.606C581.7 197.906 582.4 199.706 582.3 201.506C582.3 202.906 582 204.206 581.3 205.406C580.6 206.606 579.7 207.506 578.5 208.106C577.3 208.806 575.9 209.106 574.5 209.106C573.5 209.106 572.6 208.906 571.7 208.606C571 208.306 570.3 207.806 569.8 207.206C569.3 206.706 569 206.106 568.7 205.506C568.2 204.306 568 203.106 568 202.006Z"
    fill="#B10932"
  />
  <path
    d="M583.6 208.706V207.906H585C585.2 207.906 585.3 207.906 585.5 207.906C585.6 207.906 585.7 207.806 585.8 207.706C585.9 207.406 586 207.006 586 206.706C586 206.606 586 205.206 586 202.506V200.706C586 199.906 586 199.106 586 198.206C586 197.906 585.9 197.506 585.8 197.206C585.7 197.106 585.6 197.006 585.5 197.006C584.9 196.906 584.2 196.906 583.6 197.006V196.206C585.1 196.106 586.5 195.706 587.9 195.206C588 195.106 588.2 195.106 588.3 195.006C588.3 195.006 588.4 195.006 588.5 195.006C588.5 195.106 588.5 195.106 588.5 195.206V195.406C588.5 195.706 588.5 196.506 588.5 197.606L591.2 195.406C591.9 195.106 592.6 195.006 593.4 195.006C594.2 195.006 594.9 195.206 595.6 195.506C596.2 195.806 596.8 196.206 597.2 196.706C597.6 197.206 597.8 197.906 597.9 198.506C597.9 198.906 597.9 200.206 597.9 202.106V204.706C597.9 206.006 597.9 206.906 597.9 207.306C597.9 207.506 598 207.706 598.1 207.906C598.2 208.006 598.4 208.106 598.6 208.106H600.1V208.906C599.2 208.906 598.4 208.906 597.8 208.906C597.2 208.906 596.4 208.906 595.1 208.906C595.1 206.506 595.3 205.006 595.3 204.406V201.706C595.3 200.706 595.3 199.706 595.1 198.706C594.9 198.106 594.5 197.506 594 197.106C593.4 196.706 592.6 196.506 591.8 196.506C591.1 196.506 590.4 196.706 589.8 197.006C589.3 197.306 588.8 197.706 588.5 198.206C588.2 198.906 588.1 199.606 588.1 200.406V202.206C588.1 204.706 588.1 206.106 588.1 206.306C588.1 206.706 588.2 207.006 588.3 207.406C588.3 207.506 588.4 207.606 588.5 207.606C588.6 207.706 588.7 207.706 588.9 207.806H590.5V208.606C589.3 208.606 588.3 208.606 587.3 208.606C586.3 208.606 585.1 208.606 583.3 208.606"
    fill="#B10932"
  />
</svg>
