<svg
  width="601"
  height="156"
  viewBox="0 0 601 156"
  fill="none"
  xmlns="http://www.w3.org/2000/svg"
>
  <path
    d="M46.8 112.9C46.3 113.2 45.7 113.7 45.2 114.1L45.1 114.2C45 114.3 44.9 114.4 44.8 114.5C44.7 114.6 44.6 114.7 44.5 114.7C44.4 114.8 44.3 114.9 44.1 114.9C44 115 43.9 115.1 43.7 115.1C43.6 115.2 43.4 115.3 43.3 115.3C43.2 115.4 43 115.4 42.9 115.5C42.8 115.6 42.6 115.6 42.5 115.7C42.4 115.8 42.2 115.8 42.1 115.9C42 116 41.8 116 41.7 116.1C41.6 116.2 41.4 116.2 41.3 116.3C41.2 116.4 41 116.4 40.9 116.5C40.8 116.6 40.6 116.6 40.5 116.7C40.4 116.8 40.2 116.8 40.1 116.8C40 116.9 39.8 116.9 39.7 116.9C39.6 116.9 39.4 117 39.3 117C39.2 117 39 117.1 38.9 117.1C38.8 117.1 38.6 117.2 38.5 117.2C38.4 117.2 38.2 117.3 38.1 117.3C38 117.3 37.8 117.4 37.7 117.4C36 117.7 34.3 117.8 32.5 117.9H31.2C22.5 117.7 15.3 114.8 9.5 109.4C3.7 103.9 0.7 97 0.5 88.8V56.3C0.7 48 3.7 41.2 9.5 35.7C15.3 30.2 22.5 27.4 31.2 27.2H32.9C34.5 27.2 36.1 27.3 37.5 27.5L37.9 27.6C38 27.6 38.2 27.6 38.3 27.7C38.4 27.7 38.6 27.8 38.7 27.8C38.8 27.8 39 27.9 39.1 27.9C39.2 27.9 39.4 28 39.5 28C39.6 28 39.8 28.1 40 28.1C40.1 28.2 40.3 28.2 40.4 28.2C40.6 28.3 40.7 28.3 40.9 28.4C41.1 28.5 41.2 28.5 41.4 28.6C41.5 28.7 41.7 28.7 41.8 28.8C41.9 28.9 42.1 28.9 42.2 29C42.3 29.1 42.5 29.1 42.6 29.2C42.7 29.3 42.9 29.3 43 29.4C43.1 29.5 43.3 29.5 43.4 29.6C43.5 29.7 43.7 29.7 43.8 29.8L43.9 29.9L44.1 30L44.3 30.1L44.5 30.2L44.7 30.3L44.9 30.4L45 30.5L45.1 30.6L45.2 30.7L45.3 30.8L45.4 30.9L45.5 31L45.6 31.1L45.7 31.2L45.8 31.3L45.9 31.4L46 31.5L46.1 31.6C46.1 31.6 46.2 31.7 46.4 31.8C46.5 31.9 46.5 31.9 46.6 31.9C46.7 31.9 46.8 32 46.9 32C47 32 47.1 32 47.2 32C47.3 32 47.4 32 47.5 32C47.6 32 47.7 31.9 47.8 31.9C47.9 31.9 48 31.8 48.1 31.8C48.2 31.7 48.3 31.7 48.3 31.6C48.4 31.5 48.4 31.4 48.5 31.4C48.6 31.3 48.6 31.2 48.6 31.1C48.6 31 48.7 30.9 48.7 30.8C48.7 30.7 48.7 30.6 48.7 30.5C48.7 29.4 48.7 28 49.9 27.6C50.6 27.4 51.5 27.5 52.2 27.5H59.3H63.1C64.2 27.5 65.9 27.2 66.4 28.6C66.7 29.6 66.5 31.7 66.5 32.8V48V83.5V102.1C66.5 108.3 66.7 114.5 66.1 120.6C64.2 137.7 55.6 152.2 37.6 155.4C26.7 157.3 15.8 153.4 7.3 146.5C6.3 145.6 4.1 144.2 4.2 142.8C4.2 142.3 4.5 141.8 4.8 141.4C4.8 141.4 11.8 134 12.3 133.3C12.8 132.7 13.5 132 14.3 132C15.4 132 16.5 133 18.6 134.2C22 136.2 25.7 138 29.6 138.6C32.1 139 34.7 138.6 37.1 137.9C46.3 134.9 48.8 123.4 49.3 114.3V114.1C49.3 114 49.3 114 49.3 113.9C49.3 113.8 49.3 113.8 49.3 113.7C49.3 113.6 49.3 113.6 49.3 113.5C49.3 113.5 49.3 113.4 49.2 113.4C49.2 113.3 49.2 113.3 49.1 113.3C49.1 113.2 49 113.2 49 113.2L48.9 113.1L48.8 113L48.7 112.9L48.6 112.8L48.5 112.7C48.5 112.7 48.4 112.7 48.4 112.6C48.4 112.6 48.3 112.6 48.3 112.5H48.2C48.2 112.5 48.1 112.5 48 112.5C47.9 112.5 47.9 112.5 47.8 112.5C47.7 112.5 47.7 112.5 47.6 112.5C47.5 112.5 47.5 112.5 47.4 112.5C47.3 112.5 47.3 112.5 47.3 112.5C47.2 112.5 47.2 112.5 47.2 112.6C47.1 112.8 46.9 112.9 46.8 112.9ZM48.8 89.1V56.5C48.7 52.2 47.1 49.5 44.1 47C41.1 44.6 38.3 43.3 34 43.3H32.3C27.9 43.4 25 44.9 22 47.7C19 50.5 17.5 53.3 17.3 57.6V87.8C17.4 92 19 94.9 22 97.7C25 100.5 27.9 102 32.3 102.1H34C38.3 102 41.1 100.8 44.1 98.4C47.1 95.8 48.6 93.2 48.8 89.1Z"
    fill="#D20A10"
  />
  <path
    d="M190.4 116V104C190.4 103.3 190.2 102.8 189.9 102.5C189.5 102.2 189.1 102 188.5 102H155.7C154.9 102 154.3 101.9 154 101.6C153.7 101.3 153.5 101 153.5 100.5C153.5 100 153.7 99.4 153.9 99.1L189.9 31.2C190 31 190.1 30.8 190.2 30.5C190.3 30.2 190.3 30 190.3 29.8C190.3 28.8 189.5 28.2 188.1 28.2H129.1C127.7 28.2 127.1 28.8 127.1 30.2V42.1C127.1 43.5 127.7 44.1 129.1 44.1H159.9C160.6 44.1 161.2 44.2 161.5 44.5C161.9 44.8 162 45.2 162 45.7C162 45.9 162 46.1 161.9 46.4C161.8 46.7 161.7 46.9 161.6 47.1L125.2 115C125.1 115.2 125 115.4 124.9 115.7C124.8 116 124.8 116.2 124.8 116.4C124.8 117.4 125.6 118 127 118H188.4C189.1 118 189.6 117.8 189.9 117.5C190.2 117.2 190.4 116.7 190.4 116Z"
    fill="#D20A10"
  />
  <path
    d="M88.3999 16.6C88.4999 17.3 88.6999 17.8 88.9999 18.1C89.3999 18.5 89.9999 18.7 90.7999 18.7H103.2C104 18.7 104.6 18.5 105 18.1C105.3 17.8 105.6 17.3 105.6 16.6C105.6 16.6 105.6 16.3 105.6 16.2V2.39999C105.6 1.59999 105.4 1.00001 105 0.600006C104.6 0.200006 104 0 103.2 0H102.2C101.4 0 100.8 0.199994 100.1 0.899994L89.6999 12.5L89.1999 13.1C88.5999 13.8 88.3999 14.3 88.3999 15V16.2C88.3999 16.4 88.3999 16.6 88.3999 16.6Z"
    fill="#D20A10"
  />
  <path
    d="M105.5 30.2C105.5 29.5 105.3 29 105 28.6C104.7 28.2 104.1 28.1 103.4 28.1H90.4999C89.7999 28.1 89.1999 28.3 88.8999 28.7C88.5999 29.1 88.3999 29.6 88.3999 30.2V30.6V79.1V115.8C88.3999 116.5 88.5999 117 88.8999 117.4C89.1999 117.8 89.7999 117.9 90.4999 117.9H103.4C104.1 117.9 104.7 117.7 105 117.3C105.3 116.9 105.5 116.4 105.5 115.8V30.2Z"
    fill="#D20A10"
  />
  <path
    d="M600.1 97.6C600.1 97.2 600 96.9 599.7 96.7C599.4 96.5 599.2 96.4 598.9 96.4C598.6 96.4 598.3 96.5 598.1 96.7C597.8 96.9 597.7 97.2 597.7 97.6V105.9H590.2V97.6C590.2 97.2 590.1 96.9 589.8 96.7C589.5 96.5 589.3 96.4 589 96.4C588.7 96.4 588.4 96.5 588.2 96.7C587.9 96.9 587.8 97.2 587.8 97.6V117.3C587.8 117.7 587.9 118 588.2 118.2C588.5 118.4 588.7 118.5 589 118.5C589.3 118.5 589.6 118.4 589.8 118.2C590.1 118 590.2 117.7 590.2 117.3V108.3H597.7V117.3C597.7 117.7 597.8 118 598.1 118.2C598.4 118.4 598.6 118.5 598.9 118.5C599.2 118.5 599.5 118.4 599.7 118.2C600 118 600.1 117.7 600.1 117.3V97.6ZM579.6 113.5C579.6 114.2 579.3 114.9 578.8 115.4C578.3 115.9 577.6 116.2 576.9 116.2H576.6C575.9 116.2 575.3 116 574.7 115.5C574.2 115.1 573.9 114.4 573.9 113.7V107.9C573.9 107.2 574.2 106.6 574.7 106.1C575.2 105.7 575.9 105.4 576.6 105.4H576.9C577.7 105.4 578.3 105.7 578.8 106.2C579.3 106.7 579.6 107.4 579.6 108.1V113.5ZM582 108.1C582 107.4 581.9 106.8 581.6 106.1C581.3 105.5 581 104.9 580.5 104.5C580 104 579.5 103.7 578.9 103.4C578.3 103.1 577.6 103 576.9 103H576.7C576.2 103 575.6 103.1 575.1 103.3C574.6 103.5 574.2 103.7 573.9 104.1V97.7C573.9 97.3 573.8 97 573.5 96.8C573.2 96.6 573 96.5 572.7 96.5C572.4 96.5 572.1 96.6 571.9 96.8C571.6 97 571.5 97.3 571.5 97.7V117.5C571.5 117.9 571.6 118.2 571.9 118.3C572.2 118.5 572.4 118.6 572.7 118.6C573 118.6 573.2 118.5 573.5 118.4C573.7 118.2 573.9 118 573.9 117.7C574.1 117.9 574.5 118.1 574.9 118.3C575.4 118.5 575.9 118.6 576.6 118.6H576.9C577.6 118.6 578.3 118.5 578.9 118.2C579.5 117.9 580.1 117.6 580.5 117.1C581 116.6 581.3 116.1 581.6 115.5C581.9 114.9 582 114.2 582 113.5V108.1ZM565.7 108.1C565.7 107.2 565.6 106.5 565.3 105.8C565 105.2 564.7 104.6 564.2 104.2C563.7 103.8 563.2 103.5 562.6 103.3C562 103.1 561.3 103 560.7 103H560.4C559.6 103 558.9 103.2 558.2 103.5C557.5 103.8 557 104.3 556.5 104.8C556 104.3 555.4 103.8 554.8 103.5C554.1 103.2 553.4 103 552.6 103H552.3C551.8 103 551.2 103.1 550.8 103.3C550.3 103.5 549.9 103.7 549.6 104C549.5 103.7 549.4 103.5 549.2 103.3C549 103.1 548.7 103.1 548.5 103.1C548.2 103.1 547.9 103.2 547.6 103.4C547.3 103.6 547.2 103.9 547.2 104.3V117.5C547.2 117.9 547.3 118.2 547.6 118.4C547.9 118.6 548.1 118.7 548.4 118.7C548.7 118.7 549 118.6 549.2 118.4C549.5 118.2 549.6 117.9 549.6 117.5V108C549.6 107.3 549.9 106.7 550.4 106.2C550.9 105.8 551.6 105.5 552.3 105.5H552.6C553.4 105.5 554 105.8 554.5 106.3C555 106.8 555.3 107.5 555.3 108.3V117.5C555.3 117.9 555.4 118.2 555.7 118.4C556 118.6 556.2 118.7 556.5 118.7C556.8 118.7 557.1 118.6 557.3 118.4C557.6 118.2 557.7 117.9 557.7 117.5V108.3C557.7 107.5 558 106.9 558.5 106.4C559 105.9 559.7 105.6 560.4 105.6H560.7C561.5 105.6 562.1 105.8 562.6 106.3C563.1 106.7 563.3 107.4 563.3 108.3V117.6C563.3 118 563.4 118.3 563.7 118.5C564 118.7 564.2 118.8 564.5 118.8C564.8 118.8 565.1 118.7 565.3 118.5C565.6 118.3 565.7 118 565.7 117.6V108.1ZM541.4 107.7C541.4 107.4 541.3 107.1 541 106.9C540.8 106.7 540.5 106.5 540.2 106.5H535.7C535.3 106.5 535 106.6 534.8 106.9C534.6 107.2 534.5 107.4 534.5 107.7C534.5 108 534.6 108.3 534.8 108.5C535 108.8 535.3 108.9 535.7 108.9H539V112.6C539 113.1 538.9 113.6 538.7 114C538.5 114.4 538.3 114.8 537.9 115.1C537.6 115.4 537.2 115.7 536.8 115.9C536.4 116.1 535.9 116.2 535.4 116.2H535.1C534.6 116.2 534.1 116.1 533.7 115.9C533.3 115.7 532.9 115.5 532.6 115.1C532.3 114.8 532 114.4 531.8 114C531.6 113.6 531.5 113.1 531.5 112.6V102.4C531.5 101.9 531.6 101.5 531.8 101C532 100.6 532.2 100.2 532.6 99.9C532.9 99.6 533.3 99.3 533.7 99.1C534.1 98.9 534.6 98.8 535.1 98.8H535.4C536.4 98.8 537.2 99.1 537.8 99.7C538.4 100.3 538.8 101 539 101.9C539.1 102.3 539.2 102.5 539.4 102.7C539.6 102.9 539.9 102.9 540.2 102.9C540.5 102.9 540.8 102.8 541 102.6C541.3 102.4 541.4 102.1 541.4 101.7V101.5C541.3 100.8 541.1 100.1 540.7 99.5C540.4 98.9 539.9 98.3 539.4 97.9C538.9 97.4 538.3 97.1 537.6 96.8C536.9 96.5 536.2 96.4 535.4 96.4H535.1C534.3 96.4 533.5 96.6 532.8 96.9C532.1 97.2 531.4 97.6 530.9 98.2C530.4 98.7 529.9 99.4 529.6 100.1C529.3 100.8 529.1 101.6 529.1 102.4V112.6C529.1 113.4 529.3 114.2 529.6 114.9C529.9 115.6 530.3 116.3 530.9 116.8C531.4 117.3 532.1 117.8 532.8 118.1C533.5 118.4 534.3 118.6 535.1 118.6H535.4C536.2 118.6 537 118.5 537.7 118.1C538.4 117.8 539.1 117.4 539.6 116.8C540.1 116.3 540.6 115.6 540.9 114.9C541.2 114.2 541.4 113.4 541.4 112.6V107.7ZM516.5 104C516.3 102.7 515.9 101.4 515.5 100.2C515.1 99 514.6 98 514 97C513.4 96 512.8 95.2 512.1 94.6C511.8 94.3 511.6 94.2 511.3 94.2C511 94.2 510.8 94.3 510.5 94.5C510.2 94.8 510.1 95 510.1 95.3C510.1 95.6 510.2 95.8 510.4 96.1C510.9 96.6 511.5 97.3 512 98.1C512.5 98.9 512.9 99.8 513.3 100.9C513.7 101.9 514 103 514.2 104.3C514.4 105.5 514.5 106.8 514.5 108.1C514.5 109.4 514.4 110.7 514.2 111.9C514 113.1 513.7 114.2 513.3 115.3C512.9 116.3 512.5 117.3 512 118.1C511.5 118.9 511 119.6 510.4 120.1C510.2 120.3 510.1 120.6 510.1 120.9C510.1 121.2 510.2 121.5 510.5 121.7C510.8 122 511.1 122.1 511.4 122.1C511.7 122.1 511.9 122 512.2 121.7C512.9 121 513.5 120.3 514.1 119.3C514.7 118.3 515.2 117.3 515.6 116.1C516 114.9 516.4 113.7 516.6 112.3C516.9 110.9 517 109.5 517 108.1C516.8 106.7 516.7 105.4 516.5 104ZM505.6 116.4C505.4 116.1 505.1 116 504.7 116H496.8L505.7 98.8C505.8 98.5 505.9 98.3 505.9 98C505.9 97.6 505.8 97.3 505.5 97C505.2 96.7 504.9 96.6 504.5 96.6H495.5C495.1 96.6 494.8 96.7 494.6 97C494.4 97.3 494.3 97.5 494.3 97.8C494.3 98.1 494.4 98.4 494.6 98.6C494.8 98.9 495.1 99 495.5 99H503L494.1 116.1C494 116.3 493.9 116.6 493.9 116.9C493.9 117.3 494 117.7 494.3 118C494.5 118.3 494.9 118.5 495.3 118.5H504.8C505.2 118.5 505.5 118.4 505.7 118.1C505.9 117.8 506 117.6 506 117.3C505.9 116.9 505.8 116.6 505.6 116.4ZM488.2 97.6C488.2 97.2 488.1 96.9 487.8 96.7C487.5 96.5 487.3 96.4 487 96.4C486.7 96.4 486.4 96.5 486.2 96.7C485.9 96.9 485.8 97.2 485.8 97.6V117.3C485.8 117.7 485.9 118 486.2 118.2C486.5 118.4 486.7 118.5 487 118.5C487.3 118.5 487.6 118.4 487.8 118.2C488.1 118 488.2 117.7 488.2 117.3V97.6ZM479.4 107.7C479.4 107.4 479.3 107.1 479 106.9C478.8 106.7 478.5 106.5 478.2 106.5H473.7C473.3 106.5 473 106.6 472.8 106.9C472.6 107.2 472.5 107.4 472.5 107.7C472.5 108 472.6 108.3 472.8 108.5C473 108.8 473.3 108.9 473.7 108.9H477V112.6C477 113.1 476.9 113.6 476.7 114C476.5 114.4 476.3 114.8 475.9 115.1C475.6 115.4 475.2 115.7 474.8 115.9C474.4 116.1 473.9 116.2 473.4 116.2H473.1C472.6 116.2 472.1 116.1 471.7 115.9C471.3 115.7 470.9 115.5 470.6 115.1C470.3 114.8 470 114.4 469.8 114C469.6 113.6 469.5 113.1 469.5 112.6V102.4C469.5 101.9 469.6 101.5 469.8 101C470 100.6 470.2 100.2 470.6 99.9C470.9 99.6 471.3 99.3 471.7 99.1C472.1 98.9 472.6 98.8 473.1 98.8H473.4C474.4 98.8 475.2 99.1 475.8 99.7C476.4 100.3 476.8 101 476.9 101.9C477 102.3 477.1 102.5 477.3 102.7C477.5 102.9 477.8 102.9 478.1 102.9C478.4 102.9 478.7 102.8 478.9 102.6C479.2 102.4 479.3 102.1 479.3 101.7V101.5C479.2 100.8 479 100.1 478.6 99.5C478.3 98.9 477.8 98.3 477.3 97.9C476.8 97.4 476.2 97.1 475.5 96.8C474.8 96.5 474.1 96.4 473.3 96.4H473C472.2 96.4 471.4 96.6 470.7 96.9C470 97.2 469.3 97.6 468.8 98.2C468.3 98.7 467.8 99.4 467.5 100.1C467.2 100.8 467 101.6 467 102.4V112.6C467 113.4 467.2 114.2 467.5 114.9C467.8 115.6 468.2 116.3 468.8 116.8C469.3 117.3 470 117.8 470.7 118.1C471.4 118.4 472.2 118.6 473 118.6H473.3C474.1 118.6 474.9 118.5 475.6 118.1C476.3 117.8 477 117.4 477.5 116.8C478 116.3 478.5 115.6 478.8 114.9C479.1 114.2 479.3 113.4 479.3 112.6V107.7H479.4ZM461.5 118.1C461 117.3 460.5 116.4 460.2 115.3C459.8 114.3 459.5 113.2 459.3 111.9C459.1 110.7 459 109.4 459 108.1C459 106.8 459.1 105.5 459.3 104.3C459.5 103.1 459.8 102 460.2 100.9C460.6 99.9 461 98.9 461.5 98.1C462 97.3 462.5 96.6 463 96.1C463.2 95.9 463.3 95.6 463.3 95.3C463.3 95 463.2 94.7 462.9 94.5C462.6 94.3 462.3 94.2 462.1 94.2C461.8 94.2 461.5 94.3 461.3 94.6C460.6 95.3 460 96.1 459.5 97C458.9 98 458.4 99 458 100.2C457.6 101.4 457.2 102.6 457 103.9C456.7 105.2 456.6 106.6 456.6 108C456.6 109.4 456.7 110.8 457 112.2C457.3 113.6 457.6 114.8 458 116C458.4 117.2 458.9 118.2 459.5 119.2C460.1 120.1 460.7 120.9 461.4 121.6C461.7 121.9 461.9 122 462.2 122C462.5 122 462.8 121.9 463 121.6C463.3 121.4 463.4 121.1 463.4 120.8C463.4 120.5 463.3 120.3 463 120C462.5 119.6 462 118.9 461.5 118.1ZM443.7 116.6C443.5 116.4 443.2 116.2 442.9 116.2C442.4 116.2 442 116 441.6 115.7C441.2 115.4 441 115 441 114.4V105.5H442.7C443.1 105.5 443.4 105.4 443.6 105.1C443.8 104.8 443.9 104.6 443.9 104.3C443.9 104 443.8 103.7 443.6 103.5C443.4 103.2 443.1 103.1 442.7 103.1H441V97.6C441 97.2 440.9 96.9 440.6 96.7C440.3 96.5 440.1 96.4 439.8 96.4C439.5 96.4 439.2 96.5 439 96.7C438.7 96.9 438.6 97.2 438.6 97.6V103.1H437.5C437.1 103.1 436.8 103.2 436.6 103.5C436.4 103.8 436.3 104 436.3 104.3C436.3 104.6 436.4 104.9 436.6 105.1C436.8 105.4 437.1 105.5 437.5 105.5H438.6V114.4C438.6 115 438.7 115.5 438.9 116C439.1 116.5 439.4 116.9 439.8 117.3C440.2 117.7 440.6 118 441.1 118.2C441.6 118.4 442.1 118.5 442.7 118.5C443.1 118.5 443.4 118.4 443.6 118.1C443.8 117.9 443.9 117.6 443.9 117.3C444 117.1 443.9 116.8 443.7 116.6ZM431.3 104.2C431.3 103.8 431.2 103.5 430.9 103.3C430.6 103.1 430.4 103 430.1 103C429.8 103 429.5 103.1 429.3 103.3C429 103.5 428.9 103.8 428.9 104.2V117.4C428.9 117.8 429 118.1 429.3 118.3C429.6 118.5 429.8 118.6 430.1 118.6C430.4 118.6 430.7 118.5 430.9 118.3C431.2 118.1 431.3 117.8 431.3 117.4V104.2ZM431.3 97.6C431.3 97.2 431.2 96.9 430.9 96.7C430.6 96.5 430.4 96.4 430.1 96.4C429.8 96.4 429.5 96.5 429.3 96.7C429 96.9 428.9 97.2 428.9 97.6V98.3C428.9 98.7 429 99 429.3 99.2C429.6 99.4 429.8 99.5 430.1 99.5C430.4 99.5 430.7 99.4 430.9 99.2C431.2 99 431.3 98.7 431.3 98.3V97.6ZM421.2 109.7H415.5V108.1C415.5 107.3 415.8 106.7 416.3 106.2C416.8 105.7 417.5 105.4 418.2 105.4H418.5C419.2 105.4 419.8 105.7 420.3 106.2C420.8 106.7 421.1 107.4 421.1 108.2V109.7H421.2ZM423.5 108.1C423.5 107.4 423.4 106.7 423.1 106.1C422.8 105.5 422.5 104.9 422 104.5C421.5 104 421 103.7 420.4 103.4C419.8 103.1 419.1 103 418.4 103H418.1C417.4 103 416.8 103.1 416.1 103.4C415.5 103.7 414.9 104 414.5 104.5C414 105 413.7 105.5 413.4 106.1C413.1 106.7 413 107.4 413 108.1V113.5C413 114.2 413.1 114.9 413.4 115.5C413.7 116.1 414 116.6 414.5 117.1C415 117.6 415.5 117.9 416.1 118.2C416.7 118.5 417.4 118.6 418.1 118.6H418.4C419.5 118.6 420.4 118.3 421.2 117.8C422 117.2 422.6 116.5 423 115.6C423.1 115.5 423.1 115.3 423.1 115.1C423.1 114.7 423 114.4 422.7 114.2C422.4 114 422.2 113.9 421.8 113.9C421.6 113.9 421.4 114 421.2 114.1C421 114.2 420.9 114.4 420.8 114.7C420.6 115.1 420.3 115.5 419.9 115.8C419.5 116.1 419 116.3 418.4 116.3H418.1C417.4 116.3 416.7 116 416.2 115.5C415.7 115 415.4 114.4 415.4 113.6V112H422.3C422.6 112 422.9 111.9 423.2 111.6C423.4 111.4 423.5 111.1 423.5 110.8V108.1ZM405.5 113.5C405.5 114.2 405.2 114.9 404.7 115.4C404.2 115.9 403.5 116.2 402.8 116.2H402.5C401.8 116.2 401.2 116 400.6 115.5C400.1 115.1 399.8 114.4 399.8 113.7V107.9C399.8 107.2 400.1 106.6 400.6 106.1C401.1 105.7 401.8 105.4 402.5 105.4H402.8C403.6 105.4 404.2 105.7 404.7 106.2C405.2 106.7 405.5 107.4 405.5 108.1V113.5ZM407.9 108.1C407.9 107.4 407.8 106.8 407.5 106.1C407.2 105.5 406.9 104.9 406.4 104.5C405.9 104 405.4 103.7 404.8 103.4C404.2 103.1 403.5 103 402.8 103H402.6C402.1 103 401.5 103.1 401 103.3C400.5 103.5 400.1 103.7 399.8 104.1V97.7C399.8 97.3 399.7 97 399.4 96.8C399.1 96.6 398.9 96.5 398.6 96.5C398.3 96.5 398 96.6 397.8 96.8C397.5 97 397.4 97.3 397.4 97.7V117.5C397.4 117.9 397.5 118.2 397.8 118.3C398.1 118.5 398.3 118.6 398.6 118.6C398.9 118.6 399.1 118.5 399.4 118.4C399.6 118.2 399.8 118 399.8 117.7C400 117.9 400.4 118.1 400.8 118.3C401.3 118.5 401.8 118.6 402.5 118.6H402.8C403.5 118.6 404.1 118.5 404.8 118.2C405.4 117.9 406 117.6 406.4 117.1C406.9 116.6 407.2 116.1 407.5 115.5C407.8 114.9 407.9 114.2 407.9 113.5V108.1ZM392.3 104.6C391.9 104.1 391.4 103.7 390.8 103.4C390.2 103.1 389.6 103 389 103C388.6 103 388.2 103 388 103.1C387.7 103.2 387.5 103.2 387.3 103.3C387.1 103.4 386.9 103.5 386.8 103.6C386.7 103.4 386.5 103.2 386.4 103.1C386.2 103 386 103 385.8 103C385.5 103 385.2 103.1 385 103.3C384.7 103.5 384.6 103.8 384.6 104.2V117.3C384.6 117.7 384.7 118 385 118.2C385.3 118.4 385.5 118.5 385.8 118.5C386.1 118.5 386.4 118.4 386.6 118.2C386.9 118 387 117.7 387 117.3V107.5C387 107.2 387 107 387.1 106.7C387.1 106.4 387.2 106.2 387.4 106C387.5 105.8 387.8 105.6 388 105.5C388.3 105.4 388.7 105.3 389.1 105.3C389.5 105.3 389.8 105.4 390 105.5C390.2 105.7 390.4 105.8 390.5 105.9C390.8 106.2 391.1 106.3 391.5 106.3C391.8 106.3 392.1 106.2 392.3 106C392.5 105.8 392.6 105.5 392.6 105.2C392.6 105.1 392.5 104.9 392.3 104.6ZM375.6 113.5C375.6 114.3 375.3 114.9 374.8 115.4C374.3 115.9 373.6 116.2 372.9 116.2H372.6C371.8 116.2 371.2 116 370.7 115.6C370.2 115.2 370 114.7 370 114V113.7C370 113.2 370.2 112.7 370.6 112.4C371 112.1 371.4 111.9 372 111.7C372.6 111.5 373.2 111.4 373.8 111.3C374.5 111.2 375.1 111.1 375.7 110.9V113.5H375.6ZM379.5 116.6C379.3 116.4 379.1 116.2 378.7 116.2C378.2 116.1 377.9 115.7 377.9 115.2V107.9C377.9 107.2 377.8 106.6 377.5 106C377.2 105.4 376.9 104.9 376.5 104.5C376.1 104.1 375.5 103.7 374.9 103.5C374.3 103.2 373.6 103.1 372.9 103.1H372.7C372.3 103.1 371.8 103.2 371.4 103.2C371 103.3 370.5 103.5 370.1 103.7C369.7 103.9 369.3 104.2 368.9 104.6C368.5 105 368.2 105.5 368 106C367.9 106.1 367.9 106.3 367.9 106.6C367.9 106.9 368 107.2 368.3 107.4C368.6 107.6 368.8 107.7 369.1 107.7C369.3 107.7 369.5 107.6 369.7 107.6C369.9 107.5 370 107.3 370.2 107.1C370.5 106.6 370.8 106.2 371.2 105.9C371.6 105.6 372.1 105.5 372.7 105.5H372.9C373.6 105.5 374.2 105.7 374.7 106.1C375.2 106.5 375.5 107.1 375.5 108.1C375.5 108.2 375.5 108.3 375.5 108.4C375.5 108.5 375.5 108.6 375.4 108.7C375.3 108.9 375 109 374.5 109.1C374 109.2 373.5 109.3 372.9 109.4C372.3 109.5 371.7 109.6 371 109.8C370.3 110 369.7 110.2 369.2 110.5C368.7 110.8 368.2 111.3 367.8 111.8C367.4 112.3 367.3 113 367.3 113.8V114.2C367.3 114.9 367.4 115.6 367.7 116.1C368 116.7 368.4 117.1 368.9 117.5C369.4 117.9 369.9 118.2 370.5 118.4C371.1 118.6 371.7 118.7 372.4 118.7H372.7C374 118.7 375.2 118.3 376.1 117.5C376.3 117.8 376.6 118 376.9 118.3C377.2 118.6 377.7 118.7 378.2 118.7C378.2 118.7 378.3 118.7 378.4 118.7C378.8 118.7 379.1 118.6 379.3 118.3C379.5 118.1 379.6 117.8 379.6 117.5C379.8 117.1 379.7 116.9 379.5 116.6ZM362.6 108.1C362.6 107.2 362.5 106.5 362.2 105.9C361.9 105.3 361.6 104.7 361.1 104.3C360.6 103.9 360.1 103.6 359.5 103.4C358.9 103.2 358.2 103.1 357.6 103.1H357.3C356.8 103.1 356.2 103.2 355.8 103.4C355.3 103.6 354.9 103.8 354.6 104.1C354.5 103.8 354.4 103.6 354.2 103.4C354 103.2 353.7 103.2 353.4 103.2C353.1 103.2 352.8 103.3 352.5 103.5C352.2 103.7 352.1 104 352.1 104.4V117.6C352.1 118 352.2 118.3 352.5 118.5C352.8 118.7 353 118.8 353.3 118.8C353.6 118.8 353.9 118.7 354.1 118.5C354.4 118.3 354.5 118 354.5 117.6V108.3C354.5 107.5 354.8 106.9 355.3 106.4C355.8 105.9 356.5 105.6 357.2 105.6H357.5C358.3 105.6 358.9 105.9 359.4 106.4C359.9 106.9 360.2 107.6 360.2 108.3V117.6C360.2 118 360.3 118.3 360.6 118.5C360.9 118.7 361.1 118.8 361.4 118.8C361.7 118.8 362 118.7 362.2 118.5C362.4 118.3 362.6 118 362.6 117.6V108.1ZM344.6 109.7H338.9V108.1C338.9 107.3 339.2 106.7 339.7 106.2C340.2 105.7 340.9 105.4 341.6 105.4H341.9C342.6 105.4 343.2 105.7 343.7 106.2C344.2 106.7 344.5 107.4 344.5 108.2V109.7H344.6ZM346.9 108.1C346.9 107.4 346.8 106.7 346.5 106.1C346.2 105.5 345.9 104.9 345.4 104.5C344.9 104 344.4 103.7 343.8 103.4C343.2 103.1 342.5 103 341.8 103H341.5C340.8 103 340.1 103.1 339.5 103.4C338.9 103.7 338.3 104 337.9 104.5C337.4 105 337.1 105.5 336.8 106.1C336.5 106.7 336.4 107.4 336.4 108.1V113.5C336.4 114.2 336.5 114.9 336.8 115.5C337.1 116.1 337.4 116.6 337.9 117.1C338.4 117.6 338.9 117.9 339.5 118.2C340.1 118.5 340.8 118.6 341.5 118.6H341.8C342.9 118.6 343.8 118.3 344.6 117.8C345.4 117.2 346 116.5 346.4 115.6C346.5 115.5 346.5 115.3 346.5 115.1C346.5 114.7 346.4 114.4 346.1 114.2C345.8 114 345.6 113.9 345.3 113.9C345.1 113.9 344.9 114 344.7 114.1C344.5 114.2 344.4 114.4 344.3 114.7C344.1 115.1 343.8 115.5 343.4 115.8C343 116.1 342.5 116.3 341.9 116.3H341.6C340.9 116.3 340.2 116 339.7 115.5C339.2 115 338.9 114.4 338.9 113.6V112H345.8C346.1 112 346.4 111.9 346.7 111.6C346.9 111.4 347 111.1 347 110.8V108.1H346.9ZM331.2 108.1C331.2 107.2 331.1 106.5 330.8 105.8C330.5 105.2 330.1 104.6 329.7 104.2C329.2 103.8 328.7 103.5 328.1 103.3C327.5 103.1 326.9 103 326.2 103H325.9C325.1 103 324.4 103.2 323.7 103.5C323 103.8 322.5 104.3 322 104.8C321.5 104.3 320.9 103.8 320.3 103.5C319.6 103.2 318.9 103 318.1 103H317.8C317.3 103 316.7 103.1 316.3 103.3C315.8 103.5 315.4 103.7 315.1 104C315 103.7 314.9 103.5 314.7 103.3C314.5 103.1 314.2 103.1 314 103.1C313.7 103.1 313.4 103.2 313.1 103.4C312.8 103.6 312.7 103.9 312.7 104.3V117.5C312.7 117.9 312.8 118.2 313.1 118.4C313.4 118.6 313.6 118.7 313.9 118.7C314.2 118.7 314.5 118.6 314.7 118.4C315 118.2 315.1 117.9 315.1 117.5V108C315.1 107.3 315.4 106.7 315.9 106.2C316.4 105.8 317.1 105.5 317.8 105.5H318.1C318.9 105.5 319.5 105.8 320 106.3C320.5 106.8 320.8 107.5 320.8 108.3V117.5C320.8 117.9 320.9 118.2 321.2 118.4C321.5 118.6 321.7 118.7 322 118.7C322.3 118.7 322.6 118.6 322.8 118.4C323.1 118.2 323.2 117.9 323.2 117.5V108.3C323.2 107.5 323.5 106.9 324 106.4C324.5 105.9 325.2 105.6 325.9 105.6H326.2C327 105.6 327.6 105.8 328.1 106.3C328.6 106.7 328.8 107.4 328.8 108.3V117.6C328.8 118 328.9 118.3 329.2 118.5C329.5 118.7 329.7 118.8 330 118.8C330.3 118.8 330.6 118.7 330.8 118.5C331.1 118.3 331.2 118 331.2 117.6V108.1ZM307.1 108.1C307.1 107.2 307 106.5 306.7 105.8C306.4 105.2 306.1 104.6 305.6 104.2C305.1 103.8 304.6 103.5 304 103.3C303.4 103.1 302.8 103 302.1 103H301.8C301 103 300.3 103.2 299.6 103.5C298.9 103.8 298.4 104.3 297.9 104.8C297.4 104.3 296.8 103.8 296.2 103.5C295.5 103.2 294.8 103 294 103H293.7C293.2 103 292.6 103.1 292.2 103.3C291.7 103.5 291.3 103.7 291 104C290.9 103.7 290.8 103.5 290.6 103.3C290.4 103.1 290.1 103.1 289.9 103.1C289.6 103.1 289.3 103.2 289 103.4C288.7 103.6 288.6 103.9 288.6 104.3V117.5C288.6 117.9 288.7 118.2 289 118.4C289.3 118.6 289.5 118.7 289.8 118.7C290.1 118.7 290.4 118.6 290.6 118.4C290.9 118.2 291 117.9 291 117.5V108C291 107.3 291.3 106.7 291.8 106.2C292.3 105.8 293 105.5 293.7 105.5H294C294.8 105.5 295.4 105.8 295.9 106.3C296.4 106.8 296.7 107.5 296.7 108.3V117.5C296.7 117.9 296.8 118.2 297.1 118.4C297.4 118.6 297.6 118.7 297.9 118.7C298.2 118.7 298.5 118.6 298.7 118.4C299 118.2 299.1 117.9 299.1 117.5V108.3C299.1 107.5 299.4 106.9 299.9 106.4C300.4 105.9 301.1 105.6 301.8 105.6H302.1C302.9 105.6 303.5 105.8 304 106.3C304.5 106.7 304.7 107.4 304.7 108.3V117.6C304.7 118 304.8 118.3 305.1 118.5C305.4 118.7 305.6 118.8 305.9 118.8C306.2 118.8 306.5 118.7 306.7 118.5C307 118.3 307.1 118 307.1 117.6V108.1ZM279.5 113.5C279.5 114.3 279.2 114.9 278.7 115.4C278.2 115.9 277.5 116.2 276.8 116.2H276.5C275.7 116.2 275.1 116 274.6 115.6C274.1 115.2 273.9 114.7 273.9 114V113.7C273.9 113.2 274.1 112.7 274.5 112.4C274.9 112.1 275.3 111.9 275.9 111.7C276.5 111.5 277.1 111.4 277.7 111.3C278.4 111.2 279 111.1 279.6 110.9V113.5H279.5ZM283.5 116.6C283.3 116.4 283.1 116.2 282.7 116.2C282.2 116.1 281.9 115.7 281.9 115.2V107.9C281.9 107.2 281.8 106.6 281.5 106C281.2 105.4 280.9 104.9 280.5 104.5C280.1 104.1 279.5 103.7 278.9 103.5C278.3 103.2 277.6 103.1 276.9 103.1H276.7C276.3 103.1 275.8 103.2 275.4 103.2C275 103.3 274.5 103.5 274.1 103.7C273.7 103.9 273.3 104.2 272.9 104.6C272.5 105 272.2 105.5 272 106C271.9 106.1 271.9 106.3 271.9 106.6C271.9 106.9 272 107.2 272.3 107.4C272.6 107.6 272.8 107.7 273.1 107.7C273.3 107.7 273.5 107.6 273.7 107.6C273.9 107.5 274 107.3 274.2 107.1C274.5 106.6 274.8 106.2 275.2 105.9C275.6 105.6 276.1 105.5 276.7 105.5H276.9C277.6 105.5 278.2 105.7 278.7 106.1C279.2 106.5 279.5 107.1 279.5 108.1C279.5 108.2 279.5 108.3 279.5 108.4C279.5 108.5 279.5 108.6 279.4 108.7C279.3 108.9 279 109 278.5 109.1C278 109.2 277.5 109.3 276.9 109.4C276.3 109.5 275.7 109.6 275 109.8C274.3 110 273.7 110.2 273.2 110.5C272.7 110.8 272.2 111.3 271.8 111.8C271.4 112.3 271.3 113 271.3 113.8V114.2C271.3 114.9 271.4 115.6 271.7 116.1C272 116.7 272.4 117.1 272.9 117.5C273.4 117.9 273.9 118.2 274.5 118.4C275.1 118.6 275.7 118.7 276.4 118.7H276.7C278 118.7 279.2 118.3 280.1 117.5C280.3 117.8 280.6 118 280.9 118.3C281.2 118.6 281.7 118.7 282.2 118.7C282.2 118.7 282.3 118.7 282.4 118.7C282.8 118.7 283.1 118.6 283.3 118.3C283.5 118.1 283.6 117.8 283.6 117.5C283.7 117.1 283.6 116.9 283.5 116.6ZM266.9 114C266.9 113 266.7 112.2 266.3 111.6C265.9 111 265.4 110.6 264.8 110.2C264.2 109.9 263.5 109.6 262.8 109.5C262.1 109.3 261.4 109.2 260.8 109C260.2 108.8 259.7 108.6 259.3 108.4C258.9 108.1 258.7 107.7 258.7 107.2V107.1C258.7 106.6 259 106.2 259.4 105.9C259.9 105.6 260.5 105.4 261.4 105.4H261.5C262.2 105.4 262.8 105.5 263.2 105.7C263.6 105.9 264 106.1 264.3 106.3C264.6 106.4 264.8 106.5 265 106.5C265.3 106.5 265.6 106.4 265.8 106.2C266 106 266.1 105.7 266.1 105.4C266.1 105 266 104.7 265.7 104.5C265.6 104.4 265.4 104.3 265.2 104.1C265 103.9 264.7 103.8 264.3 103.7C264 103.6 263.6 103.4 263.1 103.3C262.6 103.2 262.1 103.1 261.6 103.1H261.5C261 103.1 260.4 103.2 259.8 103.3C259.2 103.4 258.6 103.7 258.1 104C257.6 104.3 257.2 104.7 256.8 105.2C256.4 105.7 256.3 106.3 256.3 107.1C256.3 108.1 256.5 108.8 256.9 109.4C257.3 109.9 257.8 110.3 258.4 110.6C259 110.9 259.6 111.1 260.4 111.2C261.1 111.3 261.8 111.5 262.4 111.7C263 111.9 263.5 112.1 263.9 112.5C264.3 112.8 264.5 113.3 264.5 114V114.1C264.5 114.6 264.2 115.1 263.7 115.5C263.2 115.9 262.4 116.2 261.5 116.2H261.3C260.7 116.2 260.1 116 259.5 115.6C258.9 115.2 258.4 114.7 258 114.2C257.9 114 257.7 113.9 257.5 113.8C257.3 113.7 257.1 113.7 256.9 113.7C256.6 113.7 256.3 113.8 256 114C255.7 114.2 255.6 114.5 255.6 114.9C255.6 115 255.7 115.2 255.8 115.5C256.1 116 256.4 116.4 256.8 116.8C257.2 117.2 257.6 117.5 258.1 117.8C258.6 118.1 259.1 118.3 259.6 118.4C260.1 118.5 260.7 118.6 261.2 118.6H261.4C262.1 118.6 262.7 118.5 263.4 118.3C264.1 118.1 264.6 117.8 265.2 117.5C265.7 117.1 266.1 116.7 266.5 116.1C266.8 115.6 267 114.9 267 114.2V114H266.9ZM250.7 104.2C250.7 103.8 250.6 103.5 250.3 103.3C250 103.1 249.8 103 249.5 103C249.2 103 248.9 103.1 248.7 103.3C248.4 103.5 248.3 103.8 248.3 104.2V113.5C248.3 114.2 248 114.9 247.5 115.4C247 115.9 246.3 116.2 245.6 116.2H245.3C244.6 116.2 243.9 115.9 243.4 115.4C242.9 114.9 242.6 114.3 242.6 113.5V104.2C242.6 103.8 242.5 103.5 242.2 103.3C241.9 103.1 241.7 103 241.4 103C241.1 103 240.8 103.1 240.6 103.3C240.3 103.5 240.2 103.8 240.2 104.2V113.5C240.2 114.4 240.3 115.1 240.6 115.8C240.9 116.4 241.2 116.9 241.7 117.4C242.2 117.8 242.7 118.1 243.3 118.3C243.9 118.5 244.6 118.6 245.2 118.6H245.5C246 118.6 246.6 118.5 247 118.4C247.5 118.2 247.9 118 248.2 117.7C248.3 118 248.4 118.2 248.6 118.4C248.8 118.5 249.1 118.6 249.4 118.6C249.7 118.6 250 118.5 250.2 118.3C250.5 118.1 250.6 117.8 250.6 117.4V104.2H250.7ZM235.3 116.4C235.1 116.1 234.8 116 234.4 116H226.5L235.4 98.8C235.5 98.5 235.6 98.3 235.6 98C235.6 97.6 235.5 97.3 235.2 97C234.9 96.7 234.6 96.6 234.2 96.6H225.2C224.8 96.6 224.5 96.7 224.3 97C224.1 97.3 224 97.5 224 97.8C224 98.1 224.1 98.4 224.3 98.6C224.5 98.9 224.8 99 225.2 99H232.7L223.8 116.1C223.7 116.3 223.6 116.6 223.6 116.9C223.6 117.3 223.7 117.7 224 118C224.2 118.3 224.6 118.5 225 118.5H234.5C234.9 118.5 235.2 118.4 235.4 118.1C235.6 117.8 235.7 117.6 235.7 117.3C235.6 116.9 235.5 116.6 235.3 116.4Z"
    fill="#D20A10"
  />
  <path
    d="M455.6 75.3H449.9V73.7C449.9 72.9 450.2 72.3 450.7 71.8C451.2 71.3 451.9 71 452.6 71H452.9C453.6 71 454.2 71.3 454.7 71.8C455.2 72.3 455.5 73 455.5 73.7V75.3H455.6ZM458 73.7C458 73 457.9 72.3 457.6 71.7C457.3 71.1 457 70.5 456.5 70.1C456 69.6 455.5 69.3 454.9 69C454.3 68.7 453.6 68.6 452.9 68.6H452.6C451.9 68.6 451.2 68.7 450.6 69C450 69.3 449.4 69.6 449 70.1C448.5 70.6 448.2 71.1 447.9 71.7C447.6 72.3 447.5 73 447.5 73.7V79.1C447.5 79.8 447.6 80.5 447.9 81.1C448.2 81.7 448.5 82.2 449 82.7C449.5 83.2 450 83.5 450.6 83.8C451.2 84.1 451.9 84.2 452.6 84.2H452.9C454 84.2 454.9 83.9 455.7 83.4C456.5 82.8 457.1 82.1 457.5 81.2C457.6 81.1 457.6 80.9 457.6 80.7C457.6 80.3 457.5 80 457.2 79.8C456.9 79.6 456.7 79.5 456.3 79.5C456.1 79.5 455.9 79.6 455.7 79.7C455.5 79.8 455.4 80 455.3 80.3C455.1 80.7 454.8 81.1 454.4 81.4C454 81.7 453.5 81.9 452.9 81.9H452.6C451.9 81.9 451.2 81.6 450.7 81.1C450.2 80.6 449.9 80 449.9 79.2V77.6H456.8C457.1 77.6 457.4 77.5 457.7 77.2C457.9 77 458 76.7 458 76.4V73.7ZM442.9 82.1C442.7 81.8 442.4 81.7 442 81.7C441.5 81.7 441.1 81.5 440.8 81.2C440.5 80.9 440.3 80.5 440.3 80V63.2C440.3 62.8 440.2 62.5 439.9 62.3C439.6 62.1 439.4 62 439.1 62C438.8 62 438.5 62.1 438.3 62.3C438 62.5 437.9 62.8 437.9 63.2V80C437.9 80.6 438 81.1 438.2 81.6C438.4 82.1 438.7 82.5 439.1 82.9C439.5 83.3 439.9 83.6 440.4 83.8C440.9 84 441.4 84.1 442 84.1C442.4 84.1 442.7 84 442.9 83.7C443.1 83.5 443.2 83.2 443.2 82.9C443.2 82.7 443.1 82.4 442.9 82.1ZM428.9 79.1C428.9 79.9 428.6 80.5 428.1 81C427.6 81.5 426.9 81.8 426.2 81.8H425.9C425.1 81.8 424.5 81.6 424 81.2C423.5 80.8 423.3 80.3 423.3 79.6V79.3C423.3 78.8 423.5 78.3 423.8 78C424.2 77.7 424.6 77.5 425.2 77.3C425.8 77.1 426.4 77 427 76.9C427.7 76.8 428.3 76.7 428.9 76.5V79.1ZM432.9 82.2C432.7 82 432.5 81.8 432.1 81.8C431.6 81.7 431.3 81.3 431.3 80.8V73.5C431.3 72.8 431.2 72.2 430.9 71.6C430.6 71 430.3 70.5 429.9 70.1C429.5 69.7 428.9 69.3 428.3 69.1C427.7 68.8 427 68.7 426.3 68.7H426.1C425.7 68.7 425.2 68.8 424.8 68.8C424.4 68.9 423.9 69.1 423.5 69.3C423.1 69.5 422.7 69.8 422.3 70.2C421.9 70.6 421.6 71.1 421.4 71.6C421.3 71.7 421.3 71.9 421.3 72.2C421.3 72.5 421.4 72.8 421.7 73C422 73.2 422.2 73.3 422.5 73.3C422.7 73.3 422.9 73.3 423.1 73.2C423.3 73.1 423.4 72.9 423.6 72.7C423.9 72.2 424.2 71.8 424.6 71.5C425 71.2 425.5 71.1 426.1 71.1H426.3C427 71.1 427.6 71.3 428.1 71.7C428.6 72.1 428.9 72.7 428.9 73.7C428.9 73.8 428.9 73.9 428.9 74C428.9 74.1 428.9 74.2 428.8 74.3C428.7 74.5 428.4 74.6 427.9 74.7C427.4 74.8 426.9 74.9 426.3 75C425.7 75.1 425.1 75.2 424.4 75.4C423.7 75.6 423.2 75.8 422.6 76.1C422.1 76.4 421.6 76.9 421.2 77.4C420.8 77.9 420.7 78.6 420.7 79.4V79.8C420.7 80.5 420.8 81.2 421.1 81.8C421.4 82.4 421.8 82.8 422.2 83.2C422.7 83.6 423.2 83.9 423.8 84.1C424.4 84.3 425 84.4 425.7 84.4H426C427.3 84.4 428.4 84 429.4 83.2C429.6 83.5 429.9 83.7 430.2 84C430.5 84.2 431 84.4 431.5 84.4C431.5 84.4 431.6 84.4 431.7 84.4C432.1 84.4 432.4 84.3 432.6 84C432.8 83.8 432.9 83.5 432.9 83.2C433.1 82.7 433 82.5 432.9 82.2ZM415.9 73.7C415.9 72.8 415.8 72.1 415.5 71.5C415.2 70.9 414.9 70.3 414.4 69.9C413.9 69.5 413.4 69.2 412.8 69C412.2 68.8 411.6 68.7 410.9 68.7H410.6C410.1 68.7 409.5 68.8 409.1 69C408.6 69.2 408.2 69.4 407.9 69.7C407.8 69.4 407.7 69.2 407.5 69C407.3 68.8 407 68.8 406.7 68.8C406.4 68.8 406.1 68.9 405.8 69.1C405.5 69.3 405.4 69.6 405.4 70V83C405.4 83.4 405.5 83.7 405.8 83.9C406.1 84.1 406.3 84.2 406.6 84.2C406.9 84.2 407.2 84.1 407.4 83.9C407.7 83.7 407.8 83.4 407.8 83V73.7C407.8 72.9 408.1 72.3 408.6 71.8C409.1 71.3 409.8 71 410.5 71H410.8C411.5 71 412.2 71.3 412.7 71.8C413.2 72.3 413.5 73 413.5 73.7V83C413.5 83.4 413.6 83.7 413.9 83.9C414.2 84.1 414.4 84.2 414.7 84.2C415 84.2 415.3 84.1 415.5 83.9C415.7 83.7 415.9 83.4 415.9 83V73.7ZM397.6 79.1C397.6 79.8 397.3 80.5 396.8 81C396.3 81.5 395.6 81.8 394.9 81.8H394.6C393.8 81.8 393.2 81.5 392.7 81C392.2 80.5 391.9 79.9 391.9 79.1V73.7C391.9 73 392.2 72.3 392.7 71.8C393.2 71.3 393.9 71 394.6 71H394.9C395.6 71 396.3 71.3 396.8 71.8C397.3 72.3 397.6 72.9 397.6 73.7V79.1ZM400 73.7C400 73 399.9 72.4 399.6 71.7C399.3 71.1 399 70.5 398.5 70.1C398 69.6 397.5 69.3 396.9 69C396.3 68.7 395.6 68.6 394.9 68.6H394.6C393.9 68.6 393.2 68.7 392.6 69C392 69.3 391.4 69.6 391 70.1C390.5 70.6 390.2 71.1 389.9 71.7C389.6 72.3 389.5 73 389.5 73.7V79.1C389.5 79.8 389.6 80.5 389.9 81.1C390.2 81.7 390.5 82.2 391 82.7C391.5 83.2 392 83.5 392.6 83.8C393.2 84.1 393.9 84.2 394.6 84.2H394.9C395.6 84.2 396.2 84.1 396.9 83.8C397.5 83.5 398.1 83.2 398.5 82.7C399 82.2 399.3 81.7 399.6 81.1C399.9 80.5 400 79.8 400 79.1V73.7ZM383.9 69.8C383.9 69.4 383.8 69.1 383.5 68.9C383.2 68.7 383 68.6 382.7 68.6C382.4 68.6 382.1 68.7 381.9 68.9C381.6 69.1 381.5 69.4 381.5 69.8V83C381.5 83.4 381.6 83.7 381.9 83.9C382.2 84.1 382.4 84.2 382.7 84.2C383 84.2 383.3 84.1 383.5 83.9C383.8 83.7 383.9 83.4 383.9 83V69.8ZM383.9 63.2C383.9 62.8 383.8 62.5 383.5 62.3C383.2 62.1 383 62 382.7 62C382.4 62 382.1 62.1 381.9 62.3C381.6 62.5 381.5 62.8 381.5 63.2V63.9C381.5 64.3 381.6 64.6 381.9 64.8C382.2 65 382.4 65.1 382.7 65.1C383 65.1 383.3 65 383.5 64.8C383.8 64.6 383.9 64.3 383.9 63.9V63.2ZM376.2 82.2C376 82 375.7 81.8 375.4 81.8C374.9 81.8 374.5 81.6 374.1 81.3C373.7 81 373.6 80.6 373.6 80V71.1H375.3C375.7 71.1 376 71 376.2 70.7C376.4 70.4 376.5 70.2 376.5 69.9C376.5 69.6 376.4 69.3 376.2 69.1C376 68.8 375.7 68.7 375.3 68.7H373.6V63.2C373.6 62.8 373.5 62.5 373.2 62.3C372.9 62.1 372.7 62 372.4 62C372.1 62 371.8 62.1 371.6 62.3C371.3 62.5 371.2 62.8 371.2 63.2V68.7H370C369.6 68.7 369.3 68.8 369.1 69.1C368.9 69.4 368.8 69.6 368.8 69.9C368.8 70.2 368.9 70.5 369.1 70.7C369.3 71 369.6 71.1 370 71.1H371.1V80C371.1 80.6 371.2 81.1 371.4 81.6C371.6 82.1 371.9 82.5 372.3 82.9C372.7 83.3 373.1 83.6 373.6 83.8C374.1 84 374.6 84.1 375.2 84.1C375.6 84.1 375.9 84 376.1 83.7C376.3 83.5 376.4 83.2 376.4 82.9C376.4 82.7 376.3 82.4 376.2 82.2ZM361.5 79.1C361.5 79.9 361.2 80.5 360.7 81C360.2 81.5 359.5 81.8 358.8 81.8H358.5C357.7 81.8 357.1 81.6 356.6 81.2C356.1 80.8 355.9 80.3 355.9 79.6V79.3C355.9 78.8 356.1 78.3 356.4 78C356.8 77.7 357.2 77.5 357.8 77.3C358.4 77.1 359 77 359.6 76.9C360.3 76.8 360.9 76.7 361.5 76.5V79.1ZM365.5 82.2C365.3 82 365.1 81.8 364.7 81.8C364.2 81.7 363.9 81.3 363.9 80.8V73.5C363.9 72.8 363.8 72.2 363.5 71.6C363.2 71 362.9 70.5 362.5 70.1C362.1 69.7 361.5 69.3 360.9 69.1C360.3 68.8 359.6 68.7 358.9 68.7H358.7C358.3 68.7 357.9 68.8 357.4 68.8C357 68.9 356.5 69.1 356.1 69.3C355.7 69.5 355.3 69.8 354.9 70.2C354.5 70.6 354.2 71.1 354 71.6C353.9 71.7 353.9 71.9 353.9 72.2C353.9 72.5 354 72.8 354.3 73C354.6 73.2 354.8 73.3 355.1 73.3C355.3 73.3 355.5 73.3 355.7 73.2C355.9 73.1 356 72.9 356.2 72.7C356.5 72.2 356.8 71.8 357.2 71.5C357.6 71.2 358.1 71.1 358.7 71.1H358.9C359.6 71.1 360.2 71.3 360.7 71.7C361.2 72.1 361.5 72.7 361.5 73.7C361.5 73.8 361.5 73.9 361.5 74C361.5 74.1 361.5 74.2 361.4 74.3C361.3 74.5 361 74.6 360.5 74.7C360 74.8 359.5 74.9 358.9 75C358.3 75.1 357.7 75.2 357 75.4C356.3 75.6 355.8 75.8 355.2 76.1C354.7 76.4 354.2 76.9 353.8 77.4C353.4 77.9 353.3 78.6 353.3 79.4V79.8C353.3 80.5 353.4 81.2 353.7 81.8C354 82.4 354.4 82.8 354.8 83.2C355.3 83.6 355.8 83.9 356.4 84.1C357 84.3 357.6 84.4 358.3 84.4H358.6C359.9 84.4 361.1 84 362 83.2C362.2 83.5 362.5 83.7 362.8 84C363.1 84.2 363.6 84.4 364.1 84.4C364.1 84.4 364.2 84.4 364.3 84.4C364.7 84.4 365 84.3 365.2 84C365.4 83.8 365.5 83.5 365.5 83.2C365.7 82.7 365.6 82.5 365.5 82.2ZM348.5 73.7C348.5 72.8 348.4 72.1 348.1 71.5C347.8 70.9 347.5 70.3 347 69.9C346.5 69.5 346 69.2 345.4 69C344.8 68.8 344.1 68.7 343.5 68.7H343.2C342.7 68.7 342.1 68.8 341.7 69C341.2 69.2 340.8 69.4 340.5 69.7C340.4 69.4 340.3 69.2 340.1 69C339.9 68.8 339.6 68.8 339.3 68.8C339 68.8 338.7 68.9 338.4 69.1C338.1 69.3 338 69.6 338 70V83C338 83.4 338.1 83.7 338.4 83.9C338.7 84.1 338.9 84.2 339.2 84.2C339.5 84.2 339.8 84.1 340 83.9C340.3 83.7 340.4 83.4 340.4 83V73.7C340.4 72.9 340.7 72.3 341.2 71.8C341.7 71.3 342.4 71 343.1 71H343.4C344.2 71 344.8 71.3 345.3 71.8C345.8 72.3 346.1 73 346.1 73.7V83C346.1 83.4 346.2 83.7 346.5 83.9C346.8 84.1 347 84.2 347.3 84.2C347.6 84.2 347.9 84.1 348.1 83.9C348.4 83.7 348.5 83.4 348.5 83V73.7ZM333.7 70.2C333.3 69.7 332.8 69.3 332.2 69C331.6 68.8 331 68.6 330.4 68.6C330 68.6 329.6 68.6 329.4 68.7C329.1 68.8 328.9 68.8 328.7 68.9C328.5 69 328.3 69.1 328.2 69.2C328.1 69 327.9 68.8 327.8 68.7C327.6 68.6 327.4 68.6 327.2 68.6C326.9 68.6 326.6 68.7 326.4 68.9C326.1 69.1 326 69.4 326 69.8V82.9C326 83.3 326.1 83.6 326.4 83.8C326.7 84 326.9 84.1 327.2 84.1C327.5 84.1 327.8 84 328 83.8C328.3 83.6 328.4 83.3 328.4 82.9V73.1C328.4 72.8 328.4 72.6 328.5 72.3C328.5 72 328.6 71.8 328.8 71.6C328.9 71.4 329.2 71.2 329.4 71.1C329.7 71 330.1 70.9 330.5 70.9C330.9 70.9 331.2 71 331.4 71.1C331.6 71.3 331.8 71.4 331.9 71.5C332.2 71.8 332.5 71.9 332.9 71.9C333.2 71.9 333.5 71.8 333.7 71.6C333.9 71.4 334 71.1 334 70.8C334 70.7 333.9 70.5 333.7 70.2ZM318.4 75.3H312.7V73.7C312.7 72.9 313 72.3 313.5 71.8C314 71.3 314.7 71 315.4 71H315.7C316.4 71 317 71.3 317.5 71.8C318 72.3 318.3 73 318.3 73.7V75.3H318.4ZM320.8 73.7C320.8 73 320.7 72.3 320.4 71.7C320.1 71.1 319.8 70.5 319.3 70.1C318.8 69.6 318.3 69.3 317.7 69C317.1 68.7 316.4 68.6 315.7 68.6H315.4C314.7 68.6 314.1 68.7 313.4 69C312.8 69.3 312.2 69.6 311.8 70.1C311.3 70.6 311 71.1 310.7 71.7C310.4 72.3 310.3 73 310.3 73.7V79.1C310.3 79.8 310.4 80.5 310.7 81.1C311 81.7 311.3 82.2 311.8 82.7C312.3 83.2 312.8 83.5 313.4 83.8C314 84.1 314.7 84.2 315.4 84.2H315.7C316.8 84.2 317.7 83.9 318.5 83.4C319.3 82.8 319.9 82.1 320.3 81.2C320.4 81.1 320.4 80.9 320.4 80.7C320.4 80.3 320.3 80 320 79.8C319.7 79.6 319.5 79.5 319.1 79.5C318.9 79.5 318.7 79.6 318.5 79.7C318.3 79.8 318.2 80 318.1 80.3C317.9 80.7 317.6 81.1 317.2 81.4C316.8 81.7 316.3 81.9 315.7 81.9H315.4C314.7 81.9 314 81.6 313.5 81.1C313 80.6 312.7 80 312.7 79.2V77.6H319.6C319.9 77.6 320.2 77.5 320.5 77.2C320.7 77 320.8 76.7 320.8 76.4V73.7ZM305.7 82.2C305.5 82 305.2 81.8 304.9 81.8C304.4 81.8 304 81.6 303.6 81.3C303.2 81 303.1 80.6 303.1 80V71.1H304.8C305.2 71.1 305.5 71 305.7 70.7C305.9 70.4 306 70.2 306 69.9C306 69.6 305.9 69.3 305.7 69.1C305.5 68.8 305.2 68.7 304.8 68.7H303.1V63.2C303.1 62.8 303 62.5 302.7 62.3C302.4 62.1 302.2 62 301.9 62C301.6 62 301.3 62.1 301.1 62.3C300.8 62.5 300.7 62.8 300.7 63.2V68.7H299.6C299.2 68.7 298.9 68.8 298.7 69.1C298.5 69.4 298.4 69.6 298.4 69.9C298.4 70.2 298.5 70.5 298.7 70.7C298.9 71 299.2 71.1 299.6 71.1H300.7V80C300.7 80.6 300.8 81.1 301 81.6C301.2 82.1 301.5 82.5 301.9 82.9C302.3 83.3 302.7 83.6 303.2 83.8C303.7 84 304.2 84.1 304.8 84.1C305.2 84.1 305.5 84 305.7 83.7C305.9 83.5 306 83.2 306 82.9C306 82.7 305.9 82.4 305.7 82.2ZM293.9 73.7C293.9 72.8 293.8 72.1 293.5 71.5C293.2 70.9 292.9 70.3 292.4 69.9C291.9 69.5 291.4 69.2 290.8 69C290.2 68.8 289.5 68.7 288.9 68.7H288.6C288.1 68.7 287.5 68.8 287.1 69C286.6 69.2 286.2 69.4 285.9 69.7C285.8 69.4 285.7 69.2 285.5 69C285.3 68.8 285 68.8 284.7 68.8C284.4 68.8 284.1 68.9 283.8 69.1C283.5 69.3 283.4 69.6 283.4 70V83C283.4 83.4 283.5 83.7 283.8 83.9C284.1 84.1 284.3 84.2 284.6 84.2C284.9 84.2 285.2 84.1 285.4 83.9C285.7 83.7 285.8 83.4 285.8 83V73.7C285.8 72.9 286.1 72.3 286.6 71.8C287.1 71.3 287.8 71 288.5 71H288.8C289.5 71 290.2 71.3 290.7 71.8C291.2 72.3 291.5 73 291.5 73.7V83C291.5 83.4 291.6 83.7 291.9 83.9C292.2 84.1 292.4 84.2 292.7 84.2C293 84.2 293.3 84.1 293.5 83.9C293.8 83.7 293.9 83.4 293.9 83V73.7ZM277.1 63.2C277.1 62.8 277 62.5 276.7 62.3C276.4 62.1 276.2 62 275.9 62C275.6 62 275.3 62.1 275.1 62.3C274.8 62.5 274.7 62.8 274.7 63.2V83C274.7 83.4 274.8 83.7 275.1 83.9C275.4 84.1 275.6 84.2 275.9 84.2C276.2 84.2 276.5 84.1 276.7 83.9C276.9 83.7 277.1 83.4 277.1 83V63.2ZM259.2 70.2C258.8 69.7 258.3 69.3 257.7 69C257.1 68.8 256.5 68.6 255.9 68.6C255.5 68.6 255.1 68.6 254.9 68.7C254.6 68.8 254.4 68.8 254.2 68.9C254 69 253.8 69.1 253.7 69.2C253.6 69 253.4 68.8 253.3 68.7C253.1 68.6 252.9 68.6 252.7 68.6C252.4 68.6 252.1 68.7 251.9 68.9C251.6 69.1 251.5 69.4 251.5 69.8V82.9C251.5 83.3 251.6 83.6 251.9 83.8C252.2 84 252.4 84.1 252.7 84.1C253 84.1 253.3 84 253.5 83.8C253.8 83.6 253.9 83.3 253.9 82.9V73.1C253.9 72.8 253.9 72.6 254 72.3C254 72 254.1 71.8 254.3 71.6C254.4 71.4 254.7 71.2 254.9 71.1C255.2 71 255.6 70.9 256 70.9C256.4 70.9 256.7 71 256.9 71.1C257.1 71.3 257.3 71.4 257.4 71.5C257.7 71.8 258 71.9 258.4 71.9C258.7 71.9 259 71.8 259.2 71.6C259.4 71.4 259.5 71.1 259.5 70.8C259.5 70.7 259.4 70.5 259.2 70.2ZM245.7 69.8C245.7 69.4 245.6 69.1 245.3 68.9C245 68.7 244.8 68.6 244.5 68.6C244.2 68.6 243.9 68.7 243.7 68.9C243.4 69.1 243.3 69.4 243.3 69.8V79.1C243.3 79.8 243 80.5 242.5 81C242 81.5 241.3 81.8 240.6 81.8H240.3C239.6 81.8 238.9 81.5 238.4 81C237.9 80.5 237.6 79.9 237.6 79.1V69.8C237.6 69.4 237.5 69.1 237.2 68.9C236.9 68.7 236.7 68.6 236.4 68.6C236.1 68.6 235.8 68.7 235.6 68.9C235.3 69.1 235.2 69.4 235.2 69.8V79.1C235.2 80 235.3 80.7 235.6 81.4C235.9 82 236.2 82.6 236.7 83C237.2 83.4 237.7 83.7 238.3 83.9C238.9 84.1 239.6 84.2 240.2 84.2H240.5C241 84.2 241.6 84.1 242 84C242.5 83.8 242.9 83.6 243.2 83.3C243.3 83.6 243.4 83.9 243.6 84C243.8 84.1 244.1 84.2 244.4 84.2C244.7 84.2 245 84.1 245.2 83.9C245.5 83.7 245.6 83.4 245.6 83V69.8H245.7ZM238.8 63.2C238.8 62.8 238.7 62.5 238.4 62.3C238.1 62.1 237.9 62 237.6 62C237.3 62 237 62.1 236.8 62.3C236.5 62.5 236.4 62.8 236.4 63.2V63.9C236.4 64.3 236.5 64.6 236.8 64.8C237.1 65 237.3 65.1 237.6 65.1C237.9 65.1 238.2 65 238.4 64.8C238.7 64.6 238.8 64.3 238.8 63.9V63.2ZM244.6 63.2C244.6 62.8 244.5 62.5 244.2 62.3C243.9 62.1 243.7 62 243.4 62C243.1 62 242.8 62.1 242.6 62.3C242.4 62.5 242.2 62.8 242.2 63.2V63.9C242.2 64.3 242.3 64.6 242.6 64.8C242.9 65 243.1 65.1 243.4 65.1C243.7 65.1 244 65 244.2 64.8C244.5 64.6 244.6 64.3 244.6 63.9V63.2ZM230.6 62.4C230.4 62.1 230.1 62 229.7 62C229.1 62 228.6 62.1 228.1 62.3C227.6 62.5 227.2 62.8 226.8 63.2C226.4 63.6 226.1 64 225.9 64.5C225.7 65 225.6 65.6 225.6 66.1V68.6H224.9C224.5 68.6 224.2 68.7 224 69C223.8 69.3 223.7 69.5 223.7 69.8C223.7 70.1 223.8 70.4 224 70.6C224.2 70.9 224.5 71 224.9 71H225.6V83C225.6 83.4 225.7 83.7 226 83.9C226.3 84.1 226.5 84.2 226.8 84.2C227.1 84.2 227.4 84.1 227.6 83.9C227.9 83.7 228 83.4 228 83V71.1H229.5C229.9 71.1 230.2 71 230.4 70.7C230.6 70.4 230.7 70.2 230.7 69.9C230.7 69.6 230.6 69.3 230.4 69.1C230.2 68.8 229.9 68.7 229.5 68.7H228V66.2C228 65.7 228.2 65.3 228.5 65C228.8 64.7 229.2 64.5 229.7 64.5C230.1 64.5 230.4 64.4 230.6 64.1C230.8 63.8 230.9 63.6 230.9 63.3C230.9 62.9 230.8 62.7 230.6 62.4Z"
    fill="#D20A10"
  />
  <path
    d="M522.4 47.8C522.2 47.6 521.9 47.4 521.6 47.4C521.1 47.4 520.7 47.2 520.3 46.9C519.9 46.6 519.7 46.2 519.7 45.6V36.7H521.4C521.8 36.7 522.1 36.6 522.3 36.3C522.5 36 522.6 35.8 522.6 35.5C522.6 35.2 522.5 34.9 522.3 34.7C522.1 34.4 521.8 34.3 521.4 34.3H519.7V28.8C519.7 28.4 519.6 28.1 519.3 27.9C519 27.7 518.8 27.6 518.5 27.6C518.2 27.6 517.9 27.7 517.7 27.9C517.4 28.1 517.3 28.4 517.3 28.8V34.3H516.2C515.8 34.3 515.5 34.4 515.3 34.7C515.1 35 515 35.2 515 35.5C515 35.8 515.1 36.1 515.3 36.3C515.5 36.6 515.8 36.7 516.2 36.7H517.3V45.6C517.3 46.2 517.4 46.7 517.6 47.2C517.8 47.7 518.1 48.1 518.5 48.5C518.9 48.9 519.3 49.2 519.8 49.4C520.3 49.6 520.8 49.7 521.4 49.7C521.8 49.7 522.1 49.6 522.3 49.3C522.5 49 522.6 48.8 522.6 48.5C522.7 48.3 522.6 48 522.4 47.8ZM512.1 28C511.9 27.7 511.6 27.6 511.2 27.6C510.6 27.6 510.1 27.7 509.6 27.9C509.1 28.1 508.7 28.4 508.3 28.8C507.9 29.2 507.7 29.6 507.5 30.1C507.3 30.6 507.2 31.2 507.2 31.7V34.2H506.5C506.1 34.2 505.8 34.3 505.6 34.6C505.4 34.9 505.3 35.1 505.3 35.4C505.3 35.7 505.4 36 505.6 36.2C505.8 36.5 506.1 36.6 506.5 36.6H507.2V48.5C507.2 48.9 507.3 49.2 507.6 49.4C507.9 49.6 508.1 49.7 508.4 49.7C508.7 49.7 509 49.6 509.2 49.4C509.5 49.2 509.6 48.9 509.6 48.5V36.6H511.1C511.5 36.6 511.8 36.5 512 36.2C512.2 35.9 512.3 35.7 512.3 35.4C512.3 35.1 512.2 34.8 512 34.6C511.8 34.3 511.5 34.2 511.1 34.2H509.6V31.7C509.6 31.2 509.7 30.8 510.1 30.5C510.4 30.2 510.8 30 511.3 30C511.7 30 512 29.9 512.2 29.6C512.4 29.3 512.5 29.1 512.5 28.8C512.4 28.5 512.3 28.3 512.1 28ZM497.6 44.7C497.6 45.5 497.3 46.1 496.8 46.6C496.3 47.1 495.6 47.4 494.9 47.4H494.6C493.8 47.4 493.2 47.2 492.7 46.8C492.2 46.4 492 45.9 492 45.2V44.9C492 44.4 492.2 43.9 492.6 43.6C493 43.3 493.4 43.1 494 42.9C494.6 42.7 495.2 42.6 495.8 42.5C496.5 42.4 497.1 42.3 497.7 42.1V44.7H497.6ZM501.6 47.8C501.4 47.6 501.2 47.4 500.8 47.4C500.3 47.3 500 46.9 500 46.4V39.1C500 38.4 499.9 37.8 499.6 37.2C499.3 36.6 499 36.1 498.6 35.7C498.2 35.3 497.6 34.9 497 34.7C496.4 34.4 495.7 34.3 495 34.3H494.8C494.4 34.3 493.9 34.3 493.5 34.4C493.1 34.5 492.6 34.7 492.2 34.9C491.8 35.1 491.4 35.4 491 35.8C490.6 36.2 490.3 36.7 490.1 37.2C490 37.3 490 37.5 490 37.8C490 38.1 490.1 38.4 490.4 38.6C490.7 38.8 490.9 38.9 491.2 38.9C491.4 38.9 491.6 38.9 491.8 38.8C492 38.7 492.1 38.5 492.3 38.3C492.6 37.8 492.9 37.4 493.3 37.1C493.7 36.8 494.2 36.7 494.8 36.7H495C495.7 36.7 496.3 36.9 496.8 37.3C497.3 37.7 497.6 38.3 497.6 39.3C497.6 39.4 497.6 39.5 497.6 39.6C497.6 39.7 497.6 39.8 497.5 39.9C497.4 40.1 497.1 40.2 496.6 40.3C496.1 40.4 495.6 40.5 495 40.6C494.4 40.7 493.8 40.8 493.1 41C492.4 41.2 491.9 41.4 491.3 41.7C490.8 42 490.3 42.5 489.9 43C489.5 43.5 489.4 44.2 489.4 45V45.4C489.4 46.1 489.5 46.8 489.8 47.4C490.1 48 490.5 48.4 491 48.8C491.5 49.2 492 49.5 492.6 49.7C493.2 49.9 493.8 50 494.5 50H494.8C496.1 50 497.3 49.6 498.2 48.8C498.4 49.1 498.7 49.3 499 49.6C499.3 49.8 499.8 50 500.3 50C500.3 50 500.4 50 500.5 50C500.9 50 501.2 49.9 501.4 49.6C501.6 49.4 501.7 49.1 501.7 48.8C501.8 48.3 501.7 48.1 501.6 47.8ZM484.7 39.3C484.7 38.6 484.6 37.9 484.3 37.3C484 36.7 483.7 36.1 483.2 35.7C482.7 35.2 482.2 34.9 481.6 34.6C481 34.3 480.3 34.2 479.6 34.2H479.3C478.8 34.2 478.2 34.3 477.7 34.5C477.2 34.7 476.8 34.9 476.5 35.2V28.9C476.5 28.5 476.4 28.2 476.1 28C475.8 27.8 475.6 27.7 475.3 27.7C475 27.7 474.7 27.8 474.5 28C474.2 28.2 474.1 28.5 474.1 28.9V48.6C474.1 49 474.2 49.3 474.5 49.5C474.8 49.7 475 49.8 475.3 49.8C475.6 49.8 475.9 49.7 476.1 49.5C476.4 49.3 476.5 49 476.5 48.6V39.2C476.5 38.8 476.6 38.4 476.8 38.1C477 37.8 477.2 37.5 477.4 37.3C477.7 37.1 478 36.9 478.3 36.8C478.6 36.7 479 36.6 479.4 36.6C479.7 36.6 480.1 36.7 480.4 36.8C480.7 36.9 481 37.1 481.3 37.3C481.6 37.5 481.8 37.8 481.9 38.1C482.1 38.4 482.1 38.8 482.1 39.3V48.6C482.1 49 482.2 49.3 482.5 49.5C482.8 49.7 483 49.8 483.3 49.8C483.6 49.8 483.9 49.7 484.1 49.5C484.4 49.3 484.5 49 484.5 48.6V39.3H484.7ZM468.8 43.7C468.5 43.5 468.3 43.4 468 43.4C467.7 43.4 467.4 43.5 467.2 43.7C467 43.9 466.8 44.2 466.8 44.6C466.8 45.3 466.5 46 466 46.5C465.5 47 464.9 47.3 464.1 47.3H463.8C463 47.3 462.4 47 461.9 46.5C461.4 46 461.1 45.3 461.1 44.6V39.2C461.1 38.5 461.4 37.8 461.9 37.3C462.4 36.8 463.1 36.5 463.8 36.5H464.1C464.8 36.5 465.5 36.8 466 37.3C466.5 37.8 466.8 38.5 466.8 39.3C466.8 39.7 467 40 467.2 40.2C467.4 40.4 467.7 40.5 468 40.5C468.3 40.5 468.6 40.4 468.8 40.2C469.1 40 469.2 39.7 469.2 39.3C469.2 38.6 469.1 37.9 468.8 37.3C468.5 36.7 468.2 36.1 467.7 35.7C467.2 35.2 466.7 34.9 466.1 34.6C465.5 34.3 464.8 34.2 464.1 34.2H463.8C463.1 34.2 462.4 34.3 461.8 34.6C461.2 34.9 460.6 35.2 460.2 35.7C459.8 36.2 459.4 36.7 459.1 37.3C458.8 37.9 458.7 38.6 458.7 39.3V44.7C458.7 45.4 458.8 46.1 459.1 46.7C459.4 47.3 459.7 47.8 460.2 48.3C460.7 48.8 461.2 49.1 461.8 49.4C462.4 49.7 463.1 49.8 463.8 49.8H464.1C464.8 49.8 465.4 49.7 466.1 49.4C466.7 49.1 467.3 48.8 467.7 48.3C468.2 47.8 468.5 47.3 468.8 46.7C469.1 46.1 469.2 45.4 469.2 44.7C469.2 44.3 469.1 43.9 468.8 43.7ZM453.9 45.2C453.9 44.2 453.7 43.4 453.3 42.8C452.9 42.2 452.4 41.8 451.8 41.4C451.2 41.1 450.5 40.8 449.8 40.7C449.1 40.5 448.4 40.4 447.8 40.2C447.2 40 446.7 39.8 446.3 39.6C445.9 39.3 445.7 38.9 445.7 38.4V38.3C445.7 37.8 446 37.4 446.4 37.1C446.9 36.8 447.5 36.6 448.4 36.6H448.5C449.2 36.6 449.8 36.7 450.2 36.9C450.6 37.1 451 37.3 451.3 37.4C451.6 37.5 451.8 37.6 452 37.6C452.3 37.6 452.6 37.5 452.8 37.3C453 37.1 453.1 36.8 453.1 36.5C453.1 36.1 453 35.8 452.7 35.6C452.6 35.5 452.4 35.4 452.2 35.2C452 35 451.7 34.9 451.3 34.7C451 34.6 450.6 34.4 450.1 34.3C449.6 34.2 449.1 34.1 448.6 34.1H448.5C448 34.1 447.4 34.2 446.8 34.3C446.2 34.4 445.6 34.7 445.1 35C444.6 35.3 444.2 35.7 443.8 36.2C443.4 36.7 443.3 37.3 443.3 38.1C443.3 39.1 443.5 39.8 443.9 40.4C444.3 40.9 444.8 41.3 445.4 41.6C446 41.9 446.7 42.1 447.4 42.2C448.1 42.3 448.8 42.5 449.4 42.7C450 42.9 450.5 43.2 450.9 43.5C451.3 43.8 451.5 44.3 451.5 45V45.1C451.5 45.6 451.2 46.1 450.7 46.5C450.2 46.9 449.5 47.2 448.5 47.2H448.3C447.7 47.2 447.1 47 446.5 46.6C445.9 46.2 445.4 45.7 445 45.2C444.9 45 444.7 44.8 444.5 44.8C444.3 44.7 444.1 44.7 443.9 44.7C443.6 44.7 443.3 44.8 443.1 45C442.8 45.2 442.7 45.5 442.7 45.9C442.7 46 442.8 46.2 442.9 46.5C443.2 47 443.5 47.4 443.9 47.8C444.3 48.2 444.7 48.5 445.2 48.8C445.7 49.1 446.2 49.3 446.7 49.4C447.2 49.5 447.8 49.6 448.3 49.6H448.5C449.2 49.6 449.8 49.5 450.5 49.3C451.2 49.1 451.7 48.8 452.3 48.5C452.8 48.1 453.2 47.7 453.6 47.1C453.9 46.6 454.1 45.9 454.1 45.2H453.9ZM438.4 47.7C438.2 47.4 437.9 47.3 437.5 47.3C437 47.3 436.6 47.1 436.3 46.8C436 46.5 435.8 46.1 435.8 45.6V28.8C435.8 28.4 435.7 28.1 435.4 27.9C435.1 27.7 434.9 27.6 434.6 27.6C434.3 27.6 434 27.7 433.8 27.9C433.5 28.1 433.4 28.4 433.4 28.8V45.6C433.4 46.2 433.5 46.7 433.7 47.2C433.9 47.7 434.2 48.1 434.6 48.5C435 48.9 435.4 49.2 435.9 49.4C436.4 49.6 436.9 49.7 437.5 49.7C437.9 49.7 438.2 49.6 438.4 49.3C438.6 49 438.7 48.8 438.7 48.5C438.6 48.3 438.5 48 438.4 47.7ZM428.5 47.7C428.3 47.4 428 47.3 427.6 47.3C427.1 47.3 426.7 47.1 426.4 46.8C426.1 46.5 425.9 46.1 425.9 45.6V28.8C425.9 28.4 425.8 28.1 425.5 27.9C425.2 27.7 425 27.6 424.7 27.6C424.4 27.6 424.1 27.7 423.9 27.9C423.6 28.1 423.5 28.4 423.5 28.8V45.6C423.5 46.2 423.6 46.7 423.8 47.2C424 47.7 424.3 48.1 424.7 48.5C425.1 48.9 425.5 49.2 426 49.4C426.5 49.6 427 49.7 427.6 49.7C428 49.7 428.3 49.6 428.5 49.3C428.7 49 428.8 48.8 428.8 48.5C428.8 48.3 428.7 48 428.5 47.7ZM415.7 40.9H410V39.3C410 38.5 410.3 37.9 410.8 37.4C411.3 36.9 412 36.6 412.7 36.6H413C413.7 36.6 414.3 36.9 414.8 37.4C415.3 37.9 415.6 38.6 415.6 39.4V40.9H415.7ZM418.1 39.3C418.1 38.6 418 37.9 417.7 37.3C417.4 36.7 417.1 36.1 416.6 35.7C416.1 35.2 415.6 34.9 415 34.6C414.4 34.3 413.7 34.2 413 34.2H412.7C412 34.2 411.3 34.3 410.7 34.6C410.1 34.9 409.5 35.2 409.1 35.7C408.6 36.2 408.3 36.7 408 37.3C407.7 37.9 407.6 38.6 407.6 39.3V44.7C407.6 45.4 407.7 46.1 408 46.7C408.3 47.3 408.6 47.8 409.1 48.3C409.6 48.8 410.1 49.1 410.7 49.4C411.3 49.7 412 49.8 412.7 49.8H413C414.1 49.8 415 49.5 415.8 49C416.6 48.5 417.2 47.7 417.6 46.8C417.7 46.7 417.7 46.5 417.7 46.3C417.7 45.9 417.6 45.6 417.3 45.4C417 45.2 416.8 45.1 416.4 45.1C416.2 45.1 416 45.2 415.8 45.3C415.6 45.4 415.5 45.6 415.4 45.9C415.2 46.3 414.9 46.7 414.5 47C414.1 47.3 413.6 47.5 413 47.5H412.7C412 47.5 411.3 47.2 410.8 46.7C410.3 46.2 410 45.6 410 44.8V43.2H416.9C417.2 43.2 417.5 43.1 417.8 42.8C418 42.6 418.1 42.3 418.1 42V39.3ZM402.8 45.2C402.8 44.2 402.6 43.4 402.2 42.8C401.8 42.2 401.3 41.8 400.7 41.4C400.1 41.1 399.4 40.8 398.7 40.7C398 40.5 397.3 40.4 396.7 40.2C396.1 40 395.6 39.8 395.2 39.6C394.8 39.3 394.6 38.9 394.6 38.4V38.3C394.6 37.8 394.9 37.4 395.3 37.1C395.8 36.8 396.4 36.6 397.3 36.6H397.4C398.1 36.6 398.7 36.7 399.1 36.9C399.5 37.1 399.9 37.3 400.2 37.4C400.5 37.5 400.7 37.6 400.9 37.6C401.2 37.6 401.5 37.5 401.7 37.3C401.9 37.1 402 36.8 402 36.5C402 36.1 401.9 35.8 401.6 35.6C401.5 35.5 401.3 35.4 401.1 35.2C400.9 35 400.6 34.9 400.2 34.7C399.9 34.6 399.5 34.4 399 34.3C398.5 34.2 398.1 34.1 397.5 34.1H397.4C396.9 34.1 396.3 34.2 395.7 34.3C395.1 34.4 394.5 34.7 394 35C393.5 35.3 393.1 35.7 392.7 36.2C392.3 36.7 392.2 37.3 392.2 38.1C392.2 39.1 392.4 39.8 392.8 40.4C393.2 40.9 393.7 41.3 394.3 41.6C394.9 41.9 395.6 42.1 396.3 42.2C397 42.3 397.7 42.5 398.3 42.7C398.9 42.9 399.4 43.2 399.8 43.5C400.2 43.8 400.4 44.3 400.4 45V45.1C400.4 45.6 400.1 46.1 399.6 46.5C399.1 46.9 398.4 47.2 397.4 47.2H397.2C396.6 47.2 396 47 395.4 46.6C394.8 46.2 394.3 45.7 393.9 45.2C393.8 45 393.6 44.8 393.4 44.8C393.2 44.7 393 44.7 392.8 44.7C392.5 44.7 392.2 44.8 391.9 45C391.6 45.2 391.5 45.5 391.5 45.9C391.5 46 391.6 46.2 391.7 46.5C392 47 392.3 47.4 392.7 47.8C393.1 48.2 393.5 48.5 394 48.8C394.5 49.1 395 49.3 395.5 49.4C396 49.5 396.6 49.6 397.1 49.6H397.3C398 49.6 398.6 49.5 399.3 49.3C400 49.1 400.5 48.8 401.1 48.5C401.6 48.1 402 47.7 402.4 47.1C402.7 46.6 402.9 45.9 402.9 45.2H402.8ZM384.7 40.9H379V39.3C379 38.5 379.3 37.9 379.8 37.4C380.3 36.9 381 36.6 381.7 36.6H382C382.7 36.6 383.3 36.9 383.8 37.4C384.3 37.9 384.6 38.6 384.6 39.4V40.9H384.7ZM387.1 39.3C387.1 38.6 387 37.9 386.7 37.3C386.4 36.7 386.1 36.1 385.6 35.7C385.1 35.2 384.6 34.9 384 34.6C383.4 34.3 382.7 34.2 382 34.2H381.7C381 34.2 380.4 34.3 379.7 34.6C379.1 34.9 378.5 35.2 378.1 35.7C377.6 36.2 377.3 36.7 377 37.3C376.7 37.9 376.6 38.6 376.6 39.3V44.7C376.6 45.4 376.7 46.1 377 46.7C377.3 47.3 377.6 47.8 378.1 48.3C378.6 48.8 379.1 49.1 379.7 49.4C380.3 49.7 381 49.8 381.7 49.8H382C383.1 49.8 384 49.5 384.8 49C385.6 48.5 386.2 47.7 386.6 46.8C386.7 46.7 386.7 46.5 386.7 46.3C386.7 45.9 386.6 45.6 386.3 45.4C386 45.2 385.8 45.1 385.4 45.1C385.2 45.1 385 45.2 384.8 45.3C384.6 45.4 384.5 45.6 384.4 45.9C384.2 46.3 383.9 46.7 383.5 47C383.1 47.3 382.6 47.5 382 47.5H381.7C381 47.5 380.3 47.2 379.8 46.7C379.3 46.2 379 45.6 379 44.8V43.2H385.9C386.2 43.2 386.5 43.1 386.8 42.8C387 42.6 387.1 42.3 387.1 42V39.3ZM371.1 38.9C371.1 38.6 371 38.3 370.7 38.1C370.5 37.9 370.2 37.7 369.9 37.7H365.4C365 37.7 364.7 37.8 364.5 38.1C364.3 38.4 364.2 38.6 364.2 38.9C364.2 39.2 364.3 39.5 364.5 39.7C364.7 40 365 40.1 365.4 40.1H368.7V43.8C368.7 44.3 368.6 44.8 368.4 45.2C368.2 45.6 367.9 46 367.6 46.3C367.3 46.6 366.9 46.9 366.5 47.1C366.1 47.3 365.6 47.4 365.1 47.4H364.8C364.3 47.4 363.8 47.3 363.4 47.1C363 46.9 362.6 46.6 362.3 46.3C362 46 361.7 45.6 361.5 45.2C361.3 44.8 361.2 44.3 361.2 43.8V33.6C361.2 33.1 361.3 32.7 361.5 32.2C361.7 31.8 361.9 31.4 362.3 31.1C362.6 30.8 363 30.5 363.4 30.3C363.8 30.1 364.3 30 364.8 30H365.1C366.1 30 366.9 30.3 367.5 30.9C368.1 31.5 368.5 32.2 368.6 33.1C368.7 33.5 368.8 33.7 369 33.9C369.2 34.1 369.5 34.1 369.8 34.1C370.1 34.1 370.4 34 370.6 33.8C370.9 33.6 371 33.3 371 32.9V32.7C370.9 32 370.7 31.3 370.3 30.7C370 30.1 369.5 29.5 369 29.1C368.5 28.6 367.9 28.3 367.2 28C366.5 27.7 365.8 27.6 365 27.6H364.7C363.9 27.6 363.1 27.8 362.4 28.1C361.7 28.4 361 28.8 360.5 29.4C360 29.9 359.5 30.6 359.2 31.3C358.9 32 358.7 32.8 358.7 33.6V43.8C358.7 44.6 358.9 45.4 359.2 46.2C359.5 46.9 359.9 47.5 360.5 48.1C361 48.6 361.7 49.1 362.4 49.4C363.1 49.7 363.9 49.9 364.7 49.9H365C365.8 49.9 366.6 49.7 367.3 49.4C368 49.1 368.7 48.7 369.2 48.1C369.7 47.6 370.2 46.9 370.5 46.2C370.8 45.5 371 44.7 371 43.8V38.9H371.1ZM340.9 40.9H335.2V39.3C335.2 38.5 335.5 37.9 336 37.4C336.5 36.9 337.2 36.6 337.9 36.6H338.2C338.9 36.6 339.5 36.9 340 37.4C340.5 37.9 340.8 38.6 340.8 39.4V40.9H340.9ZM343.3 39.3C343.3 38.6 343.2 37.9 342.9 37.3C342.6 36.7 342.3 36.1 341.8 35.7C341.3 35.2 340.8 34.9 340.2 34.6C339.6 34.3 338.9 34.2 338.2 34.2H337.9C337.2 34.2 336.6 34.3 335.9 34.6C335.3 34.9 334.7 35.2 334.3 35.7C333.8 36.2 333.5 36.7 333.2 37.3C332.9 37.9 332.8 38.6 332.8 39.3V44.7C332.8 45.4 332.9 46.1 333.2 46.7C333.5 47.3 333.8 47.8 334.3 48.3C334.8 48.8 335.3 49.1 335.9 49.4C336.5 49.7 337.2 49.8 337.9 49.8H338.2C339.3 49.8 340.2 49.5 341 49C341.8 48.5 342.4 47.7 342.8 46.8C342.9 46.7 342.9 46.5 342.9 46.3C342.9 45.9 342.8 45.6 342.5 45.4C342.2 45.2 342 45.1 341.6 45.1C341.4 45.1 341.2 45.2 341 45.3C340.8 45.4 340.7 45.6 340.6 45.9C340.4 46.3 340.1 46.7 339.7 47C339.3 47.3 338.8 47.5 338.2 47.5H337.9C337.2 47.5 336.5 47.2 336 46.7C335.5 46.2 335.2 45.6 335.2 44.8V43.2H342.1C342.4 43.2 342.7 43.1 343 42.8C343.2 42.6 343.3 42.3 343.3 42V39.3ZM327.7 39.3C327.7 38.6 327.6 37.9 327.3 37.3C327 36.7 326.7 36.1 326.2 35.7C325.7 35.2 325.2 34.9 324.6 34.6C324 34.3 323.3 34.2 322.6 34.2H322.3C321.8 34.2 321.2 34.3 320.7 34.5C320.2 34.7 319.8 34.9 319.5 35.2V28.9C319.5 28.5 319.4 28.2 319.1 28C318.8 27.8 318.6 27.7 318.3 27.7C318 27.7 317.7 27.8 317.5 28C317.2 28.2 317.1 28.5 317.1 28.9V48.6C317.1 49 317.2 49.3 317.5 49.5C317.8 49.7 318 49.8 318.3 49.8C318.6 49.8 318.9 49.7 319.1 49.5C319.4 49.3 319.5 49 319.5 48.6V39.2C319.5 38.8 319.6 38.4 319.8 38.1C320 37.8 320.2 37.5 320.5 37.3C320.8 37.1 321.1 36.9 321.4 36.8C321.7 36.7 322.1 36.6 322.5 36.6C322.8 36.6 323.2 36.7 323.5 36.8C323.8 36.9 324.1 37.1 324.4 37.3C324.7 37.5 324.9 37.8 325.1 38.1C325.3 38.4 325.3 38.8 325.3 39.3V48.6C325.3 49 325.4 49.3 325.7 49.5C326 49.7 326.2 49.8 326.5 49.8C326.8 49.8 327.1 49.7 327.3 49.5C327.6 49.3 327.7 49 327.7 48.6V39.3ZM311.5 43.7C311.2 43.5 311 43.4 310.7 43.4C310.4 43.4 310.1 43.5 309.9 43.7C309.7 43.9 309.5 44.2 309.5 44.6C309.5 45.3 309.2 46 308.7 46.5C308.2 47 307.6 47.3 306.8 47.3H306.5C305.7 47.3 305.1 47 304.6 46.5C304.1 46 303.8 45.3 303.8 44.6V39.2C303.8 38.5 304.1 37.8 304.6 37.3C305.1 36.8 305.8 36.5 306.5 36.5H306.8C307.5 36.5 308.2 36.8 308.7 37.3C309.2 37.8 309.5 38.5 309.5 39.3C309.5 39.7 309.7 40 309.9 40.2C310.1 40.4 310.4 40.5 310.7 40.5C311 40.5 311.3 40.4 311.5 40.2C311.8 40 311.9 39.7 311.9 39.3C311.9 38.6 311.8 37.9 311.5 37.3C311.2 36.7 310.9 36.1 310.4 35.7C309.9 35.2 309.4 34.9 308.8 34.6C308.2 34.3 307.5 34.2 306.8 34.2H306.5C305.8 34.2 305.2 34.3 304.5 34.6C303.9 34.9 303.3 35.2 302.9 35.7C302.5 36.2 302.1 36.7 301.8 37.3C301.5 37.9 301.4 38.6 301.4 39.3V44.7C301.4 45.4 301.5 46.1 301.8 46.7C302.1 47.3 302.4 47.8 302.9 48.3C303.4 48.8 303.9 49.1 304.5 49.4C305.1 49.7 305.8 49.8 306.5 49.8H306.8C307.5 49.8 308.2 49.7 308.8 49.4C309.4 49.1 310 48.8 310.4 48.3C310.9 47.8 311.2 47.3 311.5 46.7C311.8 46.1 311.9 45.4 311.9 44.7C311.9 44.3 311.8 43.9 311.5 43.7ZM296.6 45.2C296.6 44.2 296.4 43.4 296 42.8C295.6 42.2 295.1 41.8 294.5 41.4C293.9 41.1 293.2 40.8 292.5 40.7C291.8 40.5 291.1 40.4 290.5 40.2C289.9 40 289.4 39.8 289 39.6C288.6 39.3 288.4 38.9 288.4 38.4V38.3C288.4 37.8 288.7 37.4 289.1 37.1C289.6 36.8 290.2 36.6 291.1 36.6H291.2C291.9 36.6 292.5 36.7 292.9 36.9C293.3 37.1 293.7 37.3 294 37.4C294.3 37.5 294.5 37.6 294.7 37.6C295 37.6 295.3 37.5 295.5 37.3C295.7 37.1 295.8 36.8 295.8 36.5C295.8 36.1 295.7 35.8 295.4 35.6C295.3 35.5 295.1 35.4 294.8 35.2C294.6 35 294.3 34.9 293.9 34.7C293.6 34.6 293.2 34.4 292.7 34.3C292.2 34.2 291.7 34.1 291.2 34.1H291.1C290.6 34.1 290 34.2 289.5 34.3C288.9 34.4 288.3 34.7 287.8 35C287.3 35.3 286.9 35.7 286.5 36.2C286.1 36.7 286 37.3 286 38.1C286 39.1 286.2 39.8 286.6 40.4C287 40.9 287.5 41.3 288.1 41.6C288.7 41.9 289.4 42.1 290.1 42.2C290.8 42.3 291.5 42.5 292.1 42.7C292.7 42.9 293.2 43.2 293.6 43.5C294 43.8 294.2 44.3 294.2 45V45.1C294.2 45.6 293.9 46.1 293.4 46.5C292.9 46.9 292.1 47.2 291.2 47.2H291C290.4 47.2 289.8 47 289.2 46.6C288.6 46.2 288.1 45.7 287.7 45.2C287.6 45 287.4 44.8 287.2 44.8C287 44.7 286.8 44.7 286.6 44.7C286.3 44.7 286 44.8 285.7 45C285.4 45.2 285.3 45.5 285.3 45.9C285.3 46 285.4 46.2 285.5 46.5C285.8 47 286.1 47.4 286.5 47.8C286.9 48.2 287.3 48.5 287.8 48.8C288.3 49.1 288.8 49.3 289.3 49.4C289.8 49.5 290.4 49.6 290.9 49.6H291.1C291.8 49.6 292.4 49.5 293.1 49.3C293.8 49.1 294.3 48.8 294.9 48.5C295.4 48.1 295.8 47.7 296.2 47.1C296.5 46.6 296.7 45.9 296.7 45.2H296.6ZM281.1 47.8C280.9 47.6 280.6 47.4 280.3 47.4C279.8 47.4 279.4 47.2 279 46.9C278.6 46.6 278.5 46.2 278.5 45.6V36.7H280.2C280.6 36.7 280.9 36.6 281.1 36.3C281.3 36 281.4 35.8 281.4 35.5C281.4 35.2 281.3 34.9 281.1 34.7C280.9 34.4 280.6 34.3 280.2 34.3H278.5V28.8C278.5 28.4 278.4 28.1 278.1 27.9C277.8 27.7 277.6 27.6 277.3 27.6C277 27.6 276.7 27.7 276.5 27.9C276.2 28.1 276.1 28.4 276.1 28.8V34.3H275C274.6 34.3 274.3 34.4 274.1 34.7C273.9 35 273.8 35.2 273.8 35.5C273.8 35.8 273.9 36.1 274.1 36.3C274.3 36.6 274.6 36.7 275 36.7H276.1V45.6C276.1 46.2 276.2 46.7 276.4 47.2C276.6 47.7 276.9 48.1 277.3 48.5C277.7 48.9 278.1 49.2 278.6 49.4C279.1 49.6 279.6 49.7 280.2 49.7C280.6 49.7 280.9 49.6 281.1 49.3C281.3 49 281.4 48.8 281.4 48.5C281.3 48.3 281.3 48 281.1 47.8ZM268.9 35.4C268.9 35 268.8 34.7 268.5 34.5C268.2 34.3 268 34.2 267.7 34.2C267.4 34.2 267.1 34.3 266.9 34.5C266.6 34.7 266.5 35 266.5 35.4V44.7C266.5 45.4 266.2 46.1 265.7 46.6C265.2 47.1 264.5 47.4 263.8 47.4H263.5C262.8 47.4 262.1 47.1 261.6 46.6C261.1 46.1 260.8 45.4 260.8 44.7V35.4C260.8 35 260.7 34.7 260.4 34.5C260.1 34.3 259.9 34.2 259.6 34.2C259.3 34.2 259 34.3 258.8 34.5C258.5 34.7 258.4 35 258.4 35.4V44.7C258.4 45.6 258.5 46.3 258.8 47C259.1 47.6 259.4 48.1 259.9 48.6C260.4 49.1 260.9 49.3 261.5 49.5C262.1 49.7 262.8 49.8 263.4 49.8H263.7C264.2 49.8 264.8 49.7 265.2 49.6C265.7 49.4 266.1 49.2 266.4 48.9C266.5 49.2 266.6 49.5 266.8 49.6C267 49.7 267.3 49.8 267.6 49.8C267.9 49.8 268.2 49.7 268.4 49.5C268.6 49.3 268.8 49 268.8 48.6V35.4H268.9ZM251 40.9H245.3V39.3C245.3 38.5 245.6 37.9 246.1 37.4C246.6 36.9 247.3 36.6 248 36.6H248.3C249 36.6 249.6 36.9 250.1 37.4C250.6 37.9 250.9 38.6 250.9 39.4V40.9H251ZM253.4 39.3C253.4 38.6 253.3 37.9 253 37.3C252.7 36.7 252.4 36.1 251.9 35.7C251.4 35.2 250.9 34.9 250.3 34.6C249.7 34.3 249 34.2 248.3 34.2H248C247.3 34.2 246.7 34.3 246 34.6C245.4 34.9 244.8 35.2 244.4 35.7C243.9 36.2 243.6 36.7 243.3 37.3C243 37.9 242.9 38.6 242.9 39.3V44.7C242.9 45.4 243 46.1 243.3 46.7C243.6 47.3 243.9 47.8 244.4 48.3C244.9 48.8 245.4 49.1 246 49.4C246.6 49.7 247.3 49.8 248 49.8H248.3C249.4 49.8 250.3 49.5 251.1 49C251.9 48.5 252.5 47.7 252.9 46.8C253 46.7 253 46.5 253 46.3C253 45.9 252.9 45.6 252.6 45.4C252.3 45.2 252.1 45.1 251.7 45.1C251.5 45.1 251.3 45.2 251.1 45.3C250.9 45.4 250.8 45.6 250.7 45.9C250.5 46.3 250.2 46.7 249.8 47C249.4 47.3 248.9 47.5 248.3 47.5H248C247.3 47.5 246.6 47.2 246.1 46.7C245.6 46.2 245.3 45.6 245.3 44.8V43.2H252.2C252.5 43.2 252.8 43.1 253 42.8C253.2 42.6 253.3 42.3 253.3 42V39.3H253.4ZM235 43.6C235 44.1 234.9 44.6 234.7 45C234.5 45.4 234.3 45.8 233.9 46.1C233.6 46.4 233.2 46.7 232.8 46.9C232.4 47.1 231.9 47.2 231.4 47.2H227.5V30.2H231.4C231.9 30.2 232.4 30.3 232.8 30.5C233.2 30.7 233.6 30.9 233.9 31.3C234.2 31.6 234.5 32 234.7 32.4C234.9 32.8 235 33.3 235 33.8V43.6ZM237.4 33.8C237.4 33 237.2 32.2 236.9 31.5C236.6 30.8 236.2 30.1 235.6 29.6C235.1 29.1 234.4 28.6 233.7 28.3C233 28 232.2 27.8 231.4 27.8H226.3C226 27.8 225.7 27.9 225.5 28.2C225.3 28.5 225.1 28.7 225.1 29V48.4C225.1 48.7 225.2 49 225.5 49.2C225.7 49.4 226 49.6 226.3 49.6H231.4C232.2 49.6 233 49.4 233.7 49.1C234.4 48.8 235.1 48.4 235.6 47.8C236.1 47.3 236.6 46.6 236.9 45.9C237.2 45.2 237.4 44.4 237.4 43.6V33.8Z"
    fill="#D20A10"
  />
</svg>