<svg
  width="96"
  height="34"
  viewBox="0 0 96 34"
  fill="none"
  xmlns="http://www.w3.org/2000/svg"
>
  <path
    fill-rule="evenodd"
    clip-rule="evenodd"
    d="M9.9 12.6C10.4 14.3 10.4 15.9 10.4 15.9C11.9 13.8 13.4 12 15.3 10.4C17.4 8.7 18.9 7.7 21.6 6.5C24 5.4 25.2 5.1 26.4 4.7C27.6 4.3 28.8 4 30.1 3.7C31.4 3.4 32.6 3.2 32.6 3.5C32.6 3.7 31.2 4.2 31 4.3C30 4.7 29.1 5.1 27 6C24.5 7.2 22.7 8.5 20.6 10.2C18.7 11.7 16.9 13.9 15.3 16C14.9 16.6 13.8 17.9 12.9 19.3C12.1 20.6 11.3 22 11.1 22.4C10.6 23.2 9.7 25.2 9.7 25.2C9.7 25.2 10.5 25.5 12 25.4C13.7 25.3 15 25.1 17.2 24C19.6 22.8 21.3 21.3 23 19.4C24.7 17.6 25.9 16.2 27.4 13.9C28.4 12.4 29.1 11.4 30.4 8.8C31.2 7.2 31.5 5.5 31.8 5.4C32.1 5.3 32.1 7 31.9 8.5C31.4 12.1 31 13.1 29.9 15.4C29.1 17.1 27.9 18.9 26.3 20.5C24.6 22.2 23.2 23.5 20.9 24.9C19.3 26 18.1 26.5 16.3 27C14.3 27.6 12 27.5 11.1 27.4C10.3 27.3 9.6 27.2 8.8 27C8.4 27.6 7.8 29.7 7.6 30.5C7.4 31.3 7 32.3 6.8 32.6C6.5 33.2 6 33.6 5.7 33.4C4.9 33.1 4.6 32.4 4.4 31.5C4.2 30.1 4.3 28.5 4.5 27.7C4.7 26.5 5.2 25 5.2 25C4.8 24.6 3.5 23.4 2.1 20.7C0.9 18.6 0 15.8 0 13C0 10 0.7 7.1 2 4.4C2.7 3.1 3.2 2.3 3.7 1.6C4.2 0.799998 4.8 0 4.8 0C4.9 0 6.3 2.7 7.6 5.9C9.1 9.5 9.5 10.7 9.9 12.6ZM13.5 4.5C12.8 5 12.7 5.2 12.3 5.6C11.8 6.1 11.8 6.5 11.8 7.1C11.8 7.3 11.9 7.6 12 7.8C12.3 8.3 12.8 8.6 13.4 8.6C13.7 8.6 14.4 8.3 15 7.5C15.6 6.7 15.8 6.4 15.8 6C15.8 5.7 15.7 5.3 15.3 4.9C14.9 4.4 14 4.1 13.5 4.5ZM4.8 1.4C4.8 1.4 4.5 2.2 4.1 3.1C3.5 4.4 2.7 6.3 2.3 7.9C1.7 10.1 1.2 13.4 1.9 15.9C2.2 16.9 2.4 17.7 2.8 18.6C3.5 20.1 4.4 21.6 6.2 23.3C6.2 23.3 6.8 22.5 7 21.1C7.1 20.3 7.1 20.1 7.2 19.4C7.3 18.4 7.3 17.3 7.3 16C7.4 14.4 7.2 12.5 6.8 10.1C6.6 8.8 6.2 6.4 5.8 5.1C5.4 3.6 4.8 1.4 4.8 1.4ZM60.4 30.8C59.1 32 57.4 32.7 55.7 32.7C54.2 32.7 52.7 32.2 51.5 31.2C49.9 30 49.1 28.2 49.1 26.2C49.1 24.5 49.8 22.9 51.1 21.6C52.4 20.4 54 19.7 55.8 19.7C57.5 19.7 59.3 20.4 60.5 21.6C61.8 22.8 62.4 24.4 62.4 26.2C62.4 28 61.7 29.6 60.4 30.8ZM59 26.3C59 24.3 57.6 22.7 55.7 22.7C53.8 22.7 52.4 24.3 52.4 26.3C52.4 28.3 53.7 29.9 55.7 29.9C57.7 29.9 59 28.3 59 26.3ZM63.6 20.1H67.3C69 20.1 70.3 20.1 71.4 20.9C72.3 21.6 72.8 22.6 72.8 23.9C72.8 25.8 71.8 27 70 27.4L73.4 32.3H69.6L66.7 27.5V32.3H63.5L63.6 20.1ZM67.4 25.9C68.8 25.9 69.5 25.5 69.5 24.4C69.5 23.1 68.8 22.7 67.4 22.7H66.7V25.9H67.4ZM74.7 32.4V20.1H78.5C80.1 20.1 81.3 20.1 82.3 20.7C83.4 21.4 84 22.7 84 24.2C84 25.8 83.4 27.1 82.3 27.7C81.4 28.2 80.5 28.2 79.3 28.2H77.9V32.3L74.7 32.4ZM78.5 25.6C80 25.6 80.7 25.3 80.7 24.1C80.7 22.9 79.9 22.7 78.5 22.7H77.9V25.6H78.5ZM88.9 30.1C89.8 30.1 90.4 29.6 90.4 28.8C90.4 27.8 89.7 27.5 88.3 27.2C86.1 26.6 85 25.7 85 23.8C85 21.5 86.7 19.8 89.3 19.8C90.7 19.8 91.9 20.2 93 20.9L91.9 23.3C91.1 22.7 90.3 22.3 89.5 22.3C88.7 22.3 88.1 22.7 88.1 23.3C88.1 24.2 89 24.4 90.1 24.7C92.3 25.3 93.5 26.1 93.5 28.4C93.5 31 91.7 32.7 88.7 32.7C87 32.7 85.6 32.2 84.3 30.9L85.8 28.4C86.9 29.5 87.9 30.1 88.9 30.1ZM43 29.9C41 29.9 39.8 28.6 39.7 26.3C39.8 24 41 22.7 43 22.7C44.1 22.7 45 23.2 45.7 24.1L48.6 22.7C47.3 20.8 45.4 19.9 43 19.9C39.2 19.9 36.4 22.6 36.4 26.3C36.4 30 39.2 32.7 43 32.7C45.4 32.7 47.3 31.7 48.6 29.9L45.7 28.5C44.9 29.4 44.1 29.9 43 29.9ZM46.9 17.2V9.2C46.7 10.3 46.5 11 46.3 11.5L44.6 17.3H42.3L40.6 11.5C40.5 11 40.2 10.3 40 9.2V17.2H36.9V4.9H41.2L43.1 11.3C43.2 11.7 43.4 12.2 43.5 13C43.6 12.4 43.7 11.9 43.9 11.3L45.8 5H50.1V17.3L46.9 17.2ZM52 4.9H59.6V7.6H55.3V9.7H59.4V12.3H55.3V14.4H59.6V17.2H52V4.9ZM61.3 4.9H65C66.7 4.9 68 4.9 69.1 5.7C70 6.4 70.5 7.4 70.5 8.7C70.5 10.6 69.5 11.8 67.7 12.2L71.1 17.1H67.3L64.5 12.3V17.1H61.3V4.9ZM65.2 10.7C66.6 10.7 67.3 10.3 67.3 9.2C67.3 7.9 66.6 7.5 65.2 7.5H64.5V10.7H65.2ZM78.2 14.6C76.3 14.6 75 13.3 74.9 11C75 8.7 76.2 7.4 78.2 7.4C79.3 7.4 80.2 7.9 80.9 8.8L83.8 7.4C82.5 5.5 80.6 4.6 78.2 4.6C74.4 4.6 71.6 7.3 71.6 11C71.6 14.7 74.4 17.4 78.2 17.4C80.6 17.4 82.5 16.4 83.8 14.6L80.9 13.3C80.2 14.2 79.3 14.6 78.2 14.6Z"
    fill="#C8102E"
  />
  <path
    fill-rule="evenodd"
    clip-rule="evenodd"
    d="M84.6 17.3999H88.4L95.9 4.8999H92.1L89.9 8.5999L87.2 4.8999H83.5L88.2 11.4999L84.6 17.3999Z"
    fill="#C8102E"
  />
</svg>
