<svg
  width="365"
  height="112"
  viewBox="0 0 365 112"
  fill="none"
  xmlns="http://www.w3.org/2000/svg"
>
  <path
    d="M142.2 34.9999C148.6 28.5999 156.8 25.3999 166 25.3999C174.7 25.3999 183 28.7999 189.4 35.0999C196 41.5999 199.5 49.9999 199.5 58.8999C199.5 68.2999 196.2 76.6999 190 82.9999C183.6 89.5999 175 93.1999 165.9 93.1999C156.2 93.1999 148 89.6999 141.5 82.8999C135.3 76.3999 132.2 68.2999 132.2 58.5999C132.2 49.5999 135.7 41.2999 142.2 34.9999ZM165.9 76.9999C175.3 76.9999 182.9 69.3999 182.9 58.7999C182.9 49.1999 175.3 41.5999 166 41.5999C156.2 41.5999 148.6 49.1999 148.6 58.7999C148.7 69.0999 156.9 76.9999 165.9 76.9999Z"
    fill="black"
  />
  <path d="M222.1 26.6001H207.6V92.0001H222.1V26.6001Z" fill="black" />
  <path
    d="M268.4 86.4999C264.1 90.6999 259.7 92.2999 253.8 92.2999C247.8 92.2999 242.7 90.3999 238.3 86.4999C232.6 81.3999 229.6 74.7999 229.6 67.0999C229.6 59.9999 232.4 53.6999 237.5 48.6999C242.1 44.1999 247.7 41.8999 254 41.8999C260 41.8999 264.6 43.8999 267.9 48.1999V42.6999H282.5V92.0999H268.4V86.4999ZM256.9 79.0999C263.2 79.0999 268.4 73.9999 268.4 67.0999C268.4 59.9999 263.2 54.6999 256.3 54.6999C249.4 54.6999 244 60.2999 244 66.9999C244.2 73.8999 249.5 79.0999 256.9 79.0999Z"
    fill="black"
  />
  <path
    d="M292 92.0001V42.6001H305.2V49.2001C308.2 44.1001 312.7 41.6001 318.6 41.6001C324.5 41.6001 329.1 44.2001 332.3 49.5001C337.4 44.1001 341.4 41.6001 347.6 41.6001C358.7 41.6001 365 47.9001 365 59.4001V92.0001H350.8V65.2001C350.8 58.3001 349.3 55.2001 343.9 55.2001C338.4 55.2001 335.4 58.6001 335.4 65.2001V92.0001H321.1V65.2001C321.1 58.3001 319.6 55.2001 314.2 55.2001C308.7 55.2001 305.7 58.6001 305.7 65.2001V92.0001H292Z"
    fill="black"
  />
  <path
    d="M111.4 55.7002C80.6002 55.7002 55.7002 80.6002 55.7002 111.4C86.5002 111.4 111.4 86.5002 111.4 55.7002Z"
    fill="#698714"
  />
  <path
    d="M0 55.7002C0 86.5002 24.9 111.4 55.7 111.4C55.7 80.6002 30.8 55.7002 0 55.7002Z"
    fill="#698714"
  />
  <path
    d="M55.7002 100.8C55.7002 70.8001 79.5002 41.7001 109.2 40.4001C107.1 33.1001 103.6 26.4001 98.9002 20.6001C74.1002 29.4001 55.7002 62.8001 55.7002 89.3001C55.7002 62.8001 37.2002 29.4001 12.5002 20.6001C7.8002 26.4001 4.3002 33.1001 2.2002 40.4001C31.9002 41.7001 55.7002 70.8001 55.7002 100.8Z"
    fill="#A0C800"
  />
  <path
    d="M55.6999 77.6C55.6999 56.4 67.4999 25.3 84.9999 8.3C76.4999 3 66.4999 0 55.6999 0C44.8999 0 34.9999 3 26.3999 8.3C43.8999 25.3 55.6999 56.4 55.6999 77.6Z"
    fill="#A0C800"
  />
</svg>
