<svg xmlns="http://www.w3.org/2000/svg" width="107.154" height="21.022" viewBox="0 0 107.154 21.022">
  <g id="Releaf_logo" data-name="Releaf logo" transform="translate(0.002)">
    <path id="Path_12733" data-name="Path 12733" d="M118.208,97.627c1.843,1.28,4.341-.379,5.375.983a4.706,4.706,0,0,1,.6,1.085c.113.3.287,1.044.41,1.27l.215-.256c.082-.113.154-.225.225-.328,1.208-1.72,2.16-3.184,1.782-5.611-.461-2.979-1.956-5.5-5.283-5.416-.625.021-1.587,0-1.679.481a19.078,19.078,0,0,0,.01,2.16,4.183,4.183,0,0,0,1.454,2.805c.42.287.87.553,1.311.85.2.143.451.3.655.42l1.229.942c.2.195.317.4.481.573l-.051.072c-.02.01-.317-.317-.358-.348a6.694,6.694,0,0,0-1.341-.942c-.676-.389-1.28-.7-1.915-1.1a3.842,3.842,0,0,1-1.935-2.58c-.174-.7-.051-1.147-.235-1.321-.389-.4-1.382,1.024-1.556,1.321-.852,1.535-1.063,3.779.6,4.935Zm8.426,12.675c-.747.164-.512.1-.645-.737-.461-2.969-.451-1.689-1.055-3.819s-.143-3.9,1.188-4.812c1.413-.962,2.908-1.188,4.628-1.792,2.6-.921,3.409-2.386,3.88-2.58a4.065,4.065,0,0,1-.932,1.566c-3.522,3.983-2.293,6.184-3.778,8.365a4.621,4.621,0,0,1-2.877,1.945c-.266-2.334-.7-3.338.676-5,.635-.768,2.928-2.252,3.235-2.959-.307.082-.3.246-.532.43-1.188.932-2.846,1.955-3.563,3-1.413,2.058-.133,5.14-.225,6.389ZM126.4,99.849c.051-.164.737-1.331.993-1.976.573-1.4-.01-3.2-.379-4.874-.471-2.078-.829-3.409,2.048-1.874A3.28,3.28,0,0,1,130.5,92.57a2,2,0,0,1-.041,2.191l-1.136,1.761c.584-.195,1.167-1.3,1.577-1.915a4.2,4.2,0,0,1,1.392,1.761c.829,1.976-2.693,2.3-3.624,2.549A15.586,15.586,0,0,0,126.4,99.849Z" transform="translate(-116.956 -89.353)" fill="#8fc54d" fill-rule="evenodd"/>
    <path id="Path_12734" data-name="Path 12734" d="M11.56-19.728c0,1.38-.753,2.209-2.359,2.209H6.54v-4.367H9.2C10.807-21.886,11.56-21.033,11.56-19.728ZM2.248-25.451v17.62H6.54v-6.651H7.569l3.664,6.651h4.844l-4.066-6.978a5.129,5.129,0,0,0,3.915-5.1c0-3.062-2.159-5.547-6.476-5.547Zm27.157,0H18.612v17.62H29.405V-11.27H22.9v-3.865h5.748v-3.313H22.9v-3.564h6.5Zm2.786,0v17.62h9.914v-3.313H36.483V-25.451Zm22.765,0H44.163v17.62H54.956V-11.27h-6.5v-3.865H54.2v-3.313H48.455v-3.564h6.5ZM69.764-7.831h4.543l-6.375-17.62h-4.97L56.587-7.831H61.08l1.054-3.112H68.71Zm-2.159-6.425H63.264l2.159-6.45ZM76.24-7.831h4.292v-7.128H85.9V-18.3H80.532v-3.715H87.71v-3.439H76.24Z" transform="translate(19.442 27.152)" fill="#8fc54d"/>
  </g>
</svg>
